<svg width="50" height="50" viewBox="0 0 50 50" fill="none" xmlns="http://www.w3.org/2000/svg">
<path d="M25 2C12.3095 2 2 12.3095 2 25C2 37.6905 12.3095 48 25 48C37.6905 48 48 37.6905 48 25C48 12.3095 37.6905 2 25 2ZM25 4C36.6095 4 46 13.3905 46 25C46 36.6095 36.6095 46 25 46C13.3905 46 4 36.6095 4 25C4 13.3905 13.3905 4 25 4ZM34.9883 14.9883C34.8258 14.9915 34.6665 15.0342 34.5243 15.1129C34.382 15.1915 34.2611 15.3036 34.1719 15.4395L23.9707 30.4766L16.6797 23.7109C16.5839 23.6188 16.4707 23.5466 16.3468 23.4987C16.2228 23.4508 16.0905 23.4281 15.9576 23.4319C15.8248 23.4357 15.694 23.4659 15.573 23.5209C15.4519 23.5758 15.3431 23.6543 15.2527 23.7518C15.1624 23.8493 15.0924 23.9638 15.0468 24.0886C15.0012 24.2135 14.981 24.3462 14.9873 24.4789C14.9936 24.6117 15.0263 24.7419 15.0834 24.8619C15.1406 24.9819 15.2211 25.0892 15.3203 25.1777L24.3164 33.5254L35.8281 16.5605C35.9337 16.4092 35.9954 16.2317 36.0063 16.0475C36.0173 15.8633 35.9771 15.6797 35.8901 15.517C35.8032 15.3542 35.673 15.2187 35.5138 15.1254C35.3546 15.0321 35.1727 14.9846 34.9883 14.9883Z" fill="white"/>
</svg>
