<svg width="1024" height="1024" viewBox="0 0 1024 1024" fill="none" xmlns="http://www.w3.org/2000/svg">
<path d="M353.22 456.63C347.88 448.61 342.327 440.453 336.56 432.16C326.57 417.76 308.66 412.27 292.67 420.2C290.417 421.32 288.237 422.363 286.13 423.33C285.537 423.61 284.943 423.61 284.35 423.33C271.03 417.12 256.13 423.86 249 435.69C248.25 436.94 247.87 438.61 247.14 440.04C246.98 440.353 246.74 440.58 246.42 440.72C236.28 445.227 228.14 449.913 222 454.78C212.38 462.413 207.957 472.463 208.73 484.93C208.739 485.092 208.707 485.254 208.637 485.401C208.567 485.548 208.462 485.675 208.33 485.77C203.043 489.563 197.667 493.28 192.2 496.92C178.03 506.35 172.9 524.36 180.54 539.73C200.8 580.5 228.04 618.45 257.43 653.08C263.097 659.747 271.427 668.66 282.42 679.82C290.14 687.65 298.94 691.82 309.74 691.82C311.973 691.82 313.96 691.863 315.7 691.95" stroke="#2E2E34" stroke-width="2"/>
<path d="M611.25 666.08C607.19 680.07 603.16 693.73 599.9 707.79C595.12 728.38 609.14 745.94 629.76 748.37C630.087 748.41 630.323 748.58 630.47 748.88C635.47 759.1 644.38 765.12 655.78 765.56C657.48 765.62 659.01 765.727 660.37 765.88" stroke="#2E2E34" stroke-width="2"/>
<path d="M817.84 570.3C815.66 557.686 808.6 549.066 796.66 544.44C792.793 542.94 788.577 541.69 784.01 540.69C782.957 540.463 782.473 539.813 782.56 538.74C782.97 533.64 782.97 530.01 780.52 525.37C775.087 515.096 766.63 509.71 755.15 509.21C752.31 509.09 748.89 509.86 745.72 510.12C745.552 510.132 745.382 510.107 745.225 510.044C745.067 509.982 744.925 509.885 744.81 509.76C741.817 506.453 738.16 503.69 733.84 501.47" stroke="#2E2E34" stroke-width="2"/>
<path d="M662.43 263.82C661.083 262.6 658.887 260.297 655.84 256.91C647.94 248.11 638.49 239.283 627.49 230.43C618.49 223.18 611.68 219.07 600.98 217.69C585.02 215.62 575.83 222.34 563.16 230.08C562.42 230.533 561.727 230.643 561.08 230.41C541.7 223.32 522.56 232.19 514.96 251.18C514.854 251.439 514.682 251.666 514.463 251.838C514.244 252.01 513.984 252.121 513.71 252.16C494.48 255.11 480.01 270.55 481.05 290.62C481.17 292.96 479.32 294.36 478.5 296.07C473.86 305.71 475.84 316.17 480.31 325.46C487.57 340.57 497.26 354.61 507.07 368.1C507.157 368.219 507.193 368.369 507.171 368.515C507.148 368.661 507.069 368.792 506.95 368.88L378.91 463.71" stroke="#2E2E34" stroke-width="2"/>
<path d="M662.43 263.82C670.89 274.213 676.387 281.043 678.92 284.31C699.71 311.13 718.2 342.15 730.97 374.08C733.777 381.093 735.347 386.49 735.68 390.27C736.207 396.256 735.19 401.953 732.63 407.36C727.41 418.34 718.44 424 708.27 429.67C708.056 429.791 707.88 429.968 707.76 430.183C707.64 430.399 707.581 430.643 707.59 430.89C708.15 446.63 701.42 457.753 687.4 464.26C682.287 466.633 677.193 469.016 672.12 471.41C671.431 471.738 670.836 472.237 670.39 472.86C668.54 475.48 666.6 478.45 664.39 480.61C654.77 490.016 643.237 492.66 629.79 488.54C629.56 488.468 629.318 488.445 629.078 488.472C628.839 488.5 628.608 488.577 628.4 488.7C619.58 493.9 610.403 494.573 600.87 490.72C599.097 490.006 597.347 489.263 595.62 488.49" stroke="#2E2E34" stroke-width="2"/>
<path d="M595.62 488.49C587.67 483.94 581.27 477.27 575.49 470.25C567.15 460.11 559.357 449.59 552.11 438.69C551.863 438.317 551.56 438.263 551.2 438.53L451 512.7C450.966 512.723 450.939 512.755 450.923 512.793C450.907 512.831 450.902 512.873 450.909 512.913C450.917 512.954 450.936 512.991 450.965 513.021C450.993 513.05 451.03 513.071 451.07 513.08L640.79 562.76C641.083 562.839 641.395 562.801 641.661 562.656C641.928 562.511 642.128 562.269 642.22 561.98L652.55 529.48" stroke="#2E2E34" stroke-width="2"/>
<path d="M652.55 529.48C654.15 524.74 655.68 519.41 658.08 515.41C663.59 506.25 672.64 500.49 683.33 499.57C691.15 498.89 697.9 500.76 705.86 503.21C706.182 503.313 706.527 503.295 706.83 503.16C708.59 502.38 710.49 501.28 712.03 500.75C719.537 498.143 726.807 498.383 733.84 501.47" stroke="#2E2E34" stroke-width="2"/>
<path d="M817.84 570.3C817.833 575.926 817.64 579.496 817.26 581.01C814.93 590.41 812.81 601.11 810.75 609.3C804.637 633.613 796.827 659.366 787.32 686.56C779.087 710.113 771.1 729.866 763.36 745.82C759.407 753.973 753.067 759.31 744.34 761.83C733.03 765.09 723.03 761 712.16 758.65C711.813 758.577 711.537 758.68 711.33 758.96C705.56 766.7 699.05 771.65 689 772.25C681.027 772.736 673.36 770.566 666 765.74C665.207 765.22 663.33 765.266 660.37 765.88" stroke="#2E2E34" stroke-width="2"/>
<path d="M611.25 666.08L618.29 642.77C618.383 642.463 618.277 642.273 617.97 642.2L445.24 597.41C444.173 597.137 443.833 597.513 444.22 598.54C449.58 612.9 443.52 627.97 431.88 636.65C430.387 637.763 428.853 638.867 427.28 639.96C427.01 640.147 426.82 640.429 426.75 640.75C426.27 642.91 425.9 645.35 425.16 647.25C421.3 657.09 414.143 663.477 403.69 666.41C401.31 667.077 398.887 667.683 396.42 668.23C396.087 668.303 395.837 668.483 395.67 668.77C385.1 687.37 363.25 694.08 345.79 679.94C345.523 679.72 345.22 679.647 344.88 679.72C343.527 680.02 342.26 680.557 341.08 681.33C332.92 686.65 326.29 690.32 315.7 691.95" stroke="#2E2E34" stroke-width="2"/>
<path d="M353.22 456.63L364.16 473.39C364.228 473.494 364.316 473.582 364.419 473.651C364.523 473.719 364.64 473.765 364.762 473.787C364.885 473.808 365.011 473.804 365.133 473.776C365.254 473.747 365.369 473.694 365.47 473.62L378.91 463.71" stroke="#2E2E34" stroke-width="2"/>
<path d="M652.41 313.83C658.363 321.677 663.62 329.473 668.18 337.22" stroke="#423E45" stroke-width="2"/>
<path d="M668.18 337.22C682.98 361.65 695.81 386.92 704 414.22C704.03 414.32 704.082 414.412 704.153 414.49C704.223 414.567 704.31 414.627 704.407 414.667C704.504 414.706 704.608 414.723 704.713 414.717C704.817 414.71 704.919 414.681 705.01 414.63C713.41 409.99 720.42 404.23 720.52 393.81C720.54 391.33 719.787 388.04 718.26 383.94C715.02 375.28 711.627 367.277 708.08 359.93C702.22 347.79 695.327 335.423 687.4 322.83" stroke="#2E2E34" stroke-width="2"/>
<path d="M687.4 322.83L671.92 300.29" stroke="#423E45" stroke-width="2"/>
<path d="M671.92 300.29C660.427 284.383 647.603 269.46 633.45 255.52C630.123 252.24 626.59 248.976 622.85 245.73C612.93 237.11 604.85 230.6 591.89 232.06C587.16 232.59 582.55 235.35 578.21 237.6C578.12 237.647 578.043 237.717 577.988 237.802C577.932 237.888 577.9 237.986 577.894 238.088C577.888 238.19 577.908 238.291 577.953 238.383C577.998 238.474 578.066 238.552 578.15 238.61C603.15 255.35 625.04 278.37 643.78 302.47C648.307 308.29 651.183 312.076 652.41 313.83" stroke="#4B4D55" stroke-width="2"/>
<path d="M671.92 300.29L652.41 313.83" stroke="#7B7F87" stroke-width="2"/>
<path d="M687.4 322.83L668.18 337.22" stroke="#5E6066" stroke-width="2"/>
<path d="M619.25 335.54L635.51 359.67" stroke="#423E45" stroke-width="2"/>
<path d="M635.51 359.67C648.67 381.52 659.75 404.48 667.93 428.67C670.67 436.796 672.577 444.99 673.65 453.25C673.665 453.366 673.705 453.478 673.768 453.577C673.831 453.676 673.916 453.76 674.015 453.822C674.115 453.885 674.227 453.924 674.344 453.937C674.461 453.951 674.579 453.938 674.69 453.9C686.84 449.71 694.88 442.27 691.93 428.5C690.557 422.093 688.55 415.27 685.91 408.03C679.323 389.97 671.24 372.62 661.66 355.98C660 353.1 657.79 348.87 655.42 345.53" stroke="#2E2E34" stroke-width="2"/>
<path d="M655.42 345.53L639.37 321.53" stroke="#423E45" stroke-width="2"/>
<path d="M639.37 321.53C620.11 294.91 597.47 270.77 570.87 251.38C564.943 247.067 558.397 244.133 551.23 242.58C542.46 240.68 534.83 245.87 530.33 252.99C529.963 253.57 530.103 253.98 530.75 254.22C539.177 257.293 547.003 261.557 554.23 267.01C579.42 286.01 600.85 310.03 619.25 335.54" stroke="#4B4D55" stroke-width="2"/>
<path d="M639.37 321.53L639.38 321.94C639.4 322.333 639.213 322.55 638.82 322.59C638.687 322.61 638.55 322.623 638.41 322.63C638.177 322.643 637.96 322.713 637.76 322.84C633.107 325.86 628.607 329.083 624.26 332.51C623.08 333.436 621.41 334.446 619.25 335.54" stroke="#7B7F87" stroke-width="2"/>
<path d="M655.42 345.53L635.51 359.67" stroke="#5E6066" stroke-width="2"/>
<path d="M590.71 355.77L606.2 378.8" stroke="#423E45" stroke-width="2"/>
<path d="M606.2 378.8C616.21 396.31 625.09 413.53 631.87 432.58C637.02 447.06 640.99 460.49 638.34 474.54C638.32 474.648 638.323 474.76 638.35 474.867C638.377 474.974 638.427 475.073 638.497 475.159C638.566 475.245 638.653 475.314 638.752 475.363C638.851 475.411 638.96 475.437 639.07 475.44C642.88 475.55 646.75 475.28 650.08 473.41C661.86 466.77 658.78 452.42 655.72 441.76C648.14 415.41 636.36 390.96 622.47 367.44" stroke="#2E2E34" stroke-width="2"/>
<path d="M622.47 367.44L606.68 343.95" stroke="#423E45" stroke-width="2"/>
<path d="M606.68 343.95C594.467 327.263 582.243 312.777 570.01 300.49C560.37 290.803 549.873 282.16 538.52 274.56C535.367 272.447 532.027 270.69 528.5 269.29C515.14 263.97 502.39 268.66 496.54 281.89C496.51 281.958 496.497 282.032 496.503 282.106C496.509 282.18 496.534 282.251 496.574 282.313C496.615 282.375 496.671 282.425 496.737 282.46C496.803 282.494 496.876 282.512 496.95 282.51C498.39 282.49 499.917 282.44 501.53 282.36C508.55 282.013 515.13 283.553 521.27 286.98C529.323 291.467 537.52 297.52 545.86 305.14C562.6 320.42 577.43 337.41 590.71 355.77" stroke="#4B4D55" stroke-width="2"/>
<path d="M606.68 343.95L590.71 355.77" stroke="#7B7F87" stroke-width="2"/>
<path d="M622.47 367.44L606.2 378.8" stroke="#5E6066" stroke-width="2"/>
<path d="M544.53 359.37L387.99 475.24" stroke="#2B2930" stroke-width="2"/>
<path d="M387.99 475.24L372.86 486.06C372.613 486.24 372.573 486.456 372.74 486.71L401.04 530.19C401.407 530.75 401.857 530.833 402.39 530.44L417.45 519.24" stroke="#5D636B" stroke-width="2"/>
<path d="M417.45 519.24C423.777 514.687 430.237 509.967 436.83 505.08C481.69 471.853 526.543 438.62 571.39 405.38C573.117 404.107 574.31 402.64 574.97 400.98" stroke="#2B2930" stroke-width="2"/>
<path d="M574.97 400.98C579.59 401.22 584.59 399.79 586.77 405.51C588.023 408.81 587.087 411.633 583.96 413.98C577.333 418.946 570.803 423.69 564.37 428.21C564.216 428.317 564.085 428.454 563.984 428.612C563.883 428.769 563.814 428.946 563.782 429.13C563.749 429.314 563.753 429.502 563.794 429.684C563.835 429.866 563.912 430.038 564.02 430.19C570.513 439.43 577.147 448.396 583.92 457.09C590.75 465.85 604.96 483.98 618.19 477.34C625.9 473.47 624.71 464.14 622.81 456.71C616.43 431.72 606.44 408.23 593.02 386.22C575.41 357.3 555.01 331.65 528.99 310.19C522.83 305.11 518.95 301.94 512.98 298.76C506.96 295.55 497.85 294.71 493.3 300.54C488.37 306.86 493.09 317.19 496.37 323.39C502.37 334.72 508.44 343.77 517.1 356.62C517.673 357.473 518.25 358.17 518.83 358.71C519.048 358.911 519.326 359.035 519.62 359.064C519.914 359.093 520.209 359.025 520.46 358.87C523.533 356.95 526.493 354.773 529.34 352.34C531.26 350.7 534.53 348.5 537.21 348.49C541.65 348.48 543.41 351.57 543.77 355.58C543.903 357.033 544.157 358.296 544.53 359.37" stroke="#1F1B22" stroke-width="2"/>
<path d="M574.97 400.98C575.29 398.907 575.637 396.87 576.01 394.87C579.15 378.09 567.65 360.32 549.51 359.71C547.923 359.657 546.263 359.543 544.53 359.37" stroke="#818A92" stroke-width="2"/>
<path d="M417.45 519.24C416.45 517.213 415.277 515.253 413.93 513.36C411.717 510.253 410.41 508.386 410.01 507.76C403.01 496.78 395.67 485.94 387.99 475.24" stroke="#737373" stroke-width="2"/>
<path d="M352.77 523.45L368.74 548.11" stroke="#423E45" stroke-width="2"/>
<path d="M368.74 548.11L420.58 625.82C420.98 626.427 421.537 626.64 422.25 626.46C422.883 626.3 423.63 625.81 424.49 624.99C431.77 618.01 433.28 608.43 427.95 599.75C414.82 578.39 400.84 557.55 386.89 536.73" stroke="#2E2E34" stroke-width="2"/>
<path d="M386.89 536.73L370.83 511.91" stroke="#423E45" stroke-width="2"/>
<path d="M370.83 511.91C356.637 489.457 341.963 466.983 326.81 444.49C323.217 439.163 320.377 435.794 318.29 434.38C311.26 429.63 303.13 430.84 295.85 434.73C295.33 435.01 295.23 435.397 295.55 435.89L352.77 523.45" stroke="#4B4D55" stroke-width="2"/>
<path d="M370.83 511.91L352.77 523.45" stroke="#7B7F87" stroke-width="2"/>
<path d="M386.89 536.73C386.677 537.17 386.243 537.427 385.59 537.5C385.263 537.54 384.963 537.647 384.69 537.82L368.74 548.11" stroke="#5E6066" stroke-width="2"/>
<path d="M317.65 543.83L334.72 569.69" stroke="#423E45" stroke-width="2"/>
<path d="M334.72 569.69C353.967 597.69 373.493 625.28 393.3 652.46C393.86 653.22 394.51 653.577 395.25 653.53C402.52 653.08 412.42 647.35 410.83 638.6C410.744 638.145 410.567 637.709 410.31 637.32L355.69 556.11" stroke="#2E2E34" stroke-width="2"/>
<path d="M355.69 556.11L339.46 531.02" stroke="#423E45" stroke-width="2"/>
<path d="M339.46 531.02C319.087 499.64 298.623 468.42 278.07 437.36C277.397 436.34 276.207 435.82 274.5 435.8C268.067 435.726 263.91 438.446 262.03 443.96C260.64 448.03 271.44 467.38 273.92 471.81C287.52 496.116 302.097 520.123 317.65 543.83" stroke="#4B4D55" stroke-width="2"/>
<path d="M339.46 531.02C338.133 531.14 337.103 531.503 336.37 532.11C335.483 532.843 335.02 533.22 334.98 533.24C329.24 536.767 323.463 540.297 317.65 543.83" stroke="#7B7F87" stroke-width="2"/>
<path d="M355.69 556.11L334.72 569.69" stroke="#5E6066" stroke-width="2"/>
<path d="M271.23 572.4L288.62 596.56" stroke="#423E45" stroke-width="2"/>
<path d="M288.62 596.56C307.19 621.32 327.63 646.2 351.3 666.19C357.29 671.25 363.37 674.67 371.24 672.22C372.97 671.69 384.24 666.06 381.71 662.54C361.377 634.273 341.187 605.813 321.14 577.16" stroke="#2E2E34" stroke-width="2"/>
<path d="M321.14 577.16L304.48 551.71" stroke="#423E45" stroke-width="2"/>
<path d="M304.48 551.71C283.92 519.74 269.01 495.5 254.12 466.89C252.34 463.47 250.767 460.006 249.4 456.5C249.351 456.372 249.274 456.256 249.174 456.162C249.075 456.067 248.955 455.996 248.824 455.953C248.694 455.91 248.554 455.896 248.417 455.913C248.28 455.93 248.148 455.976 248.03 456.05C243.943 458.636 239.787 461.23 235.56 463.83C231.66 466.23 228.983 468.386 227.53 470.3C218.55 482.13 230.1 504.03 235.94 515.08C246.393 534.84 258.157 553.946 271.23 572.4" stroke="#4B4D55" stroke-width="2"/>
<path d="M304.48 551.71L271.23 572.4" stroke="#7B7F87" stroke-width="2"/>
<path d="M321.14 577.16L288.62 596.56" stroke="#5E6066" stroke-width="2"/>
<path d="M231.86 595.14L248.76 618.56" stroke="#423E45" stroke-width="2"/>
<path d="M248.76 618.56C262.593 637.04 277.597 654.347 293.77 670.48C298.077 674.78 303.24 677.11 309.26 677.47C318.3 678 324.46 674.14 331.82 669.57C331.876 669.535 331.923 669.487 331.957 669.431C331.992 669.376 332.014 669.313 332.02 669.248C332.027 669.184 332.019 669.118 331.996 669.058C331.974 668.998 331.937 668.944 331.89 668.9C310.83 648.56 292.62 626.18 274.59 603.17" stroke="#2E2E34" stroke-width="2"/>
<path d="M274.59 603.17L257.94 580.22" stroke="#423E45" stroke-width="2"/>
<path d="M257.94 580.22C251.447 570.646 245.16 560.97 239.08 551.19C229.29 535.44 219.69 518.85 213.01 501.56C212.972 501.463 212.912 501.377 212.834 501.308C212.756 501.24 212.664 501.19 212.563 501.164C212.463 501.137 212.358 501.135 212.257 501.157C212.155 501.179 212.06 501.224 211.98 501.29C202.99 508.6 192.22 511.29 192.03 524.58C191.96 529.03 193.83 532.54 195.92 536.57C206.867 557.623 218.847 577.146 231.86 595.14" stroke="#4B4D55" stroke-width="2"/>
<path d="M257.94 580.22C256.507 580.433 255.283 580.863 254.27 581.51C246.95 586.203 239.48 590.746 231.86 595.14" stroke="#7B7F87" stroke-width="2"/>
<path d="M274.59 603.17L248.76 618.56" stroke="#5E6066" stroke-width="2"/>
<path d="M680.67 617.74L672.53 645.55" stroke="#423E45" stroke-width="2"/>
<path d="M672.53 645.55C663.29 677.036 654.22 708.697 645.32 740.53C642.27 751.43 661.23 754.29 663.54 748.27C675.313 717.59 686.233 685.463 696.3 651.89" stroke="#2E2E34" stroke-width="2"/>
<path d="M696.3 651.89L705.08 623.31" stroke="#423E45" stroke-width="2"/>
<path d="M705.08 623.31C714.273 591.017 723.513 558.73 732.8 526.45C734.07 522.04 735.23 519.38 731.37 516.64C726.37 513.087 721.087 512.57 715.52 515.09C711.95 516.71 710.83 521.8 709.68 525.16C699.213 555.78 689.543 586.64 680.67 617.74" stroke="#4B4D55" stroke-width="2"/>
<path d="M705.08 623.31C697.09 621.31 688.78 618.41 680.67 617.74" stroke="#7B7F87" stroke-width="2"/>
<path d="M696.3 651.89L672.53 645.55" stroke="#5E6066" stroke-width="2"/>
<path d="M644.21 608.54L636.28 635.65" stroke="#423E45" stroke-width="2"/>
<path d="M636.28 635.65C633.96 643.943 630.84 654.467 626.92 667.22C622.853 680.413 618.803 695.003 614.77 710.99C611.86 722.53 618.92 732.41 630.28 734.18C630.484 734.213 630.693 734.17 630.868 734.059C631.043 733.949 631.172 733.778 631.23 733.58L657.64 641.9C657.687 641.747 657.697 641.593 657.67 641.44C657.637 641.247 657.697 641.123 657.85 641.07" stroke="#2E2E34" stroke-width="2"/>
<path d="M657.85 641.07L665.96 613.63" stroke="#423E45" stroke-width="2"/>
<path d="M665.96 613.63C675.393 580.97 685.52 548.43 696.34 516.01C696.372 515.919 696.383 515.823 696.374 515.727C696.365 515.631 696.335 515.537 696.287 515.453C696.239 515.369 696.173 515.296 696.094 515.239C696.016 515.181 695.926 515.141 695.83 515.12C685.43 512.96 674.51 513.8 670.07 524.87C668.25 529.417 665.183 538.783 660.87 552.97C655.203 571.617 649.65 590.14 644.21 608.54" stroke="#4B4D55" stroke-width="2"/>
<path d="M665.96 613.63C658.627 611.397 651.377 609.7 644.21 608.54" stroke="#7B7F87" stroke-width="2"/>
<path d="M657.85 641.07L657.49 641.12C657.293 641.153 657.094 641.142 656.91 641.09L636.28 635.65" stroke="#5E6066" stroke-width="2"/>
<path d="M719.85 627.18L711.18 655.52" stroke="#423E45" stroke-width="2"/>
<path d="M711.18 655.52C705.5 674.06 701.747 686.047 699.92 691.48C692.86 712.52 685.47 733.44 677.75 754.24C677.678 754.436 677.677 754.651 677.749 754.847C677.82 755.043 677.959 755.207 678.14 755.31C685.46 759.53 693.75 758.72 697.77 750.5C712.257 720.833 724.14 691.153 733.42 661.46" stroke="#2E2E34" stroke-width="2"/>
<path d="M733.42 661.46L742.42 632.48" stroke="#423E45" stroke-width="2"/>
<path d="M742.42 632.48C750.12 605.54 756.84 580.15 765.56 546.26C766.58 542.29 769.27 532.73 766.65 529.36C762.77 524.35 757 523.02 750.84 523.53C749.94 523.596 749.367 524.063 749.12 524.93L719.85 627.18" stroke="#4B4D55" stroke-width="2"/>
<path d="M742.42 632.48C735.1 630.393 727.767 628.786 720.42 627.66C720.247 627.633 720.117 627.546 720.03 627.4C719.977 627.32 719.917 627.246 719.85 627.18" stroke="#7B7F87" stroke-width="2"/>
<path d="M733.42 661.46L711.18 655.52" stroke="#5E6066" stroke-width="2"/>
<path d="M423.71 532.85L409.93 542.79C409.829 542.861 409.759 542.969 409.737 543.09C409.714 543.212 409.741 543.338 409.81 543.44L433.29 579.18C433.47 579.453 433.72 579.63 434.04 579.71L457.68 585.59" stroke="#5D636B" stroke-width="2"/>
<path d="M457.68 585.59L620.89 628.07C621.843 628.317 622.463 627.967 622.75 627.02L637.76 577.36C637.86 577.033 637.743 576.827 637.41 576.74L437.17 524.43C436.659 524.296 436.124 524.28 435.606 524.382C435.088 524.484 434.601 524.702 434.18 525.02L423.71 532.85" stroke="#2B2930" stroke-width="2"/>
<path d="M457.68 585.59C457.673 583.75 457.333 582.333 456.66 581.34C446.83 566.88 437.32 551.95 426.97 537.87C425.79 536.27 424.703 534.597 423.71 532.85" stroke="#737373" stroke-width="2"/>
<path d="M757.17 636.25L748.36 665.15" stroke="#423E45" stroke-width="2"/>
<path d="M748.36 665.15C739.44 692.1 729.7 718.35 717.87 744.09C717.65 744.57 717.797 744.873 718.31 745C723.61 746.3 730.05 748.48 734.85 748.52C742.163 748.587 747.413 745.027 750.6 737.84C759.68 717.33 768.03 696.3 776.41 671.89" stroke="#2E2E34" stroke-width="2"/>
<path d="M776.41 671.89L785.58 643.17" stroke="#423E45" stroke-width="2"/>
<path d="M785.58 643.17C786.52 640.163 787.42 637.19 788.28 634.25C793.947 614.876 798.687 595.283 802.5 575.47C802.953 573.13 802.813 570.846 802.08 568.62C798.61 558.1 789.46 556.69 780.14 554.45C779.949 554.404 779.748 554.435 779.58 554.536C779.412 554.637 779.29 554.8 779.24 554.99L757.17 636.25" stroke="#4B4D55" stroke-width="2"/>
<path d="M785.58 643.17L757.17 636.25" stroke="#7B7F87" stroke-width="2"/>
<path d="M776.41 671.89L748.36 665.15" stroke="#5E6066" stroke-width="2"/>
<path d="M662.43 263.82C670.89 274.213 676.387 281.043 678.92 284.31C699.71 311.13 718.2 342.15 730.97 374.08C733.777 381.093 735.347 386.49 735.68 390.27C736.207 396.257 735.19 401.953 732.63 407.36C727.41 418.34 718.44 424 708.27 429.67C708.056 429.791 707.88 429.968 707.76 430.184C707.64 430.399 707.581 430.643 707.59 430.89C708.15 446.63 701.42 457.753 687.4 464.26C682.287 466.633 677.193 469.017 672.12 471.41C671.431 471.738 670.836 472.237 670.39 472.86C668.54 475.48 666.6 478.45 664.39 480.61C654.77 490.017 643.237 492.66 629.79 488.54C629.56 488.468 629.317 488.445 629.078 488.472C628.839 488.5 628.608 488.577 628.4 488.7C619.58 493.9 610.403 494.573 600.87 490.72C599.097 490.007 597.347 489.263 595.62 488.49C587.67 483.94 581.27 477.27 575.49 470.25C567.15 460.11 559.357 449.59 552.11 438.69C551.863 438.317 551.56 438.263 551.2 438.53L451 512.7C450.966 512.723 450.939 512.755 450.923 512.793C450.907 512.831 450.902 512.873 450.909 512.913C450.917 512.954 450.936 512.991 450.965 513.021C450.993 513.05 451.03 513.071 451.07 513.08L640.79 562.76C641.083 562.839 641.395 562.801 641.661 562.656C641.927 562.511 642.128 562.269 642.22 561.98L652.55 529.48C654.15 524.74 655.68 519.41 658.08 515.41C663.59 506.25 672.64 500.49 683.33 499.57C691.15 498.89 697.9 500.76 705.86 503.21C706.182 503.313 706.527 503.295 706.83 503.16C708.59 502.38 710.49 501.28 712.03 500.75C719.537 498.143 726.807 498.383 733.84 501.47C738.16 503.69 741.817 506.453 744.81 509.76C744.925 509.885 745.067 509.982 745.225 510.044C745.382 510.107 745.552 510.133 745.72 510.12C748.89 509.86 752.31 509.09 755.15 509.21C766.63 509.71 775.087 515.097 780.52 525.37C782.97 530.01 782.97 533.64 782.56 538.74C782.473 539.813 782.957 540.463 784.01 540.69C788.577 541.69 792.793 542.94 796.66 544.44C808.6 549.067 815.66 557.687 817.84 570.3C817.833 575.927 817.64 579.497 817.26 581.01C814.93 590.41 812.81 601.11 810.75 609.3C804.637 633.613 796.827 659.367 787.32 686.56C779.087 710.113 771.1 729.867 763.36 745.82C759.407 753.973 753.067 759.31 744.34 761.83C733.03 765.09 723.03 761 712.16 758.65C711.813 758.577 711.537 758.68 711.33 758.96C705.56 766.7 699.05 771.65 689 772.25C681.027 772.737 673.36 770.567 666 765.74C665.207 765.22 663.33 765.267 660.37 765.88C659.01 765.727 657.48 765.62 655.78 765.56C644.38 765.12 635.47 759.1 630.47 748.88C630.323 748.58 630.087 748.41 629.76 748.37C609.14 745.94 595.12 728.38 599.9 707.79C603.16 693.73 607.19 680.07 611.25 666.08L618.29 642.77C618.383 642.463 618.277 642.273 617.97 642.2L445.24 597.41C444.173 597.137 443.833 597.513 444.22 598.54C449.58 612.9 443.52 627.97 431.88 636.65C430.387 637.763 428.853 638.867 427.28 639.96C427.01 640.147 426.821 640.429 426.75 640.75C426.27 642.91 425.9 645.35 425.16 647.25C421.3 657.09 414.143 663.477 403.69 666.41C401.31 667.077 398.887 667.683 396.42 668.23C396.087 668.303 395.837 668.483 395.67 668.77C385.1 687.37 363.25 694.08 345.79 679.94C345.523 679.72 345.22 679.647 344.88 679.72C343.527 680.02 342.26 680.557 341.08 681.33C332.92 686.65 326.29 690.32 315.7 691.95C313.96 691.863 311.973 691.82 309.74 691.82C298.94 691.82 290.14 687.65 282.42 679.82C271.427 668.66 263.097 659.747 257.43 653.08C228.04 618.45 200.8 580.5 180.54 539.73C172.9 524.36 178.03 506.35 192.2 496.92C197.667 493.28 203.043 489.563 208.33 485.77C208.462 485.675 208.567 485.548 208.637 485.401C208.707 485.254 208.739 485.092 208.73 484.93C207.957 472.463 212.38 462.413 222 454.78C228.14 449.913 236.28 445.227 246.42 440.72C246.74 440.58 246.98 440.353 247.14 440.04C247.87 438.61 248.25 436.94 249 435.69C256.13 423.86 271.03 417.12 284.35 423.33C284.943 423.61 285.537 423.61 286.13 423.33C288.237 422.363 290.417 421.32 292.67 420.2C308.66 412.27 326.57 417.76 336.56 432.16C342.327 440.453 347.88 448.61 353.22 456.63L364.16 473.39C364.228 473.494 364.316 473.582 364.42 473.651C364.523 473.719 364.64 473.765 364.762 473.787C364.885 473.808 365.011 473.804 365.133 473.776C365.254 473.747 365.369 473.694 365.47 473.62L378.91 463.71L506.95 368.88C507.069 368.792 507.148 368.661 507.171 368.515C507.193 368.369 507.157 368.219 507.07 368.1C497.26 354.61 487.57 340.57 480.31 325.46C475.84 316.17 473.86 305.71 478.5 296.07C479.32 294.36 481.17 292.96 481.05 290.62C480.01 270.55 494.48 255.11 513.71 252.16C513.984 252.121 514.244 252.01 514.463 251.838C514.682 251.666 514.854 251.439 514.96 251.18C522.56 232.19 541.7 223.32 561.08 230.41C561.727 230.643 562.42 230.533 563.16 230.08C575.83 222.34 585.02 215.62 600.98 217.69C611.68 219.07 618.49 223.18 627.49 230.43C638.49 239.283 647.94 248.11 655.84 256.91C658.887 260.297 661.083 262.6 662.43 263.82ZM652.41 313.83C658.363 321.677 663.62 329.473 668.18 337.22C682.98 361.65 695.81 386.92 704 414.22C704.03 414.32 704.082 414.412 704.153 414.489C704.223 414.567 704.31 414.627 704.407 414.667C704.504 414.706 704.608 414.723 704.713 414.717C704.817 414.71 704.919 414.681 705.01 414.63C713.41 409.99 720.42 404.23 720.52 393.81C720.54 391.33 719.787 388.04 718.26 383.94C715.02 375.28 711.627 367.277 708.08 359.93C702.22 347.79 695.327 335.423 687.4 322.83L671.92 300.29C660.427 284.383 647.603 269.46 633.45 255.52C630.123 252.24 626.59 248.977 622.85 245.73C612.93 237.11 604.85 230.6 591.89 232.06C587.16 232.59 582.55 235.35 578.21 237.6C578.12 237.647 578.043 237.717 577.988 237.802C577.932 237.888 577.9 237.986 577.894 238.088C577.888 238.19 577.908 238.291 577.953 238.383C577.998 238.474 578.066 238.552 578.15 238.61C603.15 255.35 625.04 278.37 643.78 302.47C648.307 308.29 651.183 312.077 652.41 313.83ZM619.25 335.54L635.51 359.67C648.67 381.52 659.75 404.48 667.93 428.67C670.67 436.797 672.577 444.99 673.65 453.25C673.665 453.367 673.705 453.478 673.768 453.577C673.831 453.677 673.916 453.76 674.015 453.822C674.115 453.885 674.227 453.924 674.344 453.937C674.461 453.951 674.579 453.938 674.69 453.9C686.84 449.71 694.88 442.27 691.93 428.5C690.557 422.093 688.55 415.27 685.91 408.03C679.323 389.97 671.24 372.62 661.66 355.98C660 353.1 657.79 348.87 655.42 345.53L639.37 321.53C620.11 294.91 597.47 270.77 570.87 251.38C564.943 247.067 558.397 244.133 551.23 242.58C542.46 240.68 534.83 245.87 530.33 252.99C529.963 253.57 530.103 253.98 530.75 254.22C539.177 257.293 547.003 261.557 554.23 267.01C579.42 286.01 600.85 310.03 619.25 335.54ZM590.71 355.77L606.2 378.8C616.21 396.31 625.09 413.53 631.87 432.58C637.02 447.06 640.99 460.49 638.34 474.54C638.32 474.648 638.323 474.76 638.35 474.867C638.377 474.974 638.427 475.073 638.497 475.159C638.566 475.245 638.653 475.314 638.752 475.363C638.851 475.411 638.96 475.437 639.07 475.44C642.88 475.55 646.75 475.28 650.08 473.41C661.86 466.77 658.78 452.42 655.72 441.76C648.14 415.41 636.36 390.96 622.47 367.44L606.68 343.95C594.467 327.263 582.243 312.777 570.01 300.49C560.37 290.803 549.873 282.16 538.52 274.56C535.367 272.447 532.027 270.69 528.5 269.29C515.14 263.97 502.39 268.66 496.54 281.89C496.51 281.958 496.497 282.032 496.503 282.106C496.509 282.18 496.534 282.251 496.574 282.313C496.615 282.375 496.671 282.425 496.737 282.46C496.803 282.494 496.876 282.511 496.95 282.51C498.39 282.49 499.917 282.44 501.53 282.36C508.55 282.013 515.13 283.553 521.27 286.98C529.323 291.467 537.52 297.52 545.86 305.14C562.6 320.42 577.43 337.41 590.71 355.77ZM544.53 359.37L387.99 475.24L372.86 486.06C372.613 486.24 372.573 486.457 372.74 486.71L401.04 530.19C401.407 530.75 401.857 530.833 402.39 530.44L417.45 519.24C423.777 514.687 430.237 509.967 436.83 505.08C481.69 471.853 526.543 438.62 571.39 405.38C573.117 404.107 574.31 402.64 574.97 400.98C579.59 401.22 584.59 399.79 586.77 405.51C588.023 408.81 587.087 411.633 583.96 413.98C577.333 418.947 570.803 423.69 564.37 428.21C564.216 428.317 564.085 428.454 563.984 428.612C563.883 428.77 563.814 428.946 563.782 429.13C563.749 429.314 563.753 429.502 563.794 429.684C563.835 429.866 563.912 430.038 564.02 430.19C570.513 439.43 577.147 448.397 583.92 457.09C590.75 465.85 604.96 483.98 618.19 477.34C625.9 473.47 624.71 464.14 622.81 456.71C616.43 431.72 606.44 408.23 593.02 386.22C575.41 357.3 555.01 331.65 528.99 310.19C522.83 305.11 518.95 301.94 512.98 298.76C506.96 295.55 497.85 294.71 493.3 300.54C488.37 306.86 493.09 317.19 496.37 323.39C502.37 334.72 508.44 343.77 517.1 356.62C517.673 357.473 518.25 358.17 518.83 358.71C519.048 358.911 519.326 359.035 519.62 359.064C519.914 359.093 520.209 359.025 520.46 358.87C523.533 356.95 526.493 354.773 529.34 352.34C531.26 350.7 534.53 348.5 537.21 348.49C541.65 348.48 543.41 351.57 543.77 355.58C543.903 357.033 544.157 358.297 544.53 359.37ZM352.77 523.45L368.74 548.11L420.58 625.82C420.98 626.427 421.537 626.64 422.25 626.46C422.883 626.3 423.63 625.81 424.49 624.99C431.77 618.01 433.28 608.43 427.95 599.75C414.82 578.39 400.84 557.55 386.89 536.73L370.83 511.91C356.637 489.457 341.963 466.983 326.81 444.49C323.217 439.163 320.377 435.793 318.29 434.38C311.26 429.63 303.13 430.84 295.85 434.73C295.33 435.01 295.23 435.397 295.55 435.89L352.77 523.45ZM317.65 543.83L334.72 569.69C353.967 597.69 373.493 625.28 393.3 652.46C393.86 653.22 394.51 653.577 395.25 653.53C402.52 653.08 412.42 647.35 410.83 638.6C410.744 638.145 410.567 637.709 410.31 637.32L355.69 556.11L339.46 531.02C319.087 499.64 298.623 468.42 278.07 437.36C277.397 436.34 276.207 435.82 274.5 435.8C268.067 435.727 263.91 438.447 262.03 443.96C260.64 448.03 271.44 467.38 273.92 471.81C287.52 496.117 302.097 520.123 317.65 543.83ZM271.23 572.4L288.62 596.56C307.19 621.32 327.63 646.2 351.3 666.19C357.29 671.25 363.37 674.67 371.24 672.22C372.97 671.69 384.24 666.06 381.71 662.54C361.377 634.273 341.187 605.813 321.14 577.16L304.48 551.71C283.92 519.74 269.01 495.5 254.12 466.89C252.34 463.47 250.767 460.007 249.4 456.5C249.351 456.372 249.274 456.257 249.174 456.162C249.075 456.068 248.955 455.996 248.825 455.953C248.694 455.91 248.555 455.897 248.417 455.913C248.28 455.93 248.148 455.977 248.03 456.05C243.943 458.637 239.787 461.23 235.56 463.83C231.66 466.23 228.983 468.387 227.53 470.3C218.55 482.13 230.1 504.03 235.94 515.08C246.393 534.84 258.157 553.947 271.23 572.4ZM231.86 595.14L248.76 618.56C262.593 637.04 277.597 654.347 293.77 670.48C298.077 674.78 303.24 677.11 309.26 677.47C318.3 678 324.46 674.14 331.82 669.57C331.876 669.535 331.923 669.487 331.957 669.431C331.992 669.376 332.014 669.313 332.02 669.248C332.027 669.184 332.019 669.118 331.996 669.058C331.974 668.998 331.937 668.944 331.89 668.9C310.83 648.56 292.62 626.18 274.59 603.17L257.94 580.22C251.447 570.647 245.16 560.97 239.08 551.19C229.29 535.44 219.69 518.85 213.01 501.56C212.972 501.463 212.912 501.377 212.834 501.309C212.757 501.24 212.664 501.19 212.563 501.164C212.463 501.138 212.358 501.135 212.257 501.157C212.155 501.179 212.061 501.225 211.98 501.29C202.99 508.6 192.22 511.29 192.03 524.58C191.96 529.03 193.83 532.54 195.92 536.57C206.867 557.623 218.847 577.147 231.86 595.14ZM680.67 617.74L672.53 645.55C663.29 677.037 654.22 708.697 645.32 740.53C642.27 751.43 661.23 754.29 663.54 748.27C675.313 717.59 686.233 685.463 696.3 651.89L705.08 623.31C714.273 591.017 723.513 558.73 732.8 526.45C734.07 522.04 735.23 519.38 731.37 516.64C726.37 513.087 721.087 512.57 715.52 515.09C711.95 516.71 710.83 521.8 709.68 525.16C699.213 555.78 689.543 586.64 680.67 617.74ZM644.21 608.54L636.28 635.65C633.96 643.943 630.84 654.467 626.92 667.22C622.853 680.413 618.803 695.003 614.77 710.99C611.86 722.53 618.92 732.41 630.28 734.18C630.484 734.213 630.693 734.17 630.868 734.059C631.043 733.949 631.172 733.778 631.23 733.58L657.64 641.9C657.687 641.747 657.697 641.593 657.67 641.44C657.637 641.247 657.697 641.123 657.85 641.07L665.96 613.63C675.393 580.97 685.52 548.43 696.34 516.01C696.372 515.919 696.383 515.822 696.374 515.726C696.365 515.63 696.335 515.537 696.287 515.453C696.239 515.369 696.173 515.296 696.094 515.238C696.016 515.181 695.926 515.141 695.83 515.12C685.43 512.96 674.51 513.8 670.07 524.87C668.25 529.417 665.183 538.783 660.87 552.97C655.203 571.617 649.65 590.14 644.21 608.54ZM719.85 627.18L711.18 655.52C705.5 674.06 701.747 686.047 699.92 691.48C692.86 712.52 685.47 733.44 677.75 754.24C677.678 754.436 677.677 754.651 677.749 754.847C677.82 755.043 677.959 755.207 678.14 755.31C685.46 759.53 693.75 758.72 697.77 750.5C712.257 720.833 724.14 691.153 733.42 661.46L742.42 632.48C750.12 605.54 756.84 580.15 765.56 546.26C766.58 542.29 769.27 532.73 766.65 529.36C762.77 524.35 757 523.02 750.84 523.53C749.94 523.597 749.367 524.063 749.12 524.93L719.85 627.18ZM423.71 532.85L409.93 542.79C409.828 542.861 409.759 542.969 409.736 543.09C409.714 543.212 409.74 543.338 409.81 543.44L433.29 579.18C433.47 579.453 433.72 579.63 434.04 579.71L457.68 585.59L620.89 628.07C621.843 628.317 622.463 627.967 622.75 627.02L637.76 577.36C637.86 577.033 637.743 576.827 637.41 576.74L437.17 524.43C436.659 524.296 436.124 524.28 435.606 524.382C435.089 524.484 434.601 524.702 434.18 525.02L423.71 532.85ZM757.17 636.25L748.36 665.15C739.44 692.1 729.7 718.35 717.87 744.09C717.65 744.57 717.797 744.873 718.31 745C723.61 746.3 730.05 748.48 734.85 748.52C742.163 748.587 747.413 745.027 750.6 737.84C759.68 717.33 768.03 696.3 776.41 671.89L785.58 643.17C786.52 640.163 787.42 637.19 788.28 634.25C793.947 614.877 798.687 595.283 802.5 575.47C802.953 573.13 802.813 570.847 802.08 568.62C798.61 558.1 789.46 556.69 780.14 554.45C779.949 554.404 779.748 554.435 779.58 554.536C779.412 554.637 779.29 554.8 779.24 554.99L757.17 636.25Z" fill="#120C13"/>
<path d="M671.92 300.29L652.41 313.83C651.183 312.076 648.307 308.29 643.78 302.47C625.04 278.37 603.15 255.35 578.15 238.61C578.066 238.552 577.998 238.474 577.953 238.383C577.908 238.291 577.888 238.19 577.894 238.088C577.9 237.986 577.932 237.888 577.988 237.802C578.043 237.717 578.12 237.647 578.21 237.6C582.55 235.35 587.16 232.59 591.89 232.06C604.85 230.6 612.93 237.11 622.85 245.73C626.59 248.976 630.123 252.24 633.45 255.52C647.603 269.46 660.427 284.383 671.92 300.29Z" fill="#848E97"/>
<path d="M639.37 321.53L639.38 321.94C639.4 322.333 639.213 322.55 638.82 322.59C638.687 322.61 638.55 322.623 638.41 322.63C638.177 322.643 637.96 322.713 637.76 322.84C633.107 325.86 628.607 329.083 624.26 332.51C623.08 333.437 621.41 334.447 619.25 335.54C600.85 310.03 579.42 286.01 554.23 267.01C547.003 261.557 539.177 257.293 530.75 254.22C530.103 253.98 529.963 253.57 530.33 252.99C534.83 245.87 542.46 240.68 551.23 242.58C558.397 244.133 564.943 247.067 570.87 251.38C597.47 270.77 620.11 294.91 639.37 321.53Z" fill="#848E97"/>
<path d="M606.68 343.95L590.71 355.77C577.43 337.41 562.6 320.42 545.86 305.14C537.52 297.52 529.323 291.467 521.27 286.98C515.13 283.553 508.55 282.013 501.53 282.36C499.917 282.44 498.39 282.49 496.95 282.51C496.876 282.512 496.803 282.494 496.737 282.46C496.671 282.425 496.615 282.375 496.574 282.313C496.534 282.251 496.509 282.18 496.503 282.106C496.497 282.032 496.51 281.958 496.54 281.89C502.39 268.66 515.14 263.97 528.5 269.29C532.027 270.69 535.367 272.447 538.52 274.56C549.873 282.16 560.37 290.803 570.01 300.49C582.243 312.777 594.467 327.263 606.68 343.95Z" fill="#848E97"/>
<path d="M574.97 400.98C575.29 398.907 575.637 396.87 576.01 394.87C579.15 378.09 567.65 360.32 549.51 359.71C547.923 359.657 546.263 359.544 544.53 359.37C544.157 358.297 543.903 357.034 543.77 355.58C543.41 351.57 541.65 348.48 537.21 348.49C534.53 348.5 531.26 350.7 529.34 352.34C526.493 354.774 523.533 356.95 520.46 358.87C520.209 359.025 519.914 359.093 519.62 359.065C519.326 359.036 519.048 358.911 518.83 358.71C518.25 358.17 517.673 357.474 517.1 356.62C508.44 343.77 502.37 334.72 496.37 323.39C493.09 317.19 488.37 306.86 493.3 300.54C497.85 294.71 506.96 295.55 512.98 298.76C518.95 301.94 522.83 305.11 528.99 310.19C555.01 331.65 575.41 357.3 593.02 386.22C606.44 408.23 616.43 431.72 622.81 456.71C624.71 464.14 625.9 473.47 618.19 477.34C604.96 483.98 590.75 465.85 583.92 457.09C577.147 448.397 570.513 439.43 564.02 430.19C563.912 430.038 563.835 429.867 563.794 429.685C563.753 429.503 563.749 429.314 563.782 429.13C563.814 428.946 563.883 428.77 563.984 428.612C564.085 428.454 564.216 428.318 564.37 428.21C570.803 423.69 577.333 418.947 583.96 413.98C587.087 411.634 588.023 408.81 586.77 405.51C584.59 399.79 579.59 401.22 574.97 400.98Z" fill="#2B2930"/>
<path d="M671.92 300.29L687.4 322.83L668.18 337.22C663.62 329.473 658.363 321.677 652.41 313.83L671.92 300.29Z" fill="#717077"/>
<path d="M639.37 321.53L655.42 345.53L635.51 359.67L619.25 335.54C621.41 334.446 623.08 333.436 624.26 332.51C628.607 329.083 633.107 325.86 637.76 322.84C637.96 322.713 638.177 322.643 638.41 322.63C638.55 322.623 638.687 322.61 638.82 322.59C639.213 322.55 639.4 322.333 639.38 321.94L639.37 321.53Z" fill="#717077"/>
<path d="M687.4 322.83C695.327 335.423 702.22 347.79 708.08 359.93C711.627 367.277 715.02 375.28 718.26 383.94C719.787 388.04 720.54 391.33 720.52 393.81C720.42 404.23 713.41 409.99 705.01 414.63C704.919 414.681 704.817 414.71 704.713 414.717C704.608 414.723 704.504 414.706 704.407 414.667C704.31 414.627 704.223 414.567 704.153 414.49C704.082 414.412 704.03 414.32 704 414.22C695.81 386.92 682.98 361.65 668.18 337.22L687.4 322.83Z" fill="#4A4F55"/>
<path d="M606.68 343.95L622.47 367.44L606.2 378.8L590.71 355.77L606.68 343.95Z" fill="#717077"/>
<path d="M655.42 345.53C657.79 348.87 660 353.1 661.66 355.98C671.24 372.62 679.323 389.97 685.91 408.03C688.55 415.27 690.557 422.093 691.93 428.5C694.88 442.27 686.84 449.71 674.69 453.9C674.579 453.938 674.461 453.951 674.344 453.937C674.227 453.924 674.115 453.885 674.015 453.822C673.916 453.76 673.831 453.676 673.768 453.577C673.705 453.478 673.665 453.366 673.65 453.25C672.577 444.99 670.67 436.796 667.93 428.67C659.75 404.48 648.67 381.52 635.51 359.67L655.42 345.53Z" fill="#4A4F55"/>
<path d="M574.97 400.98C574.31 402.64 573.117 404.107 571.39 405.38C526.543 438.62 481.69 471.853 436.83 505.08C430.237 509.967 423.777 514.687 417.45 519.24C416.45 517.213 415.277 515.253 413.93 513.36C411.717 510.253 410.41 508.387 410.01 507.76C403.01 496.78 395.67 485.94 387.99 475.24L544.53 359.37C546.263 359.543 547.923 359.657 549.51 359.71C567.65 360.32 579.15 378.09 576.01 394.87C575.637 396.87 575.29 398.907 574.97 400.98Z" fill="#737373"/>
<path d="M622.47 367.44C636.36 390.96 648.14 415.41 655.72 441.76C658.78 452.42 661.86 466.77 650.08 473.41C646.75 475.28 642.88 475.55 639.07 475.44C638.96 475.437 638.851 475.411 638.752 475.363C638.653 475.314 638.566 475.245 638.497 475.159C638.427 475.073 638.377 474.974 638.35 474.867C638.323 474.76 638.32 474.648 638.34 474.54C640.99 460.49 637.02 447.06 631.87 432.58C625.09 413.53 616.21 396.31 606.2 378.8L622.47 367.44Z" fill="#4A4F55"/>
<path d="M370.83 511.91L352.77 523.45L295.55 435.89C295.23 435.397 295.33 435.01 295.85 434.73C303.13 430.84 311.26 429.63 318.29 434.38C320.377 435.794 323.217 439.163 326.81 444.49C341.963 466.983 356.637 489.457 370.83 511.91Z" fill="#848E97"/>
<path d="M339.46 531.02C338.133 531.14 337.103 531.503 336.37 532.11C335.483 532.843 335.02 533.22 334.98 533.24C329.24 536.766 323.463 540.296 317.65 543.83C302.097 520.123 287.52 496.116 273.92 471.81C271.44 467.38 260.64 448.03 262.03 443.96C263.91 438.446 268.067 435.726 274.5 435.8C276.207 435.82 277.397 436.34 278.07 437.36C298.623 468.42 319.087 499.64 339.46 531.02Z" fill="#848E97"/>
<path d="M304.48 551.71L271.23 572.4C258.157 553.947 246.393 534.84 235.94 515.08C230.1 504.03 218.55 482.13 227.53 470.3C228.983 468.387 231.66 466.23 235.56 463.83C239.787 461.23 243.943 458.637 248.03 456.05C248.148 455.977 248.28 455.93 248.417 455.914C248.554 455.897 248.694 455.911 248.824 455.954C248.955 455.997 249.075 456.068 249.174 456.162C249.274 456.257 249.351 456.372 249.4 456.5C250.767 460.007 252.34 463.47 254.12 466.89C269.01 495.5 283.92 519.74 304.48 551.71Z" fill="#848E97"/>
<path d="M387.99 475.24C395.67 485.94 403.01 496.78 410.01 507.76C410.41 508.387 411.717 510.254 413.93 513.36C415.277 515.254 416.45 517.214 417.45 519.24L402.39 530.44C401.857 530.834 401.407 530.75 401.04 530.19L372.74 486.71C372.573 486.457 372.613 486.24 372.86 486.06L387.99 475.24Z" fill="#737373"/>
<path d="M257.94 580.22C256.507 580.434 255.283 580.864 254.27 581.51C246.95 586.204 239.48 590.747 231.86 595.14C218.847 577.147 206.867 557.624 195.92 536.57C193.83 532.54 191.96 529.03 192.03 524.58C192.22 511.29 202.99 508.6 211.98 501.29C212.06 501.225 212.155 501.179 212.257 501.157C212.358 501.136 212.463 501.138 212.563 501.164C212.664 501.19 212.756 501.24 212.834 501.309C212.912 501.378 212.972 501.464 213.01 501.56C219.69 518.85 229.29 535.44 239.08 551.19C245.16 560.97 251.447 570.647 257.94 580.22Z" fill="#848E97"/>
<path d="M370.83 511.91L386.89 536.73C386.677 537.17 386.243 537.427 385.59 537.5C385.263 537.54 384.963 537.647 384.69 537.82L368.74 548.11L352.77 523.45L370.83 511.91Z" fill="#717077"/>
<path d="M705.08 623.31C697.09 621.31 688.78 618.41 680.67 617.74C689.543 586.64 699.213 555.78 709.68 525.16C710.83 521.8 711.95 516.71 715.52 515.09C721.087 512.57 726.37 513.087 731.37 516.64C735.23 519.38 734.07 522.04 732.8 526.45C723.513 558.73 714.273 591.017 705.08 623.31Z" fill="#848E97"/>
<path d="M665.96 613.63C658.627 611.397 651.377 609.7 644.21 608.54C649.65 590.14 655.203 571.617 660.87 552.97C665.183 538.783 668.25 529.417 670.07 524.87C674.51 513.8 685.43 512.96 695.83 515.12C695.925 515.141 696.016 515.181 696.094 515.239C696.173 515.296 696.239 515.369 696.287 515.453C696.335 515.537 696.365 515.631 696.374 515.727C696.383 515.823 696.372 515.919 696.34 516.01C685.52 548.43 675.393 580.97 665.96 613.63Z" fill="#848E97"/>
<path d="M742.42 632.48C735.1 630.394 727.767 628.787 720.42 627.66C720.247 627.634 720.117 627.547 720.03 627.4C719.977 627.32 719.917 627.247 719.85 627.18L749.12 524.93C749.367 524.064 749.94 523.597 750.84 523.53C757 523.02 762.77 524.35 766.65 529.36C769.27 532.73 766.58 542.29 765.56 546.26C756.84 580.15 750.12 605.54 742.42 632.48Z" fill="#848E97"/>
<path d="M457.68 585.59C457.673 583.75 457.333 582.333 456.66 581.34C446.83 566.88 437.32 551.95 426.97 537.87C425.79 536.27 424.703 534.597 423.71 532.85L434.18 525.02C434.601 524.702 435.088 524.484 435.606 524.382C436.124 524.28 436.659 524.296 437.17 524.43L637.41 576.74C637.743 576.827 637.86 577.033 637.76 577.36L622.75 627.02C622.463 627.967 621.843 628.317 620.89 628.07L457.68 585.59Z" fill="#737373"/>
<path d="M339.46 531.02L355.69 556.11L334.72 569.69L317.65 543.83C323.463 540.297 329.24 536.767 334.98 533.24C335.02 533.22 335.483 532.843 336.37 532.11C337.103 531.503 338.133 531.14 339.46 531.02Z" fill="#717077"/>
<path d="M423.71 532.85C424.703 534.597 425.79 536.27 426.97 537.87C437.32 551.95 446.83 566.88 456.66 581.34C457.333 582.333 457.673 583.75 457.68 585.59L434.04 579.71C433.72 579.63 433.47 579.453 433.29 579.18L409.81 543.44C409.74 543.338 409.714 543.212 409.736 543.09C409.759 542.969 409.828 542.861 409.93 542.79L423.71 532.85Z" fill="#737373"/>
<path d="M386.89 536.73C400.84 557.55 414.82 578.39 427.95 599.75C433.28 608.43 431.77 618.01 424.49 624.99C423.63 625.81 422.883 626.3 422.25 626.46C421.537 626.64 420.98 626.427 420.58 625.82L368.74 548.11L384.69 537.82C384.963 537.647 385.263 537.54 385.59 537.5C386.243 537.427 386.677 537.17 386.89 536.73Z" fill="#4A4F55"/>
<path d="M304.48 551.71L321.14 577.16L288.62 596.56L271.23 572.4L304.48 551.71Z" fill="#717077"/>
<path d="M785.58 643.17L757.17 636.25L779.24 554.99C779.289 554.8 779.412 554.637 779.58 554.537C779.748 554.436 779.949 554.405 780.14 554.45C789.46 556.69 798.61 558.1 802.08 568.62C802.813 570.847 802.953 573.13 802.5 575.47C798.687 595.284 793.947 614.877 788.28 634.25C787.42 637.19 786.52 640.164 785.58 643.17Z" fill="#848E97"/>
<path d="M355.69 556.11L410.31 637.32C410.567 637.709 410.744 638.145 410.83 638.6C412.42 647.35 402.52 653.08 395.25 653.53C394.51 653.577 393.86 653.22 393.3 652.46C373.493 625.28 353.967 597.69 334.72 569.69L355.69 556.11Z" fill="#4A4F55"/>
<path d="M321.14 577.16C341.187 605.813 361.377 634.273 381.71 662.54C384.24 666.06 372.97 671.69 371.24 672.22C363.37 674.67 357.29 671.25 351.3 666.19C327.63 646.2 307.19 621.32 288.62 596.56L321.14 577.16Z" fill="#4A4F55"/>
<path d="M257.94 580.22L274.59 603.17L248.76 618.56L231.86 595.14C239.48 590.746 246.95 586.203 254.27 581.51C255.283 580.863 256.507 580.433 257.94 580.22Z" fill="#717077"/>
<path d="M274.59 603.17C292.62 626.18 310.83 648.56 331.89 668.9C331.937 668.944 331.974 668.998 331.996 669.058C332.019 669.118 332.027 669.184 332.02 669.248C332.014 669.313 331.992 669.376 331.957 669.431C331.923 669.487 331.876 669.535 331.82 669.57C324.46 674.14 318.3 678 309.26 677.47C303.24 677.11 298.077 674.78 293.77 670.48C277.597 654.347 262.593 637.04 248.76 618.56L274.59 603.17Z" fill="#4A4F55"/>
<path d="M644.21 608.54C651.377 609.7 658.627 611.397 665.96 613.63L657.85 641.07L657.49 641.12C657.293 641.153 657.094 641.143 656.91 641.09L636.28 635.65L644.21 608.54Z" fill="#717077"/>
<path d="M680.67 617.74C688.78 618.41 697.09 621.31 705.08 623.31L696.3 651.89L672.53 645.55L680.67 617.74Z" fill="#717077"/>
<path d="M719.85 627.18C719.917 627.247 719.977 627.32 720.03 627.4C720.117 627.547 720.247 627.633 720.42 627.66C727.767 628.787 735.1 630.393 742.42 632.48L733.42 661.46L711.18 655.52L719.85 627.18Z" fill="#717077"/>
<path d="M636.28 635.65L656.91 641.09C657.094 641.142 657.293 641.153 657.49 641.12L657.85 641.07C657.697 641.123 657.637 641.247 657.67 641.44C657.697 641.593 657.687 641.747 657.64 641.9L631.23 733.58C631.172 733.778 631.043 733.949 630.868 734.059C630.693 734.17 630.484 734.213 630.28 734.18C618.92 732.41 611.86 722.53 614.77 710.99C618.803 695.003 622.853 680.413 626.92 667.22C630.84 654.467 633.96 643.943 636.28 635.65Z" fill="#4A4F55"/>
<path d="M757.17 636.25L785.58 643.17L776.41 671.89L748.36 665.15L757.17 636.25Z" fill="#717077"/>
<path d="M672.53 645.55L696.3 651.89C686.233 685.463 675.313 717.59 663.54 748.27C661.23 754.29 642.27 751.43 645.32 740.53C654.22 708.697 663.29 677.036 672.53 645.55Z" fill="#4A4F55"/>
<path d="M711.18 655.52L733.42 661.46C724.14 691.153 712.257 720.833 697.77 750.5C693.75 758.72 685.46 759.53 678.14 755.31C677.959 755.207 677.82 755.043 677.749 754.847C677.677 754.651 677.678 754.436 677.75 754.24C685.47 733.44 692.86 712.52 699.92 691.48C701.747 686.047 705.5 674.06 711.18 655.52Z" fill="#4A4F55"/>
<path d="M748.36 665.15L776.41 671.89C768.03 696.3 759.68 717.33 750.6 737.84C747.413 745.027 742.163 748.587 734.85 748.52C730.05 748.48 723.61 746.3 718.31 745C717.797 744.873 717.65 744.57 717.87 744.09C729.7 718.35 739.44 692.1 748.36 665.15Z" fill="#4A4F55"/>
</svg>
