<svg width="30" height="30" viewBox="0 0 30 30" fill="none" xmlns="http://www.w3.org/2000/svg">
<path d="M30 15C30 6.71573 23.2843 0 15 0C6.71573 0 0 6.71573 0 15C0 23.2843 6.71573 30 15 30C23.2843 30 30 23.2843 30 15Z" fill="#1778F2"/>
<path d="M16.1962 23.4668V15.4375H18.8913L19.2955 12.3083H16.1962V10.3105C16.1962 9.40456 16.4478 8.78715 17.747 8.78715H19.404V5.98922C18.602 5.90437 17.7959 5.86326 16.9894 5.8661C14.6003 5.8661 12.9647 7.3243 12.9647 10.0024V12.3083H10.2627V15.4375H12.9647V23.4668H16.1962Z" fill="#FDFDFD"/>
</svg>
