<svg width="194" height="210" viewBox="0 0 194 210" fill="none" xmlns="http://www.w3.org/2000/svg">
<path d="M142.197 0.107372C153.913 0.107372 165.629 -0.0252628 177.338 0.148422C179.745 0.183159 182.135 1.30422 184.532 1.92317L182.934 2.55475C179.776 1.31053 176.463 1.55369 173.176 1.56C167.702 1.57264 162.229 1.58106 156.755 1.58527C141.714 1.58527 126.673 1.52527 111.629 1.58527C105.098 1.61369 100.26 5.32422 98.3654 11.4253L97.6139 15.5306C97.4874 16.1252 97.4009 16.7276 97.3549 17.3337C97.3296 20.7664 97.3549 24.2022 97.3549 27.7074L95.9844 27.5685C95.883 27.0726 95.8154 26.5704 95.7823 26.0653C95.757 22.6485 95.8454 19.2253 95.7317 15.8116C95.6768 12.6275 94.566 9.55186 92.5738 7.06738C89.5486 3.31896 85.6265 1.51579 80.757 1.54421C69.1327 1.60421 57.5085 1.5758 45.8843 1.56316C35.9895 1.56316 26.1042 1.54106 16.2284 1.49685C16.846 1.40774 17.468 1.35187 18.0916 1.32948C35.1443 1.31685 52.1864 1.31685 69.218 1.32948H70.778V0.697898C66.458 0.697898 62.1412 0.660003 57.8306 0.697898C54.739 0.735793 51.6506 0.972634 48.559 0.982107C38.198 1.02 27.8369 0.982111 17.4758 1.02001C16.8442 1.02001 16.2379 1.3579 15.619 1.5379L14.0779 1.66106L12.1453 0.757899L14.2926 0.347371C15.6442 0.457898 16.9958 0.663161 18.3474 0.663161C29.2548 0.590529 40.1653 0.404213 51.0727 0.391581C59.5643 0.391581 68.0591 0.587372 76.5507 0.653688C77.0749 0.653688 77.6022 0.290528 78.1296 0.094738C83.8138 0.0252642 89.0749 1.13369 93.1928 5.46317C94.4275 7.50002 95.6591 9.54002 96.7833 11.4C97.9332 7.87974 100.152 4.80552 103.131 2.60527C105.436 1.43053 107.678 0.0789473 110.448 0.360001C110.817 0.397895 111.218 0.126316 111.603 0H111.919L121.393 0.104211C121.778 0.23399 122.176 0.320835 122.58 0.363162C128.736 0.380004 134.891 0.380004 141.044 0.363162C141.437 0.319544 141.823 0.233786 142.197 0.107372ZM138.294 1.27264L138.36 1.12106H110.722V1.27264H138.294Z" fill="#ABA5A9"/>
<path d="M182.934 2.56102L184.532 1.92944L188.618 4.80314C190.769 7.37367 192.408 10.1716 192.746 13.6074C192.585 14.4225 192.479 15.2475 192.43 16.0768C192.4 27.8979 192.393 39.719 192.408 51.5401C192.296 50.0664 192.191 48.5927 192.092 47.119C192.092 36.8874 192.092 26.6569 192.092 16.4274C192.046 15.9224 191.955 15.4226 191.82 14.9337C191.726 14.9337 191.631 14.9274 191.536 14.9147C191.187 13.5505 190.837 12.1821 190.488 10.8095C189.291 6.8463 186.506 4.34524 182.934 2.56102Z" fill="#ACA6AA"/>
<path d="M78.0918 0.110618C77.5676 0.306408 77.0403 0.675883 76.5129 0.669568C68.0213 0.603252 59.5266 0.397987 51.035 0.407461C40.1276 0.407461 29.217 0.606409 18.3096 0.679041C16.958 0.679041 15.6065 0.473777 14.2549 0.363251C14.9127 0.221168 15.5795 0.125144 16.2507 0.0758806C36.7076 0.0569332 57.1644 0.0506182 77.6213 0.056934C77.7791 0.0653347 77.9362 0.0832616 78.0918 0.110618Z" fill="#9E989C"/>
<path d="M12.1137 0.773682L14.0463 1.67684C7.19052 3.46106 3.30946 7.82527 2.57367 14.9148L1.80314 17.3558C1.66735 16.0074 1.53156 14.6748 1.39893 13.3421C2.03051 8.57685 4.59156 5.05579 8.39999 2.31473L12.1137 0.773682Z" fill="#9E989C"/>
<path d="M142.197 0.107409C141.811 0.236517 141.412 0.322306 141.007 0.363198C134.851 0.382146 128.696 0.382146 122.542 0.363198C122.138 0.320872 121.74 0.234027 121.355 0.104248L142.197 0.107409Z" fill="#8D858D"/>
<path d="M191.868 199.665C189.897 205.349 183.929 209.71 177.72 209.722C155.735 209.779 133.751 209.779 111.767 209.722C104.978 209.7 99.6222 205.772 97.0737 199.327L97.9927 197.748C98.1948 198.206 98.4095 198.66 98.5958 199.128C100.175 203.151 102.973 205.936 107.087 207.338C108.827 207.61 110.561 208.115 112.307 208.118C133.916 208.175 155.526 208.187 177.139 208.153C178.023 208.102 178.903 208.003 179.776 207.856C180.289 207.798 180.798 207.71 181.301 207.594C185.697 206.312 188.672 203.426 190.563 199.333L191.868 199.665Z" fill="#A5A2A8"/>
<path d="M2.06522 199.311L1.6389 197.517C2.81995 193.794 2.12206 190.017 2.2989 186.269L1.8789 186.24C1.71153 186.809 1.56311 187.374 1.37995 187.939C1.37995 170.786 1.37995 153.633 1.37995 136.481C1.47785 133.658 1.59785 130.832 1.65785 128.005C1.618 127.354 1.52399 126.706 1.3768 126.07C1.3768 110.868 1.3768 95.6644 1.3768 80.4601C1.3768 79.8949 1.60732 79.3264 1.59469 78.7612C1.57258 77.8959 1.43364 77.0307 1.34521 76.1654C1.361 76.0612 1.37679 75.957 1.38943 75.8496L2.30521 75.218C2.39364 77.0054 2.48311 78.7949 2.57364 80.5864C2.59259 81.218 2.62417 81.8496 2.62417 82.4812C2.62417 119.277 2.63364 156.074 2.65259 192.872C2.65259 194.473 2.87048 196.074 2.96838 197.675L2.06522 199.311Z" fill="#ADABAF"/>
<path d="M192.986 65.7506C193.008 67.9612 193.046 70.1717 193.046 72.3822C193.046 104.445 193.046 136.508 193.046 168.569C193.046 169.042 193.014 169.516 192.995 169.983L192.12 171.247C192.019 170.017 191.92 168.79 191.824 167.565C191.824 167.353 191.782 167.145 191.782 166.933C191.782 138.884 191.782 110.836 191.782 82.7875C191.92 82.3086 192.014 81.8182 192.064 81.3222C192.092 78.9791 192.064 76.6391 192.064 74.2959C192.064 73.3485 192.064 72.4012 192.064 71.4538C192.21 70.9184 192.308 70.371 192.357 69.818C192.386 66.6885 192.357 63.559 192.357 60.4296H192.534L192.986 65.7506Z" fill="#AF9C94"/>
<path d="M85.0894 209.141C83.8042 209.343 82.5189 209.722 81.2337 209.722C59.7915 209.76 38.3494 209.76 16.9072 209.722C12.4325 209.722 8.51035 208.143 5.4314 204.771L6.40719 203.751C8.67456 205.819 11.1251 207.54 14.3019 207.821L14.8167 207.888C15.5312 208.013 16.2524 208.096 16.9767 208.137C24.0651 208.169 31.1546 208.184 38.2451 208.181C52.8957 208.181 67.5452 208.181 82.1936 208.181L85.0894 209.141Z" fill="#9F9DA4"/>
<path d="M192.123 171.225L192.998 169.961C192.998 178.308 193.08 186.651 192.979 194.994C192.96 196.554 192.256 198.108 191.868 199.665L190.563 199.349L191.122 196.823C191.261 195.007 191.501 193.191 191.517 191.375C191.565 185.274 191.533 179.17 191.517 173.059C191.517 120.346 191.517 67.6328 191.517 14.9211C191.612 14.9211 191.707 14.9275 191.801 14.9401C191.801 25.677 191.813 36.4022 191.836 47.1159V74.2549C191.836 77.0971 191.825 79.9392 191.801 82.7813C191.801 110.83 191.801 138.878 191.801 166.927C191.801 167.138 191.827 167.347 191.842 167.558C191.842 176.455 191.842 185.351 191.842 194.246H192.158L192.123 171.225Z" fill="#A49C9E"/>
<path d="M85.0897 209.141L82.2002 208.194L83.5423 207.878L83.6655 207.907L83.776 207.856C84.2921 207.809 84.8047 207.729 85.3107 207.616C88.2609 206.807 90.871 205.067 92.7531 202.655C94.6352 200.243 95.6887 197.288 95.7571 194.23C95.8486 190.459 95.8234 186.686 95.8486 182.915C95.9634 182.417 96.0415 181.912 96.0823 181.402C96.1139 179.722 96.0255 178.039 96.1297 176.369C96.1707 175.737 96.6065 175.128 96.8592 174.509L97.3581 174.686V176.236C97.3581 181.693 97.3581 187.147 97.3581 192.604C97.3991 193.163 97.4793 193.719 97.5981 194.268L97.9865 197.751L97.0676 199.33C96.9729 199.093 96.875 198.856 96.6918 198.383C94.475 203.934 90.9444 207.828 85.0897 209.141Z" fill="#AFA9AA"/>
<path d="M1.3766 136.488C1.3766 153.641 1.3766 170.794 1.3766 187.946C1.34712 190.308 1.31975 192.67 1.29449 195.032C1.22817 194.302 1.10502 193.573 1.10502 192.847C1.08397 154.122 1.07028 115.397 1.06396 76.6706C1.06396 76.5127 1.06397 76.3548 1.08923 76.2001C1.17133 76.2001 1.25028 76.1779 1.33238 76.1716C1.4208 77.0369 1.55976 77.9022 1.58186 78.7674C1.58186 79.3327 1.36712 79.9011 1.36396 80.4664C1.36396 95.6727 1.36396 110.876 1.36396 126.076C1.37028 129.543 1.37449 133.014 1.3766 136.488Z" fill="#A9A4A7"/>
<path d="M192.408 51.5402C192.408 39.7149 192.417 27.8896 192.436 16.0643C192.486 15.235 192.591 14.4099 192.752 13.5948L192.989 14.9275C192.854 15.4167 192.77 15.9181 192.736 16.4243C192.796 19.0707 192.904 21.717 192.998 24.3601C193.017 30.878 193.024 37.396 193.074 43.9139C193.074 44.4381 192.597 45.3349 193.788 45.3665C193.864 45.3665 193.984 45.9033 193.984 46.1875C193.984 50.236 194.034 54.2844 193.958 58.3328C193.958 58.8097 193.327 59.2802 192.986 59.7444L192.919 58.0265C192.888 57.2023 193.592 56.2234 192.417 55.636C192.411 54.2739 192.408 52.9086 192.408 51.5402Z" fill="#949092"/>
<path d="M1.39899 13.3295C1.53162 14.6621 1.66741 15.9947 1.8032 17.3432L2.57372 14.9021C2.57372 19.1126 2.57372 23.3232 2.57372 27.5337C2.18004 29.1042 1.78635 30.6737 1.39267 32.2421C1.36319 26.2295 1.33688 20.2169 1.31372 14.2042C1.35477 13.9263 1.35477 13.6453 1.39899 13.3295Z" fill="#AFABAE"/>
<path d="M1.00102 62.5423C0.68523 61.4307 1.69575 59.9812 0.129436 59.1665C0.00312004 59.1002 0.0410152 58.677 0.0410152 58.4212C0.015752 54.398 -0.0189837 50.378 0.0125953 46.3549C0.0125953 46.0012 0.44523 45.6475 0.675756 45.2906C0.792599 49.2917 0.903122 53.2896 1.04207 57.2907C1.09406 57.8962 1.18052 58.4982 1.30102 59.0938C1.30102 60.357 1.32628 61.6423 1.33891 62.9149L1.00102 62.5423Z" fill="#9A9699"/>
<path d="M1.30736 14.2168C1.33262 20.2294 1.35894 26.2421 1.3863 32.2547C1.35683 36.9074 1.33051 41.559 1.30736 46.2095C1.21262 45.8748 1.11788 45.5432 1.0263 45.2084C1.0263 42.3379 1.07051 39.4642 0.988405 36.5968C0.972615 36.0884 0.435775 35.5989 0.14209 35.1C0.33788 34.6989 0.678931 34.3042 0.707352 33.8905C0.862089 31.68 0.934721 29.4379 1.02314 27.2116C1.02314 23.5452 1.02314 19.8789 1.02314 16.2126C1.07732 15.5422 1.17224 14.8757 1.30736 14.2168Z" fill="#807C7D"/>
<path d="M6.40732 203.751L5.43468 204.768L2.06836 199.301L2.97784 197.653L6.40732 203.751Z" fill="#ACA7A9"/>
<path d="M1.29785 195.026C1.32522 192.664 1.35259 190.301 1.37996 187.939C1.54732 187.374 1.69575 186.809 1.8789 186.24L2.29891 186.269C2.12206 190.017 2.81996 193.794 1.6389 197.517L1.29785 195.026Z" fill="#ACA7A9"/>
<path d="M192.408 55.6454C193.582 56.2328 192.878 57.2243 192.91 58.0359L192.976 59.7538C192.976 61.7496 192.976 63.7496 192.976 65.7538C192.843 63.9749 192.71 62.1991 192.575 60.4265H192.408C192.408 63.5559 192.408 66.6854 192.408 69.8149C192.351 70.3632 192.245 70.9053 192.092 71.4349C192.092 66.777 192.092 62.1191 192.092 57.4612C192.147 56.8482 192.252 56.2409 192.408 55.6454Z" fill="#ACA6AA"/>
<path d="M0.704225 75.8053C0.476856 75.5653 0.053695 75.3253 0.0505371 75.0853C0.0505371 71.0274 0.0758015 66.9727 0.101065 62.9148C0.30317 63.2653 0.678959 63.6158 0.682117 63.9695C0.72317 67.9138 0.704225 71.8611 0.704225 75.8053Z" fill="#A6A3A6"/>
<path d="M1.03903 45.2242C1.13061 45.559 1.22535 45.8906 1.32009 46.2253C1.32009 50.52 1.32009 54.8148 1.32009 59.1095C1.19959 58.5139 1.11313 57.9119 1.06114 57.3064C0.922194 53.3053 0.811667 49.3074 0.694824 45.3064L1.03903 45.2242Z" fill="#524D4F"/>
<path d="M1.03886 27.2241C0.937812 29.4504 0.86518 31.6799 0.723075 33.9031C0.694654 34.3168 0.353603 34.7115 0.157813 35.1126C0.126234 32.8168 0.0535992 30.5178 0.110441 28.222C0.091494 27.8557 0.723075 27.5399 1.03886 27.2241Z" fill="#ABA9AA"/>
<path d="M0.70399 75.8054C0.70399 71.8612 0.722935 67.9107 0.681883 63.9696C0.681883 63.6159 0.302936 63.2654 0.10083 62.9149L1.00083 62.5422L1.35452 62.9086C1.34189 63.7612 1.33136 64.6138 1.32294 65.4665C1.23451 67.0075 1.06715 68.5486 1.07346 70.0896C1.07346 71.8928 1.23767 73.6959 1.32925 75.4991L1.39241 75.8465C1.39241 75.9507 1.36399 76.0549 1.3482 76.1623C1.26609 76.1623 1.18715 76.1623 1.10505 76.1907L0.70399 75.8054Z" fill="#736F72"/>
<path d="M192.995 24.3632C192.901 21.72 192.793 19.0737 192.733 16.4274C192.767 15.9212 192.851 15.4197 192.986 14.9305L192.995 24.3632Z" fill="#ACA6AA"/>
<path d="M6.40739 203.751L2.97791 197.653C2.86423 196.052 2.66212 194.451 2.66212 192.85C2.63265 156.058 2.61791 119.264 2.61791 82.4686C2.61791 81.837 2.58633 81.2055 2.56738 80.5739C2.58633 77.6812 2.62422 74.7886 2.62107 71.896C2.62107 59.0075 2.60528 46.1201 2.5737 33.2338V27.5401C2.5737 23.3295 2.5737 19.119 2.5737 14.9085C3.30949 7.81899 7.19055 3.45477 14.0464 1.67056L15.5874 1.5474L16.219 1.50635C26.1032 1.53161 35.9885 1.55372 45.8748 1.57267C57.4991 1.57267 69.1233 1.61372 80.7475 1.55372C85.6075 1.5253 89.5391 3.32846 92.5644 7.07688C94.5565 9.56136 95.6673 12.637 95.7223 15.8211C95.836 19.2348 95.7476 22.658 95.7728 26.0748C95.806 26.5799 95.8735 27.0821 95.9749 27.578C95.7855 28.0138 95.4444 28.4432 95.4286 28.8854C95.3528 30.8654 95.3212 32.8517 95.397 34.8317C95.397 35.1475 96.0286 35.4633 96.3855 35.779C96.1833 36.4264 95.7854 37.0833 95.8107 37.7243C95.9118 40.2222 96.1486 42.7138 96.3381 45.2085C96.2937 45.2009 96.2482 45.2029 96.2046 45.2144C96.161 45.2258 96.1204 45.2464 96.0855 45.2749L95.4349 45.2085L95.0749 40.4338C94.9739 36.8675 94.8686 33.3043 94.7591 29.7443C94.797 24.8527 95.056 19.9548 94.8223 15.0758C94.6557 11.6262 93.1653 8.37366 90.6614 5.995C88.1575 3.61634 84.8327 2.29477 81.3791 2.3053C59.6422 2.25477 37.9064 2.27477 16.1716 2.3653C14.0308 2.43551 11.9369 3.01119 10.0611 4.0453C4.94529 6.8211 3.24949 11.539 3.27791 17.1348C3.36844 34.7664 3.42633 52.397 3.4516 70.0265C3.47686 77.5486 3.50317 85.0707 3.53054 92.5928C3.49896 92.9592 3.44212 93.3223 3.44212 93.6855C3.44212 118.488 3.44212 143.288 3.44212 168.086C3.44212 168.502 3.50212 168.919 3.5337 169.349C3.51159 171.026 3.4737 172.706 3.47054 174.382C3.47054 181.371 3.39475 188.359 3.52107 195.345C3.5937 199.384 5.63686 202.497 8.81371 204.913C10.9263 206.517 13.3864 207.124 15.9411 207.521L14.2958 207.837C11.1221 207.54 8.67161 205.829 6.40739 203.751ZM2.97791 175.835L3.12318 175.908V86.7034H2.97791V175.835Z" fill="#0D0C0E"/>
<path d="M182.934 2.56103C186.506 4.34525 189.291 6.84631 190.475 10.8126C190.38 11.0242 190.286 11.2326 190.194 11.4442C187.481 4.99262 182.634 2.18209 175.643 2.2263C154.668 2.35577 133.696 2.27051 112.721 2.27682C105.853 2.27682 101.574 5.1663 99.0413 11.4663L98.375 11.4379C100.27 5.33683 105.108 1.6263 111.638 1.59788C126.682 1.53156 141.724 1.59788 156.765 1.59788C162.238 1.59788 167.712 1.58946 173.186 1.57261C176.464 1.55998 179.776 1.32945 182.934 2.56103Z" fill="#0B0C0E"/>
<path d="M98.3748 11.4348L99.0412 11.4632L98.3496 20.8138C98.3149 21.3885 98.2517 21.9601 98.2485 22.5348C98.2485 33.1327 98.2412 43.7307 98.2264 54.3286C98.2264 54.8654 97.9106 55.4023 97.7306 55.9391C97.6927 52.3602 97.6559 48.7812 97.6201 45.2022C97.6201 35.3075 97.6201 25.4127 97.6201 15.518L98.3748 11.4348Z" fill="#020203"/>
<path d="M97.6234 15.54C97.6234 25.4348 97.6234 35.3296 97.6234 45.2243L97.355 44.9085V28.1938C97.0045 30.9538 96.7013 33.3664 96.4076 35.7727C96.0634 35.4569 95.4318 35.1601 95.4192 34.8253C95.3434 32.8453 95.375 30.859 95.4508 28.879C95.4666 28.4369 95.8076 28.0074 95.9971 27.5716L97.3676 27.7106C97.3676 24.2053 97.3676 20.7632 97.3676 17.3369C97.4128 16.7329 97.4983 16.1326 97.6234 15.54Z" fill="#9F9DA0"/>
<path d="M16.2283 1.51257L15.5967 1.55362C16.2283 1.37362 16.8314 1.03888 17.4535 1.03573C27.8146 1.00415 38.1757 1.03572 48.5367 0.997827C51.6283 0.997827 54.7168 0.751513 57.8083 0.713618C62.1252 0.663092 66.442 0.713618 70.7557 0.713618V1.3452H69.1957C52.1431 1.3452 35.1009 1.3452 18.0693 1.3452C17.4531 1.36838 16.8386 1.42425 16.2283 1.51257Z" fill="#B5AEB5"/>
<path d="M138.294 1.27268H110.722V1.12109H138.36L138.294 1.27268Z" fill="#BAB2BA"/>
<path d="M190.197 11.4348C190.289 11.2232 190.384 11.0148 190.478 10.8032C190.83 12.1674 191.179 13.5359 191.527 14.9085C191.527 67.6202 191.527 120.333 191.527 173.047C191.527 179.148 191.561 185.252 191.527 191.363C191.527 193.178 191.271 194.994 191.132 196.81C191.015 196.56 190.895 196.311 190.775 196.061V190.5C190.775 190.292 190.826 190.084 190.826 189.869C190.826 131.919 190.826 73.9686 190.826 16.0169C190.78 15.2943 190.69 14.575 190.557 13.8632C190.428 13.0516 190.311 12.2495 190.197 11.4348Z" fill="#060404"/>
<path d="M191.842 47.1002C191.83 36.3759 191.818 25.6507 191.808 14.9243C191.942 15.4132 192.033 15.9131 192.079 16.418C192.079 26.6496 192.079 36.8801 192.079 47.1096C192 47.1164 191.921 47.1132 191.842 47.1002Z" fill="#C5C0C2"/>
<path d="M191.842 47.1C191.919 47.1094 191.996 47.1094 192.073 47.1C192.18 48.5737 192.286 50.0473 192.389 51.521C192.389 52.8853 192.389 54.2537 192.389 55.6263C192.233 56.2249 192.127 56.8354 192.073 57.4516C192.048 62.1095 192.073 66.7674 192.073 71.4253C192.073 72.3727 192.073 73.32 192.073 74.2674C191.986 74.2683 191.9 74.2566 191.817 74.2327L191.842 47.1Z" fill="#BCB7B8"/>
<path d="M179.776 207.856C178.903 208.003 178.023 208.102 177.139 208.153C155.527 208.166 133.916 208.154 112.308 208.118C110.568 208.118 108.834 207.61 107.088 207.338L107.154 206.871C108.139 207.089 109.118 207.468 110.11 207.503C112.996 207.581 115.886 207.503 118.775 207.503C138.657 207.503 158.54 207.503 178.425 207.503L179.776 207.856Z" fill="black"/>
<path d="M107.144 206.871L107.078 207.338C102.973 205.927 100.178 203.141 98.5866 199.128C98.4002 198.66 98.1855 198.206 97.9834 197.748L97.595 194.274C97.595 189.979 97.6023 185.682 97.6171 181.383C97.636 173.369 97.656 165.353 97.6771 157.336C97.8176 156.799 97.9127 156.25 97.9613 155.697C97.9865 151.406 97.9613 147.111 97.9802 142.819C98.0555 142.813 98.1304 142.803 98.2044 142.788C98.2265 143.47 98.2644 144.152 98.2644 144.834C98.2644 160.977 98.2644 177.12 98.2644 193.263C98.3098 194.033 98.4037 194.799 98.5455 195.556C98.5802 195.657 98.6181 195.758 98.656 195.872C98.8518 196.813 99.0487 197.755 99.2465 198.698C99.2913 199.043 99.3728 199.382 99.4897 199.709C101.097 203.094 103.743 205.393 107.144 206.871Z" fill="#121110"/>
<path d="M179.776 207.856L178.425 207.496C180.502 206.764 182.754 206.325 184.627 205.235C188.078 203.224 189.919 199.914 190.766 196.049C190.886 196.298 191.006 196.548 191.122 196.797L190.564 199.324C188.669 203.429 185.697 206.303 181.301 207.585C180.799 207.704 180.289 207.795 179.776 207.856Z" fill="#0E0B0D"/>
<path d="M2.56741 27.54C2.56741 29.4348 2.56741 31.3295 2.56741 33.2243C2.43787 33.8226 2.35134 34.4294 2.30846 35.0401C2.30425 48.4401 2.30215 61.8348 2.30215 75.2243L1.38636 75.8559C1.36741 75.7391 1.3453 75.6254 1.32319 75.5086C1.32319 72.1654 1.32319 68.8212 1.32319 65.4759C1.32319 64.6338 1.33372 63.7812 1.35477 62.918C1.33899 61.6548 1.32951 60.3696 1.31372 59.0969C1.31372 54.8022 1.31372 50.5075 1.31372 46.2127C1.33898 41.5601 1.3653 36.9085 1.39267 32.2579C1.78846 30.6853 2.18004 29.1127 2.56741 27.54Z" fill="#A9A4A7"/>
<path d="M2.302 75.2244C2.302 61.8349 2.30727 48.4465 2.31779 35.0591C2.36067 34.4484 2.4472 33.8416 2.57674 33.2433C2.59569 46.1296 2.61148 59.017 2.62411 71.9055C2.62411 74.7981 2.58937 77.6907 2.57043 80.5834C2.47779 78.7939 2.38832 77.0076 2.302 75.2244Z" fill="#B8B5B8"/>
<path d="M1.37671 136.487C1.37671 133.016 1.37671 129.542 1.37671 126.066C1.5239 126.703 1.61791 127.35 1.65776 128.002C1.5946 130.832 1.4746 133.645 1.37671 136.487Z" fill="#ACA7A9"/>
<path d="M192.123 171.225V194.227H191.808C191.808 185.33 191.808 176.434 191.808 167.539C191.919 168.769 192.024 169.997 192.123 171.225Z" fill="#C4BFBF"/>
<path d="M191.83 74.2391C191.913 74.2631 191.999 74.2748 192.085 74.2739C192.085 76.617 192.104 78.957 192.085 81.3002C192.036 81.7961 191.942 82.2866 191.804 82.7655C191.811 79.9234 191.819 77.0812 191.83 74.2391Z" fill="#ACA6AA"/>
<path d="M14.302 207.831L15.9473 207.515H82.4116L83.7758 207.856L83.6685 207.923L83.5453 207.894C83.0716 207.894 82.5979 207.856 82.1274 207.856C64.3716 207.856 46.6136 207.856 28.8536 207.856C24.1768 207.856 19.5031 207.881 14.8262 207.894L14.302 207.831Z" fill="black"/>
<path d="M14.823 207.897C19.4998 207.897 24.1735 207.859 28.8504 207.859C46.6083 207.859 64.3662 207.859 82.1242 207.859C82.5979 207.859 83.0716 207.885 83.5421 207.897L82.2 208.213C67.5515 208.213 52.902 208.213 38.2515 208.213C31.1609 208.213 24.0714 208.198 16.983 208.169C16.2583 208.12 15.5371 208.03 14.823 207.897Z" fill="#0C0A0C"/>
<path d="M97.6865 157.33C97.6675 165.345 97.6475 173.36 97.6265 181.377C97.6265 185.676 97.6191 189.973 97.6043 194.268C97.4855 193.719 97.4054 193.163 97.3644 192.604C97.3644 187.147 97.3644 181.693 97.3644 176.236V174.686L96.8654 174.509C96.6128 175.14 96.177 175.734 96.1359 176.369C96.0317 178.039 96.1201 179.722 96.0886 181.402C96.0478 181.912 95.9697 182.417 95.8549 182.915L95.7412 180.705C95.7644 170.465 95.7822 160.225 95.7949 149.985C95.7949 138.117 95.7759 126.25 95.738 114.382C95.9465 112.867 96.8401 113.435 97.6517 113.751L96.1075 113.89C96.1075 117.13 96.1075 120.174 96.1075 123.221C96.1075 123.477 96.0854 123.853 96.2338 123.973C97.4149 124.886 96.9665 126.161 97.0328 127.317C97.0707 127.923 97.0328 128.536 97.0328 129.146C97.3486 124.766 97.3486 120.408 97.3486 116.05C97.3918 115.49 97.4784 114.935 97.6075 114.389C97.6075 115.068 97.6422 115.747 97.6422 116.429C97.657 125.115 97.6717 133.802 97.6865 142.491V157.33ZM97.3107 144.458V140.249L96.8812 140.151C96.7233 140.672 96.4422 141.19 96.4265 141.714C96.2907 146.167 96.0822 150.626 96.1422 155.078C96.177 157.706 96.6601 160.327 96.9444 162.954L97.3044 162.916V159.465L97.3107 144.458Z" fill="#B2A9A5"/>
<path d="M95.7317 180.698L95.8454 182.909C95.8201 186.679 95.8454 190.453 95.7538 194.224C95.6854 197.282 94.6319 200.237 92.7498 202.649C90.8677 205.06 88.2576 206.8 85.3075 207.61C84.8027 207.724 84.2911 207.807 83.7759 207.856L82.4211 207.499C86.6875 206.985 90.1075 205.068 92.6401 201.531C94.4306 199.03 94.8506 196.162 95.1033 193.245C95.1601 193.586 95.217 193.927 95.277 194.268C95.4633 190.289 95.4538 186.326 95.4759 182.362C95.5186 181.802 95.6041 181.246 95.7317 180.698Z" fill="#0C0A0C"/>
<path d="M1.31048 65.4728C1.31048 68.8159 1.31048 72.1602 1.31048 75.5054C1.2189 73.7023 1.061 71.8991 1.05469 70.0959C1.05469 68.5549 1.22206 67.0138 1.31048 65.4728Z" fill="#5F5A5C"/>
<path d="M3.56524 92.5927C3.53787 85.0706 3.51156 77.5485 3.48629 70.0264C3.43366 52.3969 3.37576 34.7663 3.31261 17.1347C3.28419 11.5389 4.97998 6.82099 10.0958 4.04519C11.9685 3.01142 14.059 2.4347 16.1968 2.36203C37.9295 2.24203 59.6653 2.22203 81.4043 2.30203C84.8547 2.29639 88.1746 3.62013 90.6745 5.99828C93.1744 8.37644 94.6621 11.6262 94.8286 15.0726C95.0623 19.9484 94.8033 24.8621 94.7654 29.741C94.6233 29.1094 94.4844 28.4779 94.2728 27.5494L94.0802 30.2337C92.258 28.0231 93.2812 25.4652 92.6054 23.1284V24.8242C92.6054 48.6642 92.6002 72.5032 92.5896 96.3411C92.5896 96.9727 92.3591 97.6043 92.2359 98.258C92.2359 97.7306 92.2138 97.2064 92.2138 96.679C92.1907 72.3695 92.1675 48.0621 92.1444 23.7568C92.1444 23.3052 92.0907 22.8568 92.0622 22.4147H87.5307C63.9054 22.4147 40.2822 22.4147 16.6611 22.4147C13.3484 22.4147 10.0295 22.4557 6.72314 22.4779H6.40735C6.2482 23.1612 6.14261 23.856 6.09156 24.5557C6.07261 36.4989 6.07261 48.4421 6.09156 60.3853C6.09156 72.6948 6.07577 85.0043 6.04419 97.3138C5.91671 96.7132 5.83228 96.1043 5.79156 95.4917C5.77682 72.5548 5.77682 49.6179 5.79156 26.681V25.0263H5.47577V26.7221C5.47577 47.5642 5.47051 68.3969 5.45998 89.2201C5.45998 91.5727 5.28314 93.9285 5.14419 96.2811C5.05959 96.8544 4.92324 97.4188 4.73682 97.9675C4.30735 96.1043 3.9284 94.3485 3.56524 92.5927ZM49.6706 13.3926V13.4399C52.1969 13.4399 54.7043 13.4778 57.2211 13.4052C57.6601 13.4052 58.0864 12.9157 58.519 12.6536C58.1022 12.4263 57.6853 12.022 57.2559 11.9999C52.2727 11.9136 47.2906 11.8768 42.3095 11.8894C41.8548 11.8894 41.4032 12.3757 40.9516 12.6347C41.3874 12.8873 41.82 13.3452 42.2653 13.3578C44.7064 13.4273 47.1727 13.3894 49.639 13.3894L49.6706 13.3926ZM33.9821 14.3021C35.1158 14.2642 35.779 13.642 35.7506 12.5431C35.7221 11.4441 35.0527 10.8031 33.8811 10.8031C32.7095 10.8031 32.119 11.542 32.119 12.5873C32.119 13.6326 32.7727 14.321 33.9506 14.2989L33.9821 14.3021Z" fill="#FDFDFD"/>
<path d="M95.1003 193.238C94.8603 196.172 94.4276 199.024 92.6371 201.525C90.1108 205.061 86.6845 206.978 82.4181 207.493H15.9538C13.3991 207.111 10.939 206.489 8.82641 204.885C5.64956 202.469 3.6064 199.355 3.53377 195.316C3.40745 188.331 3.48324 181.342 3.48324 174.354C3.48324 172.677 3.5243 170.997 3.5464 169.32C3.92745 168.057 4.30851 166.794 4.68956 165.531C5.16289 169.094 5.4202 172.683 5.46009 176.277C5.52956 179.871 5.47588 183.468 5.47588 187.065C5.70809 186.629 5.81727 186.139 5.79167 185.647C5.79167 177.973 5.79167 170.299 5.79167 162.626C5.83347 162.014 5.91895 161.406 6.04746 160.807V187.222H92.2581C92.2897 186.635 92.3371 186.171 92.3371 185.71C92.3371 172.181 92.3434 158.655 92.3561 145.131C92.3561 144.764 92.2929 144.401 92.2581 144.038C92.2581 137.991 92.2203 131.943 92.2297 125.896C92.2297 121.747 92.3024 117.6 92.3403 113.451C93.0097 113.451 93.7013 113.35 94.3361 113.492C94.6518 113.561 94.8887 114.07 95.1603 114.382C95.1318 114.907 95.075 115.428 95.075 115.961C95.0624 137.309 95.0518 158.657 95.0434 180.007C95.034 184.412 95.0782 188.824 95.1003 193.238ZM52.197 204.313C55.4655 202.952 57.436 200.021 57.2497 196.81C57.0349 193.245 54.7454 190.636 50.9339 189.616C49.8949 189.641 48.8118 189.49 47.8202 189.724C46.7912 189.943 45.8187 190.373 44.9638 190.986C44.1088 191.599 43.3897 192.382 42.8518 193.286C42.3139 194.19 41.9687 195.196 41.8379 196.24C41.7071 197.283 41.7935 198.343 42.0917 199.352C43.2286 203.451 47.8423 205.718 52.197 204.313Z" fill="#FDFDFD"/>
<path d="M6.04438 160.804C5.91587 161.403 5.83039 162.011 5.78858 162.623C5.76964 170.296 5.76964 177.97 5.78858 185.644C5.81418 186.136 5.705 186.626 5.47279 187.062C5.47279 183.465 5.52648 179.868 5.45701 176.274C5.42197 172.683 5.16993 169.098 4.70227 165.537C4.32122 166.8 3.94016 168.064 3.55911 169.327C3.52753 168.91 3.46753 168.493 3.46753 168.064C3.46753 143.266 3.46753 118.466 3.46753 93.6634C3.46753 93.3003 3.52437 92.9371 3.55595 92.5708C3.9349 94.3298 4.31385 96.0855 4.72122 97.9613C4.90764 97.4127 5.04398 96.8483 5.12858 96.275C5.27385 93.9224 5.44437 91.5666 5.44437 89.214C5.46964 68.3718 5.4749 47.5391 5.46016 26.7159V25.0201H5.77595V26.6749C5.77595 49.6118 5.77595 72.5487 5.77595 95.4855C5.81668 96.0982 5.9011 96.7071 6.02859 97.3077C6.04753 97.9392 6.07911 98.5708 6.08227 99.2024C6.08227 119.103 6.08227 139.005 6.08227 158.906C6.09174 159.54 6.06332 160.172 6.04438 160.804Z" fill="#F8F7F9"/>
<path d="M92.2487 98.2581C92.3719 97.6265 92.6024 96.9792 92.6024 96.3413C92.6129 72.5033 92.6182 48.6643 92.6182 24.8243V23.119C93.294 25.4559 92.2708 28.0232 94.0929 30.2243L94.2856 27.5401C94.4971 28.4875 94.6361 29.119 94.7782 29.7317C94.8834 33.2938 94.9887 36.8569 95.094 40.4212C95.0434 41.0938 94.9519 41.7696 94.9456 42.4454C94.8824 47.3717 94.8287 52.2991 94.7845 57.2275C94.6578 57.8281 94.5745 58.4371 94.535 59.0496C94.5203 69.6223 94.5129 80.1939 94.5129 90.7644C94.5129 91.2855 94.4435 91.8034 94.4087 92.3244C94.3456 93.2181 94.0929 94.1592 94.2761 94.9897C94.5919 96.3286 94.9929 97.5381 93.2245 98.3055L93.4898 98.6213L95.1445 98.2771H95.7761C95.7761 98.495 95.7761 98.7129 95.7761 98.9307L93.8813 99.1676L89.0403 98.536L92.2487 98.2581ZM92.9719 93.796C93.2371 93.3823 93.4487 93.196 93.4771 92.9813C93.7466 91.0171 93.9866 89.0507 94.1971 87.0823C94.3077 86.0686 94.3361 85.0581 92.9782 84.8023L92.9719 93.796ZM94.0992 80.4002C93.234 81.9128 93.2782 83.7065 94.0992 84.0633V80.4002Z" fill="#F8F9FA"/>
<path d="M97.355 44.9084L97.6234 45.2242C97.6613 48.8032 97.6982 52.3821 97.734 55.9611C97.734 62.3969 97.7287 68.8327 97.7182 75.2685C97.7077 81.7043 97.674 88.1106 97.6171 94.4875C97.4924 93.9419 97.409 93.3877 97.3676 92.8296C97.3487 87.2843 97.3676 81.7359 97.3676 76.1906V74.6559C97.0519 75.1264 96.894 75.338 96.7361 75.5496V63.6916L96.0919 64.4874C95.9655 64.058 95.8392 63.6285 95.7161 63.1959L96.3792 60.4769C96.6318 59.9874 97.0992 59.4979 97.1024 59.0085C97.1277 55.0295 97.0866 51.0506 97.0045 47.0748C97.0045 46.6674 96.6034 46.2695 96.3887 45.8685L96.0919 45.2842C96.1268 45.2558 96.1674 45.2352 96.211 45.2237C96.2546 45.2123 96.3001 45.2103 96.3445 45.2179L97.355 44.9084Z" fill="#9F9EA2"/>
<path d="M2.97485 175.845V86.7034H3.12011V175.917L2.97485 175.845Z" fill="#000002"/>
<path d="M97.355 44.9085L96.3508 45.2243C96.1613 42.7295 95.9245 40.2379 95.8234 37.74C95.7982 37.1085 96.196 36.4422 96.3981 35.7948C96.7139 33.3853 97.0045 30.9727 97.3455 28.2158L97.355 44.9085Z" fill="#ABA5A9"/>
<path d="M96.0917 45.2716L96.4075 45.8558V46.5064C96.3064 47.0369 96.1769 47.5674 96.0917 48.1043C95.9622 49.1559 95.8611 50.2074 95.7506 51.2622C95.7506 51.578 95.7506 51.8717 95.719 52.1717C95.5485 53.9548 95.3738 55.738 95.1948 57.5211C95.2769 53.4159 95.3569 49.3106 95.4348 45.2053L96.0917 45.2716Z" fill="#969799"/>
<path d="M95.4602 45.2053C95.3824 49.3085 95.3023 53.4138 95.2202 57.5211C95.2013 57.8369 95.1855 58.1527 95.1666 58.4906H94.8981L94.7908 57.2432C94.8413 52.3127 94.895 47.3853 94.9518 42.4611C94.9518 41.7853 95.0497 41.1095 95.1002 40.4369L95.4602 45.2053Z" fill="#5A5C5E"/>
<path d="M190.197 11.4347C190.314 12.24 190.431 13.0421 190.551 13.8474C190.391 18.7337 190.231 23.619 190.071 28.5032C189.679 28.0074 189.708 27.4611 189.553 26.9716C189.076 25.4527 188.53 23.9527 188.009 22.4495C187.467 22.311 186.914 22.218 186.357 22.1716C183.278 22.1432 180.202 22.1716 177.127 22.1716C152.88 22.1716 128.636 22.1716 104.394 22.1716C103.661 22.1716 102.919 22.0137 102.202 22.099C101.83 22.1432 101.22 22.5442 101.198 22.8221C100.92 26.2074 100.62 29.599 100.566 32.9937C100.51 35.8958 100.832 38.8074 100.825 41.7127C100.825 45.0664 100.592 48.4169 100.544 51.7706C100.491 55.4243 100.506 59.078 100.544 62.7317C100.633 73.237 100.738 83.7423 100.86 94.2475C100.86 94.7654 100.86 95.2833 100.86 95.8012L100.229 95.7823C100.229 94.876 100.352 93.9507 100.194 93.0728C100.045 92.2549 99.597 91.4939 99.2812 90.7075V22.8758H98.9654V90.6981C98.9654 92.7444 98.9906 94.8033 98.9464 96.837C98.9464 97.3075 98.6938 97.7844 98.558 98.2423C98.558 73.217 98.558 48.1917 98.558 23.1663C98.558 22.3832 98.4506 21.6032 98.3938 20.82L99.0854 11.4695C101.612 5.16947 105.897 2.28315 112.765 2.27999C133.74 2.27999 154.712 2.35894 175.687 2.22947C182.634 2.1821 187.481 4.99263 190.197 11.4347ZM143.934 13.38V13.4116C146.514 13.4116 149.091 13.4463 151.668 13.3769C152.094 13.3769 152.508 12.8905 152.931 12.6316C152.523 12.4011 152.113 11.9747 151.702 11.9716C146.599 11.9274 141.495 11.9274 136.39 11.9716C135.967 11.9716 135.55 12.4611 135.127 12.7232C135.537 12.9379 135.941 13.3295 136.358 13.339C138.881 13.4084 141.408 13.38 143.934 13.38ZM129.003 10.8032C127.232 10.7116 126.644 11.3969 126.578 12.4579C126.512 13.519 127.077 14.2548 128.226 14.3084C129.376 14.3621 130.263 13.7211 130.121 12.5748C130.036 11.8484 129.265 11.1979 129.003 10.8032Z" fill="#FDFDFD"/>
<path d="M98.3495 20.8169C98.4064 21.6001 98.5106 22.3958 98.5137 23.1632C98.5137 48.1906 98.5137 73.2159 98.5137 98.2391C98.4321 98.2355 98.3513 98.2206 98.2737 98.1949C98.2579 91.2286 98.2548 84.2623 98.2011 77.2991C98.2011 76.6138 97.8853 75.9317 97.7021 75.2496C97.7021 68.8138 97.7074 62.378 97.718 55.9422C97.8916 55.4054 98.2106 54.8685 98.2137 54.3317C98.2411 43.7338 98.2485 33.1359 98.2358 22.5379C98.2516 21.9632 98.3022 21.3916 98.3495 20.8169Z" fill="#26272B"/>
<path d="M190.766 196.049C189.919 199.914 188.078 203.224 184.627 205.235C182.754 206.325 180.502 206.764 178.424 207.496C158.538 207.496 138.655 207.496 118.775 207.496C115.885 207.496 112.996 207.563 110.11 207.496C109.118 207.471 108.139 207.092 107.154 206.865C103.743 205.387 101.097 203.075 99.5054 199.677C99.3885 199.35 99.3069 199.011 99.2622 198.667C99.3617 198.482 99.43 198.283 99.4643 198.076C99.4043 195.045 99.3443 192.01 99.2401 188.975C99.1938 188.402 99.3155 187.828 99.5903 187.323C99.8651 186.819 100.281 186.405 100.787 186.133C101.069 186.569 101.305 186.932 101.539 187.298C107.744 187.264 113.946 187.2 120.149 187.197C139.026 187.185 157.903 187.185 176.779 187.197C180.509 187.197 184.238 187.084 187.968 187.02C189.149 186.01 189.667 183.177 189.003 181.586C188.808 181.118 188.498 180.49 188.662 180.12C189.386 178.488 188.549 176.909 188.618 175.33C188.703 173.435 188.808 171.569 188.934 169.69C189.057 167.978 189.25 166.27 189.395 164.558H189.783C189.916 166.541 190.143 168.525 190.159 170.508C190.21 176.644 190.159 182.779 190.203 188.912C190.203 189.442 190.563 189.97 190.756 190.491L190.766 196.049ZM143.833 204.739C148.229 204.777 151.664 201.55 151.728 197.331C151.756 196.325 151.583 195.324 151.221 194.386C150.858 193.448 150.312 192.591 149.615 191.866C148.918 191.141 148.083 190.562 147.16 190.162C146.236 189.763 145.243 189.552 144.237 189.54C139.816 189.515 136.27 192.847 136.238 197.047C136.223 198.053 136.408 199.052 136.783 199.986C137.159 200.919 137.716 201.769 138.423 202.485C139.13 203.201 139.972 203.769 140.901 204.156C141.83 204.543 142.827 204.742 143.833 204.739Z" fill="#FDFDFD"/>
<path d="M190.775 190.488C190.582 189.96 190.226 189.433 190.222 188.909C190.185 182.776 190.222 176.64 190.178 170.505C190.162 168.521 189.935 166.538 189.802 164.555H189.414C189.256 166.267 189.076 167.975 188.953 169.687C188.814 171.581 188.71 173.445 188.637 175.327C188.561 176.906 189.398 178.485 188.675 180.105C188.511 180.474 188.82 181.102 189.016 181.57C189.679 183.149 189.161 185.991 187.98 187.005C187.955 186.897 187.933 186.79 187.911 186.689C187.933 186.161 187.974 185.637 187.974 185.11C187.974 168.583 187.974 152.057 187.974 135.531C187.974 97.8465 187.984 60.1622 188.002 22.4779L188.028 22.4432C188.549 23.9463 189.095 25.4463 189.572 26.9653C189.727 27.4548 189.698 28.0011 190.09 28.4969C190.25 23.6127 190.41 18.7274 190.57 13.8411C190.703 14.5529 190.792 15.2721 190.838 15.9948C190.832 73.957 190.829 131.911 190.829 189.856C190.829 190.071 190.791 190.279 190.775 190.488Z" fill="#FBF9F8"/>
<path d="M95.1444 114.382C94.8728 114.066 94.6455 113.561 94.3202 113.492C93.6886 113.35 92.9939 113.451 92.3244 113.451H85.1086C84.8497 114 84.7644 114.622 84.4581 114.758C82.8791 115.475 83.1539 116.83 83.1191 118.118C83.0654 118.57 82.9702 119.016 82.8349 119.451C82.7054 118.705 82.8349 117.755 82.4023 117.259C81.5244 116.23 81.9412 115.519 82.6486 114.824C83.2802 114.209 83.8612 113.716 83.3275 112.696C83.2233 112.497 83.8076 111.935 84.0728 111.54C84.4612 112.292 85.0391 112.311 85.2886 111.581C85.7433 110.249 85.9865 108.843 86.3149 107.476L86.5707 102.711C86.6751 102.296 86.7427 101.874 86.7728 101.448C86.7728 100.683 86.6812 99.9159 86.6307 99.1517L86.9465 99.1959L86.9055 99.2654L87.8718 99.6538C88.2349 100.705 88.8191 101.624 88.0012 102.872C87.5749 103.529 87.5749 105 88.036 105.584C89.5391 107.479 88.3518 108.897 87.5591 110.448C87.3128 110.921 87.1202 111.423 86.7855 112.178C87.6728 112.178 88.2381 112.203 88.8034 112.178C92.7539 111.973 96.6981 111.673 100.661 111.591C102.357 111.556 104.062 112.109 105.768 112.137C108.114 112.175 110.479 111.78 112.807 111.944C113.997 112.03 115.128 112.933 116.28 113.466C116.084 113.754 115.68 114.098 115.731 114.316C116 115.476 116.333 116.619 116.729 117.742C116.83 118.026 117.193 118.219 117.436 118.453C117.72 118.198 117.966 117.903 118.166 117.578C118.873 115.958 118.459 114.673 116.902 113.789C117.581 112.636 118.251 113.422 118.718 113.912C119.271 114.49 119.624 115.257 120.063 115.945C120.455 117.041 121.958 117.72 123.392 117.458C125.76 117.025 127.046 115.279 128.271 113.457C129.25 114.461 128.533 115.371 127.955 116.088C126.837 117.452 125.536 118.298 123.502 118.134C122.274 118.033 120.96 118.977 120.155 118.014C119.034 118.585 118.052 118.961 117.228 119.552C116.779 119.868 116.28 120.616 116.337 121.083C116.866 124.469 117.479 127.837 118.178 131.189C118.45 132.505 119.034 133.756 119.41 135.057C120.916 140.233 124.434 143.776 128.754 146.7C129.701 147.332 130.573 147.963 131.763 147.815C132.218 147.71 132.679 147.636 133.143 147.594C136.131 147.667 139.115 147.793 142.099 147.853C142.608 147.841 143.108 147.719 143.565 147.496C144.357 147.146 145.118 146.731 145.841 146.255C147.253 145.308 148.983 144.528 149.915 143.211C151.62 140.798 152.836 138.044 154.26 135.436C154.513 134.978 154.706 134.403 155.094 134.119C156.108 133.383 156.13 132.392 156.079 131.321C156.061 130.848 156.076 130.374 156.123 129.903C156.521 125.643 157.251 121.377 157.267 117.123C157.295 109.102 156.973 101.078 156.67 93.0601C156.577 90.4817 156.26 87.9162 155.722 85.3927C155.236 83.1001 154.305 80.9085 153.566 78.698L155.053 78.3822L156.723 82.8506L157.065 83.7285L158.287 88.0106C158.356 89.0685 158.426 90.1264 158.486 91.0012C159.076 90.8601 159.673 90.7546 160.276 90.6854C162.348 90.5622 164.422 90.4864 166.497 90.3917L169.5 99.1991C169.128 94.5822 167.432 90.5117 165.319 86.5675C166.418 87.8306 167.811 88.9612 168.566 90.4106C172.971 98.8675 173.445 107.861 171.329 116.937C169.497 124.832 165.518 131.23 157.406 134.198C156.97 134.356 156.645 134.972 156.389 135.442C155.103 137.782 154.068 140.29 152.558 142.472C149.836 146.413 146.242 148.769 141.082 148.244C138.487 147.982 135.818 148.162 133.188 148.387C129.199 148.731 125.95 147.376 123.316 144.487C122.258 143.328 121.153 142.099 120.512 140.697C118.879 137.132 117.499 133.453 116.018 129.818L113.827 113.482H101.416L98.6181 113.435C98.4886 114.01 98.255 114.581 98.2518 115.156C98.216 124.36 98.2002 133.565 98.2044 142.772C98.1293 142.787 98.0534 142.798 97.977 142.803L97.696 142.488C97.6792 133.801 97.6644 125.114 97.6518 116.425C97.6518 115.743 97.6297 115.064 97.6171 114.385C97.6171 114.174 97.6171 113.959 97.6171 113.754C96.8055 113.438 95.9118 112.87 95.7034 114.385L95.1444 114.382ZM159.297 102.698L159.515 112.137C159.199 114.256 159.041 116.365 159.831 118.453V115.32C159.85 114.12 159.907 112.917 159.878 111.717C159.806 108.594 159.695 105.474 159.6 102.351C159.506 99.2275 159.332 96.1075 159.199 92.9875L158.71 93.0222C158.906 96.2349 159.101 99.4601 159.297 102.698ZM169.835 101.504H169.601V110.485H169.835V101.504Z" fill="black"/>
<path d="M98.6181 113.435L101.406 113.505C101.392 113.552 101.39 113.602 101.4 113.65C101.411 113.698 101.434 113.743 101.467 113.779C101.448 127.192 101.431 140.605 101.416 154.017C101.416 164.17 101.46 174.323 101.485 184.472L101.53 187.289C101.296 186.923 101.059 186.559 100.778 186.124C100.272 186.396 99.8557 186.809 99.5809 187.314C99.3061 187.819 99.1844 188.393 99.2307 188.966C99.3349 192 99.3949 195.035 99.4549 198.067C99.4207 198.273 99.3524 198.473 99.2528 198.657C99.0549 197.712 98.8581 196.77 98.6623 195.831C98.7865 195.284 98.8709 194.729 98.9149 194.17C98.9275 167.957 98.9275 141.747 98.9149 115.538C98.8621 114.932 98.7564 114.332 98.5991 113.745L98.6181 113.435ZM100.513 140.782L99.7675 140.637C99.5875 141.31 99.2591 141.979 99.2528 142.655C99.2054 146.852 99.2275 151.049 99.2275 155.249C99.2275 156.9 99.1581 158.558 99.2623 160.204C99.3033 160.914 99.7044 161.603 99.9412 162.3L100.446 162.149C100.983 155.039 101.012 147.9 100.535 140.786L100.513 140.782ZM100.573 174.023C98.6149 176.123 98.8233 182.732 100.573 184.57V174.023Z" fill="#FAF7F7"/>
<path d="M98.618 113.751C98.7753 114.338 98.881 114.938 98.9338 115.544C98.9485 141.759 98.9485 167.97 98.9338 194.176C98.8898 194.735 98.8054 195.29 98.6812 195.837C98.6433 195.736 98.6054 195.635 98.5706 195.521C98.5706 194.47 98.5391 193.421 98.5391 192.364C98.5391 169.193 98.5496 146.023 98.5706 122.855C98.5612 119.842 98.5991 116.795 98.618 113.751Z" fill="#FDFDFD"/>
<path d="M98.6181 113.751C98.5992 116.795 98.5613 119.842 98.5613 122.887C98.5444 146.059 98.5339 169.225 98.5297 192.383C98.5297 193.431 98.5486 194.479 98.5613 195.54C98.4194 194.783 98.3256 194.017 98.2802 193.248C98.2676 177.105 98.2676 160.961 98.2802 144.818C98.2802 144.136 98.2423 143.454 98.2202 142.772C98.2202 133.566 98.236 124.36 98.2676 115.156C98.2676 114.581 98.5044 114.01 98.6339 113.435L98.6181 113.751Z" fill="#2D2C2C"/>
<path d="M97.7053 142.488L97.9864 142.803C97.9864 147.095 97.9864 151.39 97.9864 155.681C97.9378 156.235 97.8427 156.783 97.7021 157.32L97.7053 142.488Z" fill="black"/>
<path d="M95.1444 114.382H95.7223C95.7413 126.25 95.7602 138.117 95.7792 149.984C95.7792 160.222 95.7613 170.462 95.7255 180.705C95.5974 181.248 95.5109 181.8 95.4665 182.356C95.4444 186.319 95.4665 190.282 95.2676 194.261C95.2076 193.92 95.1507 193.579 95.0939 193.238C95.0718 188.817 95.0276 184.396 95.0276 179.997C95.0276 158.648 95.0381 137.299 95.0592 115.952C95.0655 115.428 95.1223 114.907 95.1444 114.382Z" fill="black"/>
<path d="M97.3043 159.464V162.916L96.9443 162.954C96.6601 160.327 96.1769 157.706 96.1422 155.078C96.0822 150.626 96.2906 146.167 96.4264 141.714C96.4422 141.19 96.7232 140.672 96.8811 140.151L97.3106 140.249V144.449C97.2475 144.528 97.1243 144.607 97.1243 144.686C97.1243 149.528 97.1243 154.37 97.1243 159.212C97.1211 159.307 97.2412 159.386 97.3043 159.464Z" fill="#B8B3B1"/>
<path d="M97.6423 113.751C97.6423 113.962 97.6423 114.177 97.6423 114.382C97.5132 114.928 97.4266 115.484 97.3833 116.043C97.3612 120.401 97.3833 124.759 97.0676 129.139C97.0676 128.53 97.0991 127.917 97.0676 127.311C97.0012 126.155 97.4497 124.879 96.2686 123.967C96.1202 123.853 96.1423 123.471 96.1423 123.215C96.1423 120.168 96.1423 117.123 96.1423 113.883L97.6423 113.751Z" fill="#B8B6B6"/>
<path d="M97.3043 159.465C97.2411 159.386 97.1211 159.307 97.1211 159.228C97.1211 154.386 97.1211 149.544 97.1211 144.701C97.1211 144.622 97.2442 144.544 97.3074 144.465C97.3095 149.463 97.3085 154.463 97.3043 159.465Z" fill="#CCC8C6"/>
<path d="M82.8285 119.451C82.9638 119.016 83.0589 118.57 83.1127 118.118C83.1474 116.83 82.8759 115.475 84.4517 114.758C84.7674 114.622 84.8432 114 85.1022 113.451H92.3243C92.2864 117.6 92.2233 121.747 92.2138 125.896C92.2138 131.943 92.2327 137.991 92.2422 144.038C92.1885 144.607 92.0843 145.175 92.0811 145.743C92.0601 158.682 92.0454 171.619 92.0369 184.554V187.03H89.8517C73.2348 187.03 56.6169 187.03 39.9979 187.03C28.901 187.03 17.8052 187.012 6.71045 186.976C6.71045 132.142 6.71045 77.3075 6.71045 22.4716C10.0231 22.4495 13.342 22.4084 16.6484 22.4084C40.2695 22.4084 63.8927 22.4084 87.518 22.4084H92.0622C92.0906 22.8506 92.1411 23.299 92.1443 23.7506C92.1696 48.058 92.1927 72.3654 92.2138 96.6728C92.2138 97.197 92.2296 97.7212 92.2359 98.2517L89.0274 98.5328L87.2401 98.6023L83.4506 96.3286C83.2453 95.8075 82.9327 95.3054 82.8538 94.7686C82.2885 91.0675 81.9411 87.3223 81.199 83.6559C80.2074 78.7612 77.9558 74.3559 75.2211 70.2001L74.4853 69.5401L70.1969 66.3822C69.7611 64.9927 68.5106 65.1475 67.5095 65.1191C64.2569 65.0306 60.9979 65.1475 57.7453 65.0401C55.7441 64.9449 53.7635 65.4806 52.0832 66.5717C49.2758 68.3749 47.3053 70.9106 45.84 73.8696L44.7031 76.1938C44.3526 77.2643 43.5474 77.4128 42.5305 77.457C34.8158 77.7728 29.2452 81.2149 26.4568 88.6265C26.2957 89.0528 26.3621 89.5738 26.321 90.0412C26.1063 90.357 25.8915 90.6507 25.6894 90.957C25.3537 91.3334 25.0554 91.7416 24.7989 92.1759C23.2578 95.4823 22.8726 99.0507 22.541 102.622C22.5094 102.973 22.7178 103.349 22.8157 103.712C22.6231 104.132 22.4273 104.549 22.2347 104.975L21.9189 105.818L22.2094 108.976L22.5252 109.608C22.2568 114.85 23.9747 119.621 26.0463 124.295C27.1958 126.884 28.3831 129.49 30.8242 131.186C34.7905 133.939 39.0947 135.679 44.0274 135.607C44.3318 135.612 44.6317 135.681 44.9076 135.81C45.1834 135.939 45.429 136.125 45.6284 136.355C47.1916 138.644 48.42 141.193 50.1695 143.302C52.6674 146.331 55.7305 148.551 60.0411 148.213C62.9148 147.986 65.8074 147.982 68.6874 147.862C69.0516 147.828 69.4107 147.753 69.7579 147.638C73.2316 146.672 75.4422 144.164 77.2579 141.272C81.4295 134.593 82.699 127.159 82.8285 119.451ZM31.0389 156.698L30.0915 157.298L28.5758 157.702L28.6957 158.144C35.2168 159.575 41.8231 158.391 48.3884 158.722L42.2305 159.266V159.834C43.0421 159.941 43.8568 160.15 44.6621 160.15C49.5347 159.986 54.4105 159.872 59.2737 159.534C65.2737 159.114 71.2737 158.587 77.2422 157.908C79.399 157.661 81.5338 156.96 83.6022 156.259C84.9253 155.804 84.8969 154.829 83.6369 154.147C82.8959 153.753 82.1103 153.45 81.2969 153.243C73.3232 151.153 65.1253 151.121 56.9811 150.768C52.5853 150.578 48.1642 150.888 43.7558 151.046C42.6884 151.083 41.6305 151.406 40.5663 151.595L40.5884 152.081C41.1884 152.306 41.7852 152.533 42.7989 152.918C40.2474 152.918 38.1221 152.918 35.9968 152.918C33.9284 152.918 31.8379 152.811 29.8958 153.619V154.096L32.6179 154.488L31.0389 155.119C28.68 155.299 26.2263 154.696 23.58 155.931C26.2484 157.118 28.6768 156.537 31.0389 156.698Z" fill="#2E2729"/>
<path d="M6.72314 186.989C17.8179 187.008 28.9137 187.026 40.0106 187.042C56.6274 187.042 73.2454 187.042 89.8643 187.042H92.0496V184.567C92.0623 171.632 92.077 158.695 92.0938 145.756C92.0938 145.188 92.2012 144.619 92.2549 144.051C92.2896 144.414 92.3528 144.777 92.3528 145.143C92.3528 158.67 92.3465 172.196 92.3338 185.722C92.3338 186.183 92.2865 186.648 92.2549 187.235H6.04419V160.803C6.06314 160.172 6.09787 159.54 6.09787 158.909C6.09787 139.008 6.09787 119.106 6.09787 99.2054C6.09787 98.5738 6.06314 97.9423 6.04419 97.3107C6.05893 85.0012 6.07471 72.6917 6.09156 60.3822C6.09156 48.439 6.09156 36.4958 6.09156 24.5526C6.14261 23.8528 6.24819 23.1581 6.40735 22.4747C6.40735 76.7906 6.40735 131.107 6.40735 185.422C6.45973 185.954 6.56553 186.479 6.72314 186.989Z" fill="#989394"/>
<path d="M6.72302 186.989C6.56603 186.482 6.46024 185.96 6.40723 185.432C6.40723 131.116 6.40723 76.8001 6.40723 22.4843H6.72302C6.72302 77.3201 6.72302 132.155 6.72302 186.989Z" fill="#150D0D"/>
<path d="M49.6389 13.3895C47.1726 13.3895 44.7063 13.4273 42.2431 13.3547C41.7979 13.3547 41.3652 12.8842 40.9294 12.6316C41.381 12.3726 41.8326 11.8863 42.2873 11.8863C47.2705 11.8694 52.2526 11.9063 57.2337 11.9968C57.6537 11.9968 58.0705 12.4231 58.4968 12.6505C58.0642 12.9126 57.6379 13.3894 57.1989 13.4021C54.6726 13.4747 52.1652 13.4368 49.6484 13.4368L49.6389 13.3895Z" fill="#060707"/>
<path d="M33.9505 14.299C32.7726 14.3211 32.1316 13.6674 32.1316 12.5811C32.1316 11.4948 32.7063 10.8032 33.8811 10.8032C35.0558 10.8032 35.6748 11.4759 35.7063 12.5464C35.7379 13.6169 35.0842 14.2769 33.9505 14.299Z" fill="#050606"/>
<path d="M52.1968 204.313C47.8547 205.718 43.241 203.451 42.1073 199.352C41.8089 198.345 41.7217 197.286 41.8511 196.244C41.9805 195.201 42.3238 194.196 42.8595 193.293C43.3952 192.389 44.1117 191.605 44.9641 190.991C45.8166 190.377 46.7867 189.945 47.8137 189.723C48.8052 189.49 49.8884 189.641 50.9274 189.616L48.8526 189.989L50.921 190.567C50.5042 190.541 50.0842 190.5 49.6579 190.494C48.2871 190.456 46.9387 190.848 45.8013 191.614C44.6639 192.38 43.7941 193.482 43.3136 194.767C42.2621 197.372 42.9284 200.066 45.0252 202.083C46.7968 203.782 48.9379 203.902 51.1831 203.716L52.1968 204.313Z" fill="#060808"/>
<path d="M50.9085 190.567L48.8401 189.989L50.9148 189.616C54.7233 190.636 57.0127 193.245 57.2306 196.81C57.4264 200.022 55.4559 202.952 52.178 204.313L51.1706 203.716C52.3485 202.911 53.7538 202.301 54.6633 201.263C57.3412 198.212 56.6938 192.319 50.9085 190.567Z" fill="#0F1213"/>
<path d="M98.3021 98.195C98.3797 98.2206 98.4605 98.2355 98.5421 98.2392C98.6779 97.7718 98.9211 97.2918 98.9305 96.8339C98.9747 94.7876 98.9495 92.7287 98.9495 90.695H99.2653C99.5811 91.4813 100.029 92.2423 100.178 93.0602C100.336 93.9381 100.213 94.8634 100.213 95.7697L100.844 95.7887C100.844 95.2708 100.844 94.7529 100.844 94.235C100.739 83.7297 100.634 73.2244 100.528 62.7191C100.497 59.0654 100.481 55.4117 100.528 51.7581C100.576 48.4044 100.803 45.0538 100.809 41.7001C100.809 38.7949 100.494 35.8833 100.551 32.9812C100.62 29.5864 100.92 26.1948 101.182 22.8096C101.204 22.5317 101.814 22.1306 102.186 22.0864C102.903 22.0012 103.645 22.1591 104.378 22.1591C128.62 22.1591 152.864 22.1591 177.111 22.1591C180.186 22.1591 183.262 22.1433 186.341 22.1591C186.899 22.2055 187.451 22.2984 187.993 22.4369L187.987 22.4875H187.671C187.412 22.4654 187.15 22.4243 186.891 22.4243C166.604 22.4243 146.32 22.4306 126.038 22.4433C117.943 22.4433 109.852 22.4622 101.763 22.5001C101.603 23.0538 101.498 23.6218 101.447 24.1959C101.428 36.6949 101.423 49.1949 101.432 61.696C101.432 73.0413 101.456 84.3855 101.504 95.7287V98.3339H107.46C106.497 98.4223 105.527 98.476 104.567 98.6087C103.427 98.7666 102.297 98.9908 101.16 99.1866L96.4232 99.2845L95.7916 98.9434C95.7916 98.7255 95.7916 98.5076 95.7916 98.2897L95.76 98.2581L97.6895 98.2424L98.3021 98.195Z" fill="#FBF9F8"/>
<path d="M94.7749 57.2244L94.8822 58.4717C94.8949 71.0276 94.9107 83.5813 94.9296 96.1329C94.9556 96.4434 95.0095 96.7509 95.0907 97.0518C95.1064 97.4592 95.1254 97.8634 95.1412 98.2708L93.4833 98.615L93.218 98.2992C94.9864 97.5318 94.5917 96.3223 94.2696 94.9834C94.0707 94.1529 94.3391 93.2118 94.4022 92.3181C94.437 91.7971 94.5064 91.2792 94.5064 90.7581C94.5064 80.1897 94.5128 69.6212 94.5254 59.0528C94.5645 58.4381 94.6479 57.8271 94.7749 57.2244Z" fill="#FDFDFD"/>
<path d="M95.1445 98.277C95.1287 97.8697 95.1098 97.4655 95.094 97.0581C95.1287 96.6412 95.1982 96.2276 95.1982 95.7949C95.1982 89.5897 95.1982 83.3812 95.1982 77.1633C95.2371 76.6161 95.3162 76.0725 95.4351 75.537L96.3982 75.8212C96.1929 76.418 95.814 77.0149 95.8108 77.6117C95.754 84.4802 95.7572 91.3486 95.7445 98.217L95.7761 98.2486L95.1445 98.277Z" fill="#020203"/>
<path d="M92.9717 93.796V84.8022C94.3296 85.058 94.3012 86.0654 94.1906 87.0823C93.9801 89.0528 93.7422 91.0191 93.4769 92.9812C93.4485 93.196 93.2496 93.3823 92.9717 93.796Z" fill="#FDFDFD"/>
<path d="M87.2495 98.6087L89.0369 98.5392L93.8779 99.1708L86.9116 99.256L86.9527 99.1866C87.0537 98.9971 87.1548 98.8044 87.2495 98.6087Z" fill="#FDFDFD"/>
<path d="M86.9148 99.2591L93.8811 99.1739L95.7759 98.937L96.4074 99.2781L94.1401 99.5718L87.8843 99.6475L86.9148 99.2591Z" fill="#4D4447"/>
<path d="M94.0992 80.4001V84.0665C93.2781 83.7065 93.2497 81.9128 94.0992 80.4001Z" fill="#FDFDFD"/>
<path d="M95.7476 98.2517C95.7476 91.3833 95.7476 84.5149 95.8139 77.6464C95.8139 77.0496 96.196 76.4527 96.4012 75.8559L96.717 75.5148L96.7455 75.5496C96.8907 75.338 97.036 75.1264 97.377 74.6559V76.1938C97.377 81.7391 97.377 87.2875 97.377 92.8328C97.4184 93.3909 97.5018 93.9451 97.6265 94.4907C97.6455 95.7412 97.6655 96.9896 97.6865 98.2359L95.7476 98.2517Z" fill="#ADAAA9"/>
<path d="M95.4379 75.5717C95.3191 76.1072 95.2399 76.6508 95.2011 77.198C95.2011 83.4033 95.2011 89.6117 95.2011 95.8296C95.2011 96.2465 95.1316 96.6601 95.0969 97.0928C95.0157 96.7919 94.9618 96.4844 94.9358 96.1738C94.9147 83.6222 94.899 71.0685 94.8884 58.5127H95.1442C95.2611 58.598 95.3747 58.6864 95.4884 58.7748C95.3684 59.9022 95.1947 61.0327 95.1726 62.1632C95.1726 62.5074 95.5295 62.8611 95.7253 63.2085C95.8484 63.6411 95.9748 64.0706 96.1011 64.5001L95.7758 67.3296C95.5642 67.7843 95.1695 68.2422 95.1758 68.6938C95.2042 70.9959 95.34 73.2822 95.4379 75.5717Z" fill="#5E5F61"/>
<path d="M97.6706 98.2361C97.6516 96.9898 97.6316 95.7414 97.6106 94.4909C97.6422 88.0761 97.6748 81.6624 97.7085 75.2498C97.8822 75.9319 98.2043 76.614 98.2074 77.2992C98.2611 84.2624 98.2643 91.2287 98.2801 98.1951L97.6706 98.2361Z" fill="#020304"/>
<path d="M95.7759 67.3296L96.0917 64.4654L96.7232 63.6823V75.5402L96.6948 75.5054C96.6001 74.7602 96.4927 74.0149 96.4075 73.2665C96.199 71.2959 95.9875 69.3191 95.7759 67.3296Z" fill="#5F5D5E"/>
<path d="M96.4075 46.5065V45.856C96.6223 46.257 97.017 46.6549 97.0233 47.0623C97.1054 51.0381 97.1465 55.017 97.1212 58.996C97.1212 59.4855 96.6507 59.9749 96.3981 60.4644L95.5012 60.0665C95.6939 59.836 95.896 59.6118 96.0728 59.3718C96.2496 59.1318 96.4675 58.8034 96.6633 58.5191C96.6823 54.8433 96.7107 51.1676 96.7044 47.4886C96.6527 47.1488 96.5527 46.8181 96.4075 46.5065Z" fill="#B1B1B3"/>
<path d="M96.6632 58.5285C96.4674 58.8127 96.2811 59.1032 96.0726 59.3811C95.8642 59.659 95.6937 59.8453 95.5011 60.0758L96.3821 60.4643L95.719 63.1832C95.5232 62.8358 95.1537 62.4822 95.1663 62.1379C95.2011 61.0074 95.3748 59.8769 95.4821 58.7495L96.06 58.4622L96.6632 58.5285Z" fill="#2F3031"/>
<path d="M96.6632 58.5286L96.0727 58.4623C96.0727 57.5812 96.1327 56.697 96.0885 55.8191C96.0095 54.297 95.8738 52.778 95.7727 51.2591C95.8832 50.2075 95.9843 49.1559 96.1138 48.1012C96.1832 47.5643 96.3127 47.0338 96.4296 46.5033C96.5821 46.8169 96.6885 47.1508 96.7453 47.4949C96.7232 51.177 96.6822 54.8528 96.6632 58.5286Z" fill="#6D6D6E"/>
<path d="M95.7759 51.2592C95.8896 52.7781 96.0254 54.2971 96.0917 55.8192C96.1359 56.6971 96.0917 57.5813 96.0759 58.4623L95.498 58.7497C95.3843 58.6613 95.2707 58.5729 95.1538 58.4876C95.1728 58.1718 95.1885 57.8402 95.2075 57.5181C95.3843 55.7371 95.5591 53.9539 95.7317 52.1686C95.757 51.856 95.7507 51.5623 95.7759 51.2592Z" fill="#9A9B9A"/>
<path d="M143.934 13.38C141.408 13.38 138.881 13.4084 136.355 13.3515C135.938 13.3515 135.534 12.9505 135.124 12.7357C135.544 12.4736 135.96 11.9905 136.387 11.9842C141.492 11.9294 146.596 11.9294 151.699 11.9842C152.11 11.9842 152.52 12.4136 152.928 12.6442C152.508 12.9031 152.094 13.3768 151.665 13.3894C149.088 13.4589 146.511 13.4242 143.931 13.4242L143.934 13.38Z" fill="#010202"/>
<path d="M99.2496 90.698H98.9338V22.8789H99.2496V90.698Z" fill="#F1F1F1"/>
<path d="M129.003 10.803C129.265 11.1915 130.036 11.842 130.124 12.5746C130.263 13.7209 129.42 14.3683 128.23 14.3083C127.039 14.2483 126.512 13.5378 126.581 12.4578C126.651 11.3778 127.232 10.7178 129.003 10.803Z" fill="#040506"/>
<path d="M143.833 204.739C142.826 204.739 141.83 204.539 140.902 204.15C139.974 203.761 139.133 203.191 138.427 202.474C137.722 201.756 137.166 200.906 136.793 199.971C136.42 199.036 136.237 198.037 136.254 197.031C136.285 192.831 139.838 189.499 144.253 189.525C145.259 189.537 146.254 189.749 147.177 190.15C148.101 190.551 148.936 191.131 149.632 191.858C150.329 192.585 150.874 193.443 151.235 194.383C151.597 195.322 151.767 196.325 151.737 197.331C151.671 201.54 148.229 204.777 143.833 204.739ZM143.931 203.792C144.823 203.802 145.708 203.635 146.534 203.3C147.361 202.964 148.112 202.467 148.745 201.838C149.377 201.209 149.878 200.46 150.218 199.635C150.557 198.81 150.729 197.926 150.723 197.034C150.708 195.288 150.002 193.618 148.759 192.392C147.516 191.165 145.838 190.48 144.092 190.488C143.201 190.481 142.317 190.651 141.492 190.988C140.668 191.325 139.918 191.822 139.286 192.45C138.654 193.078 138.154 193.826 137.813 194.649C137.471 195.472 137.297 196.355 137.299 197.246C137.304 198.111 137.48 198.966 137.817 199.763C138.153 200.56 138.643 201.282 139.259 201.889C139.875 202.497 140.605 202.976 141.406 203.301C142.208 203.626 143.066 203.79 143.931 203.782V203.792Z" fill="#080A0A"/>
<path d="M101.539 187.292C101.539 186.345 101.511 185.397 101.495 184.475H101.634H101.776C101.986 185.214 102.197 185.951 102.408 186.686H187.895C187.917 186.79 187.939 186.897 187.965 187.001C184.235 187.065 180.506 187.175 176.776 187.178C157.898 187.197 139.021 187.197 120.145 187.178C113.946 187.194 107.744 187.257 101.539 187.292Z" fill="#13EA76"/>
<path d="M187.914 187H101.635C101.635 163.396 101.623 139.794 101.6 116.193C101.6 114.814 101.947 114.376 103.372 114.42C106.604 114.527 109.838 114.455 112.911 114.455C113.198 116.937 113.443 119.268 113.742 121.592C113.997 123.58 114.275 125.563 114.619 127.535C114.824 128.44 115.077 129.334 115.377 130.213C116.872 133.843 118.265 137.518 119.913 141.079C120.55 142.476 121.675 143.703 122.743 144.864C125.401 147.75 128.68 149.103 132.705 148.759C135.344 148.535 138.037 148.355 140.673 148.617C145.864 149.141 149.507 146.788 152.254 142.851C153.778 140.672 154.823 138.167 156.12 135.83C156.378 135.36 156.707 134.745 157.146 134.588C165.334 131.623 169.35 125.217 171.198 117.347C173.333 108.266 172.855 99.2831 168.409 90.8521C167.648 89.4043 166.242 88.2846 165.133 87.0135C163.285 84.0927 161.016 81.5284 157.758 80.191C156.021 79.4782 155.209 78.3711 154.473 76.7688C151.923 71.1544 148.663 66.2055 141.725 65.3035L142.072 65.0827C141.995 65.0385 141.922 64.9596 141.849 64.9596C137.964 64.9596 134.079 64.9597 130.194 64.9912C130.019 64.9912 129.846 65.1836 129.671 65.2877C129.207 65.3431 128.749 65.4424 128.304 65.5842C126.886 66.1803 125.088 66.0731 124.209 67.6943C121.735 69.4983 119.791 71.9202 118.574 74.7123C117.529 76.9959 116.662 79.3615 115.706 81.6893C115.483 82.1466 115.129 82.585 115.068 83.0645C114.388 87.7011 113.739 92.3429 113.121 96.99C113.032 97.6587 113.236 98.3968 112.139 98.3873C108.755 98.3652 105.37 98.3873 101.989 98.3873C101.989 98.2801 101.989 98.1728 101.989 98.0719H109.88C109.88 97.9174 109.88 97.7565 109.88 97.6114C107.668 97.6114 105.45 97.5042 103.251 97.6461C101.657 97.7502 101.632 96.9617 101.635 95.7883C101.663 84.9696 101.663 74.1487 101.635 63.3258C101.635 50.6693 101.625 38.0095 101.606 25.3467C101.606 24.7789 101.218 24.2112 101.007 23.6466C100.998 23.5417 100.998 23.4361 101.007 23.3312C129.242 23.3312 157.477 23.3259 185.712 23.3154C186.376 23.2628 187.034 23.1573 187.681 23H188C188 60.6395 187.99 98.279 187.971 135.919C187.971 152.421 187.971 168.928 187.971 185.439C187.978 185.937 187.936 186.461 187.914 187ZM163.524 155.08C163.498 155.004 163.483 154.924 163.479 154.843L165.965 154.345C165.946 154.146 165.924 153.948 165.901 153.746H155.419L155.39 153.411L159.024 152.248C158.989 152.036 158.954 151.822 158.922 151.617C156.2 151.45 153.475 151.109 150.757 151.15C143.385 151.254 136.001 151.311 128.651 151.803C124.349 152.09 120.091 153.124 115.836 153.932C114.985 154.093 114.243 154.752 113.433 155.194V155.711C114.236 156.14 114.995 156.752 115.852 156.972C118.109 157.524 120.394 158.108 122.698 158.31C130.621 158.997 138.553 159.572 146.489 160.089C148.911 160.247 151.359 160.064 153.794 160.035L153.813 159.505L152.997 159.25C155.298 159.168 157.599 159.108 159.897 158.997C161.411 158.925 162.921 158.783 164.432 158.682L166.663 158.281L166.615 157.856L165.022 157.083L168.562 157.001L172.259 156.37L172.205 155.824C169.464 154.9 166.596 155.301 163.772 155.238C163.712 155.156 163.624 155.1 163.524 155.08ZM187.662 170.914C187.662 159.683 187.669 148.45 187.681 137.215C187.681 114.909 187.674 92.6016 187.659 70.2933V24.3216H187.366V184.404H187.659L187.662 170.914Z" fill="#13EA76"/>
<path d="M82.8285 119.451C82.6927 127.159 81.4232 134.609 77.2453 141.24C75.439 144.117 73.2253 146.64 69.7453 147.607C69.3981 147.721 69.0389 147.797 68.6748 147.831C65.7948 147.951 62.9021 147.954 60.0285 148.181C55.7179 148.519 52.6548 146.287 50.1569 143.271C48.4074 141.149 47.179 138.6 45.6158 136.323C45.4164 136.093 45.1708 135.908 44.8949 135.779C44.6191 135.65 44.3192 135.58 44.0147 135.575C39.0821 135.663 34.7779 133.923 30.8116 131.154C28.3705 129.458 27.1831 126.853 26.0337 124.263C23.9621 119.59 22.2442 114.818 22.5126 109.576C26.1442 110.208 26.5326 109.892 26.2358 106.478L27.84 106.355C27.7547 105.704 27.641 104.846 27.5242 103.987L28.0894 102.986C28.4052 104.012 28.6484 104.795 28.92 105.67L29.3905 104.909C29.5064 105.42 29.5793 105.939 29.6084 106.462C29.5389 109.661 30.0537 113.075 26.5926 115.109C27.6347 115.725 28.7526 115.396 29.2958 113.871C29.9273 112.131 30.0789 110.23 30.4421 108.401C31.4716 108.626 31.961 109.244 32.04 110.321C32.0842 110.887 32.4158 111.43 32.6179 111.982C32.5105 112.876 32.4 113.773 32.3021 114.667C31.3105 116.362 30.3221 118.061 29.4221 119.606C33.7452 119.249 37.3168 116.047 37.3674 110.953C37.481 110.688 37.6832 110.422 37.6832 110.16C37.6832 107.883 37.6516 105.607 37.6295 103.327L37.2568 101.46L36.9632 100.497C36.3821 99.4382 35.7916 98.3676 35.1916 97.2855C35.1695 97.2034 35.1474 97.1182 35.1284 97.0329L36.7074 98.2961C37.9221 100.763 39.1368 103.231 40.3516 105.698L40.0137 105.888L40.4621 104.624C40.6863 106.649 40.8379 108.682 41.1758 110.684C41.2832 111.332 41.3621 112.579 42.7137 111.862C43.8316 111.938 44.0242 111.231 43.9768 110.347C43.7663 106.014 43.5463 101.68 43.3168 97.3455L42.4074 94.8034L42.6979 93.5592C42.9821 93.9803 43.2684 94.4097 43.5569 94.8476L44.5895 96.7424L46.1684 99.9003C46.6821 101.05 47.1979 102.201 47.7158 103.355C48.0126 104.132 48.319 104.909 48.6 105.692C49.8632 109.222 51.5495 112.658 51.1769 116.577C50.68 118.903 50.1779 121.236 49.6705 123.575C50.3021 122.343 50.6179 121.033 50.9811 119.745C51.2053 118.98 51.5684 118.254 51.8684 117.509L61.0264 115.039L59.6337 121.456L60.06 121.545L61.3232 114.976C61.3232 110.57 61.3306 106.163 61.3453 101.757C61.0232 99.7571 60.7 97.7571 60.3758 95.7571L57.8811 89.1192C57.84 88.6676 57.7958 88.216 57.7548 87.7676L58.0232 87.6602L59.7348 89.7666C59.6053 89.116 59.5421 88.775 59.4758 88.4371C61.6264 90.6002 62.7474 93.3445 63.8716 96.1045C64.8506 98.5045 65.9021 100.879 67.0074 103.222C67.8853 105.082 68.9022 106.879 69.8495 108.704C70.2632 109.927 70.5822 111.19 71.1127 112.355C71.6432 113.52 72.4074 114.629 73.0706 115.759C72.9001 119.403 72.818 123.057 72.5243 126.692C72.3822 128.448 71.7127 130.166 71.5074 131.915C71.0588 135.669 69.8212 139.286 67.8758 142.529C67.5095 143.16 67.4495 143.947 67.1874 144.881C68.7853 144.124 69.3758 143.426 70.4906 141.297C73.8506 134.88 74.8422 127.857 75.1706 120.809C75.4864 114.177 75.2716 107.473 74.8927 100.826C74.5307 95.4634 73.8984 90.1229 72.998 84.8244C72.3789 80.7232 70.8851 76.803 68.6179 73.3297C67.9864 72.376 67.36 71.4223 66.739 70.4686C66.8937 70.3076 67.0548 70.0013 67.2001 70.0044C69.8716 70.0518 72.5432 70.1339 75.2116 70.2097C77.9495 74.3655 80.2011 78.7708 81.1927 83.6655C81.9348 87.3318 82.2822 91.0771 82.8474 94.7782C82.9264 95.315 83.239 95.8171 83.4443 96.3381C83.3496 96.5529 83.258 96.7645 83.1664 96.9697L83.1853 97.7024V98.2487C83.2927 99.1961 83.4032 100.143 83.5011 101.091C83.6948 104.575 83.8853 108.058 84.0727 111.54C83.8074 111.935 83.2232 112.488 83.3274 112.696C83.8611 113.716 83.2738 114.209 82.6485 114.825C81.9411 115.519 81.5243 116.23 82.4022 117.259C82.8285 117.755 82.7053 118.706 82.8285 119.451Z" fill="black"/>
<path d="M153.565 78.6981C154.304 80.9086 155.236 83.1002 155.729 85.377C156.266 87.9005 156.583 90.466 156.676 93.0444C156.992 101.062 157.308 109.087 157.273 117.108C157.273 121.371 156.528 125.634 156.13 129.888C156.082 130.359 156.067 130.832 156.085 131.306C156.136 132.376 156.114 133.368 155.1 134.103C154.712 134.388 154.519 134.962 154.267 135.42C152.842 138.029 151.627 140.789 149.921 143.195C148.974 144.512 147.259 145.279 145.848 146.239C145.124 146.716 144.363 147.131 143.571 147.48C143.114 147.704 142.614 147.825 142.105 147.837C139.121 147.777 136.137 147.651 133.15 147.578C132.685 147.62 132.224 147.694 131.77 147.799C130.579 147.941 129.692 147.319 128.76 146.685C124.44 143.76 120.922 140.217 119.416 135.041C119.04 133.74 118.469 132.49 118.184 131.173C117.49 127.819 116.876 124.451 116.343 121.068C116.274 120.6 116.785 119.858 117.234 119.536C118.058 118.942 119.04 118.57 120.161 117.998C120.966 118.961 122.28 118.017 123.509 118.118C125.542 118.286 126.843 117.436 127.961 116.072C128.549 115.355 129.265 114.446 128.277 113.441C128.656 111.935 129.246 110.448 129.37 108.922C129.597 106.036 129.632 103.118 127.958 100.522L127.541 99.6634L127.825 99.316C128.526 99.6886 129.382 99.9129 129.897 100.459C130.893 101.462 131.744 102.599 132.423 103.838C135.736 110.388 139.128 116.902 141.224 123.986C141.556 125.089 141.966 126.167 142.45 127.213C142.942 128.287 143.643 128.11 144.224 127.282C144.489 126.891 144.652 126.439 144.698 125.969C145.033 122.435 145.57 118.895 145.585 115.355C145.623 106.829 146.242 98.236 144.638 89.776C143.934 86.0434 142.784 82.396 141.834 78.7233C143.242 78.616 144.651 78.4076 146.059 78.4265C148.589 78.436 151.077 78.5939 153.565 78.6981ZM121.614 125.239C120.553 126.622 122.223 134.397 123.733 135.092C125.65 132.6 124.431 126.926 121.614 125.239Z" fill="black"/>
<path d="M87.8813 99.6474L94.1371 99.5717L91.5002 100.974L96.7234 103.961C97.3803 104.776 97.9076 105.786 98.7382 106.345C99.4076 106.797 100.582 107.037 101.264 106.75C101.823 106.516 102 105.36 102.348 104.615C103.093 102.089 104.874 101.501 107.324 101.71C109.513 101.896 111.746 101.71 113.94 101.751C115.203 101.77 116.416 101.798 117.341 100.617C117.613 100.27 118.38 100.251 118.92 100.194C120.259 100.061 121.608 99.9917 122.953 99.8969L125.795 99.8211L127.039 101.751C127.374 102.839 127.708 103.928 128.04 105.019L127.671 110.643C126.935 114.467 123.796 116.659 120.092 115.923C119.653 115.235 119.299 114.467 118.747 113.89C118.279 113.4 117.61 112.626 116.931 113.766L116.299 113.451C115.14 112.917 114.01 112.014 112.826 111.929C110.498 111.764 108.133 112.159 105.787 112.121C104.081 112.093 102.376 111.54 100.68 111.575C96.7234 111.657 92.7855 111.957 88.8223 112.162C88.2571 112.191 87.6918 112.162 86.8044 112.162C87.1392 111.407 87.3318 110.899 87.5781 110.432C88.3739 108.881 89.5581 107.476 88.055 105.569C87.5939 104.984 87.5939 103.513 88.0202 102.856C88.8287 101.618 88.2444 100.699 87.8813 99.6474Z" fill="black"/>
<path d="M153.565 78.6981C151.077 78.5939 148.589 78.436 146.1 78.4076C144.692 78.4076 143.283 78.5971 141.875 78.7044H141.543L138.092 70.8034L137.776 70.1718C138.238 70.0155 138.715 69.9097 139.2 69.856C142.74 69.8213 146.28 69.8244 149.82 69.8149C151.57 72.676 153.318 75.536 155.065 78.395L153.565 78.6981Z" fill="#161213"/>
<path d="M116.027 129.856C115.73 128.976 115.479 128.081 115.276 127.175C114.935 125.201 114.644 123.215 114.407 121.226C114.111 118.898 113.867 116.565 113.583 114.079C110.539 114.079 107.334 114.152 104.132 114.045C102.72 114 102.376 114.439 102.376 115.819C102.42 139.451 102.432 163.081 102.411 186.711C102.2 185.972 101.99 185.235 101.779 184.5C101.779 161.587 101.779 138.673 101.779 115.759C101.732 115.101 101.637 114.446 101.495 113.801C101.462 113.765 101.439 113.72 101.428 113.672C101.418 113.624 101.42 113.574 101.435 113.527H113.855L116.027 129.856Z" fill="#13EA76"/>
<path d="M155.053 78.3823C153.303 75.5254 151.555 72.6654 149.808 69.8022C148.386 68.018 146.568 66.6759 144.335 66.4075C140.899 65.9907 137.422 65.9338 133.889 65.7191C134.046 66.638 134.129 67.1243 134.204 67.6138L132.689 67.3422C130.068 65.9591 127.421 66.1864 124.765 67.2254C125.637 65.6022 127.418 65.7096 128.823 65.1128C129.264 64.9708 129.718 64.8714 130.178 64.8159L142.121 64.8317C148.983 65.7349 152.226 70.6896 154.753 76.3107C155.473 77.9149 156.288 79.0233 158.009 79.737C161.236 81.0759 163.484 83.6433 165.316 86.5675C167.429 90.5054 169.124 94.576 169.497 99.1991L166.491 90.3823L164.35 86.4696L161.823 83.3686C160.453 81.6223 158.618 80.6433 156.433 79.7875L156.73 82.8412L155.053 78.3823Z" fill="#F7F4F6"/>
<path d="M164.35 86.4791L166.491 90.3823C164.416 90.477 162.341 90.5528 160.27 90.676C159.667 90.7452 159.069 90.8507 158.479 90.9918C158.419 90.117 158.35 89.0591 158.28 88.0012C158.555 87.5654 158.798 86.7886 159.117 86.7539C160.263 86.6402 161.435 86.8202 162.591 86.7981C163.185 86.7429 163.774 86.6362 164.35 86.4791Z" fill="#362C2D"/>
<path d="M128.04 105.019C127.705 103.929 127.372 102.839 127.039 101.751C127.039 101.356 127.011 100.961 126.998 100.566C127.025 100.524 127.059 100.487 127.099 100.456C127.14 100.434 127.232 100.421 127.241 100.437C127.421 100.784 127.595 101.138 127.769 101.492L127.98 101.416V100.516C129.654 103.112 129.619 106.03 129.392 108.916C129.269 110.441 128.678 111.929 128.299 113.435C127.074 115.257 125.773 117.003 123.42 117.436C121.993 117.698 120.483 117.019 120.092 115.923C123.783 116.659 126.922 114.468 127.671 110.643C127.789 108.768 127.912 106.893 128.04 105.019Z" fill="#252123"/>
<path d="M84.0728 111.54C83.8833 108.058 83.6928 104.575 83.5012 101.091C83.8739 101.331 84.2433 101.577 84.6223 101.811C85.0012 102.045 85.2949 102.206 85.6296 102.401C85.8349 103.365 86.0875 104.321 86.2296 105.294C86.2992 106.016 86.3277 106.741 86.3149 107.467C85.9991 108.843 85.7433 110.249 85.2886 111.572C85.0391 112.311 84.4612 112.292 84.0728 111.54Z" fill="#4E4546"/>
<path d="M164.35 86.4791C163.776 86.6347 163.189 86.7403 162.597 86.7948C161.435 86.8169 160.263 86.6369 159.123 86.7506C158.808 86.7854 158.561 87.5622 158.287 87.998L157.064 83.7159L161.817 83.3654L164.35 86.4791Z" fill="#413535"/>
<path d="M161.811 83.3779L157.058 83.7285L156.723 82.8506L156.427 79.7969C158.618 80.6527 160.44 81.6316 161.811 83.3779Z" fill="#AD9695"/>
<path d="M116.302 113.457L116.934 113.773C118.478 114.67 118.892 115.955 118.197 117.562C117.998 117.888 117.752 118.182 117.468 118.437C117.225 118.203 116.861 118.011 116.76 117.727C116.365 116.604 116.032 115.46 115.762 114.3C115.696 114.067 116.1 113.751 116.302 113.457Z" fill="#2F2526"/>
<path d="M83.1916 97.7086L83.1726 96.976L86.6463 99.1454C86.6968 99.9096 86.7821 100.677 86.7884 101.441C86.7583 101.867 86.6907 102.29 86.5863 102.704C86.321 102.149 86.081 101.583 85.7905 101.043C85.1052 99.7833 84.8084 98.2328 83.1916 97.7086Z" fill="#4D4447"/>
<path d="M83.1918 97.7086C84.8086 98.2328 85.1054 99.7834 85.7749 101.04C86.0654 101.58 86.3054 102.145 86.5707 102.701L86.3023 107.467C86.3151 106.741 86.2866 106.016 86.217 105.294C86.0749 104.321 85.8223 103.364 85.617 102.401L83.1633 98.2549L83.1918 97.7086Z" fill="#E7DEE0"/>
<path d="M159.607 102.322C159.701 105.445 159.812 108.565 159.884 111.689C159.913 112.889 159.856 114.092 159.837 115.292L159.521 112.134L159.297 102.698L159.607 102.322Z" fill="#837C7D"/>
<path d="M159.607 102.322L159.291 102.682C159.097 99.4528 158.903 96.2233 158.71 92.9938L159.199 92.9591C159.336 96.0833 159.472 99.2044 159.607 102.322Z" fill="#938D8E"/>
<path d="M169.835 101.489V110.451H169.601V101.482L169.835 101.489Z" fill="#EDF1EF"/>
<path d="M159.515 112.121L159.831 115.279V118.412C159.041 116.35 159.206 114.24 159.515 112.121Z" fill="#595352"/>
<path d="M86.6182 99.1454L83.1445 96.9759L83.4224 96.3444L87.2119 98.618C87.114 98.8138 87.013 99.0065 86.9151 99.1991L86.6182 99.1454Z" fill="#D3CDCF"/>
<path d="M100.535 140.786C101.02 147.9 100.997 155.04 100.468 162.152L99.9632 162.304C99.7263 161.606 99.3316 160.917 99.2842 160.207C99.18 158.561 99.2495 156.904 99.2495 155.252C99.2495 151.052 99.2274 146.855 99.2748 142.658C99.2748 141.982 99.6095 141.313 99.7895 140.64L100.535 140.786Z" fill="#FDFDFD"/>
<path d="M101.476 113.782C101.619 114.427 101.714 115.081 101.76 115.74C101.771 138.654 101.776 161.57 101.776 184.488H101.637H101.498C101.473 174.338 101.429 164.185 101.429 154.033C101.424 140.612 101.44 127.195 101.476 113.782Z" fill="#13EA76"/>
<path d="M100.595 174.026V184.573C98.8455 182.735 98.6371 176.126 100.595 174.026Z" fill="#FDFDFD"/>
<path d="M32.6178 154.488L29.9146 154.087V153.61C31.8567 152.801 33.9473 152.915 36.0157 152.909C38.141 152.909 40.2662 152.909 42.8178 152.909C41.8073 152.523 41.2104 152.296 40.6073 152.072L40.5852 151.586C41.6494 151.396 42.7073 151.074 43.7747 151.036C48.1957 150.878 52.6168 150.569 56.9999 150.758C65.1442 151.112 73.3421 151.143 81.3158 153.234C82.1292 153.44 82.9148 153.743 83.6558 154.137C84.9189 154.819 84.9442 155.795 83.621 156.25C81.5526 156.963 79.4179 157.652 77.261 157.898C71.2863 158.574 65.2894 159.104 59.2926 159.524C54.4294 159.862 49.5536 159.976 44.681 160.14C43.8757 160.169 43.061 159.944 42.2494 159.824V159.256L48.4073 158.713C41.842 158.381 35.2357 159.566 28.7146 158.135L28.5946 157.693L30.1104 157.289L41.1031 156.843V156.698H31.0388C28.6925 156.524 26.2641 157.106 23.5894 155.906C26.2357 154.671 28.6894 155.274 31.0483 155.094H43.2789V154.488H32.6178Z" fill="black"/>
<path d="M36.7232 98.2771L35.1443 97.0139L31.7622 94.4244C28.3674 93.7455 25.7842 95.0055 23.7632 97.8065C24.2937 95.8265 24.9853 93.9823 25.6263 92.1223C25.7527 91.7623 25.6706 91.3328 25.6863 90.9349L26.3179 90.0192L29.3906 88.0739C31.4243 87.5339 33.18 88.216 34.5537 89.6118C35.8169 90.9002 36.8401 92.4539 37.9674 93.8781C38.3885 95.1413 38.8095 96.3939 39.2306 97.636L36.7232 98.2771Z" fill="#322B2E"/>
<path d="M29.3844 88.0928L26.3022 90.0381C26.3433 89.5644 26.277 89.0496 26.438 88.6233C29.2265 81.2117 34.797 77.7602 42.5117 77.4538C43.5286 77.4128 44.3339 77.2644 44.6844 76.1907L45.2275 76.6991C44.5328 77.5865 45.3033 77.4317 45.7802 77.4665C50.0276 77.7538 53.0434 80.1191 55.6044 83.2738C55.8349 83.5581 55.857 84.0065 55.977 84.3791L53.4918 82.1117C50.0433 78.2749 45.4075 77.3749 38.7349 79.1528L42.7233 81.5717L42.1296 82.1717C41.4412 81.8023 40.7749 81.3917 40.0644 81.0728C35.397 78.9665 28.7338 82.7212 28.0644 87.8181C31.7307 84.9065 33.9317 84.9191 37.3391 87.8749L38.2865 89.1381L37.9928 89.4539C36.6096 88.4623 35.3338 87.2433 33.818 86.5423C32.3023 85.8412 29.8486 86.8486 29.3844 88.0928Z" fill="#F9F8F9"/>
<path d="M70.1969 66.3821L74.4916 69.5242C71.8579 69.4295 69.2243 69.3252 66.5969 69.2684C66.4548 69.2684 66.3063 69.6505 66.1611 69.8558L65.6116 71.0937L62.9905 68.0179H64.1306L62.6179 66.3821H69.6127H70.1969Z" fill="#A19099"/>
<path d="M70.1969 66.3823H69.6064C67.2727 65.4349 64.9106 66.0665 62.5548 66.2496L62.6116 66.3949L64.1211 68.0244H62.9811C62.4379 67.6328 61.9453 67.0991 61.339 66.8875C60.5464 66.6096 59.6685 66.5907 58.8127 66.4612C56.0337 65.9212 53.3527 66.1454 51.2337 68.1791C49.7179 69.6444 48.4737 71.3907 47.1095 73.0107L45.8242 73.876C47.2895 70.917 49.26 68.3812 52.0674 66.578C53.7477 65.487 55.7283 64.9512 57.7295 65.0465C60.9821 65.1538 64.2411 65.0465 67.4937 65.1254C68.5011 65.1475 69.7516 64.9928 70.1969 66.3823Z" fill="#F8F5F7"/>
<path d="M25.6706 90.9539C25.6549 91.3518 25.737 91.7812 25.6106 92.1412C24.9791 94.0012 24.278 95.8454 23.7475 97.8255C25.7685 95.0244 28.3517 93.7644 31.7464 94.4433C31.1622 94.6612 30.578 94.8697 30.0001 95.1033C29.5233 95.296 29.0528 95.5202 28.5885 95.7349C28.6675 95.8549 28.7433 95.9749 28.8191 96.0949C28.8191 96.3033 28.8033 96.5118 28.797 96.7265C26.4191 96.0949 25.1749 96.657 24.2591 98.9686C23.6591 100.484 23.2801 102.089 22.8033 103.652V103.721C22.7054 103.355 22.4875 102.979 22.5285 102.629C22.8601 99.057 23.2454 95.4886 24.7864 92.1823C25.0404 91.745 25.3366 91.3335 25.6706 90.9539Z" fill="#F4F2F3"/>
<path d="M26.242 106.488C26.5389 109.901 26.1504 110.223 22.5188 109.586L22.2031 108.954C23.8199 109.109 24.7515 108.483 24.7736 107.116C24.802 105.455 23.4441 105.948 22.5315 105.787C22.3216 105.764 22.1098 105.764 21.8999 105.787L22.2157 104.943C22.421 105.076 22.7336 105.37 22.8157 105.316C24.0189 104.52 24.982 105.092 25.9357 105.799L26.242 106.488Z" fill="#979194"/>
<path d="M21.8967 105.809C22.1066 105.786 22.3184 105.786 22.5283 105.809C23.4409 105.97 24.7988 105.477 24.7704 107.138C24.7483 108.505 23.8231 109.131 22.1999 108.976C22.0894 107.915 21.9946 106.863 21.8967 105.809Z" fill="#181516"/>
<path d="M66.1423 69.8559C66.2876 69.6507 66.436 69.2654 66.5781 69.2686C69.215 69.3254 71.8487 69.4296 74.4729 69.5244L75.2118 70.2065C72.5402 70.1307 69.8687 70.0486 67.1971 70.0012C67.0455 70.0012 66.8813 70.317 66.736 70.4654L66.1423 69.8559Z" fill="#1C1618"/>
<path d="M32.618 154.488H43.2791V155.119H31.0391L32.618 154.488Z" fill="#151214"/>
<path d="M25.9358 105.821C24.9885 105.114 24.019 104.558 22.8158 105.338C22.7337 105.392 22.4211 105.098 22.2158 104.965C22.4085 104.545 22.6042 104.129 22.7969 103.702V103.636L23.7442 103.952L24.42 103.349L25.699 104.896L25.9358 105.821Z" fill="#BCB1B5"/>
<path d="M31.0389 156.698H41.081V156.853L30.0916 157.311L31.0389 156.698Z" fill="#1C191A"/>
<path d="M45.8305 73.8695L47.1158 73.0043V73.5695C46.4842 74.6222 45.861 75.6664 45.2463 76.7022L44.7031 76.1938L45.8305 73.8695Z" fill="#E2E0E3"/>
<path d="M50.9083 190.567C56.6936 192.319 57.341 198.212 54.6694 201.263C53.7599 202.301 52.3547 202.911 51.1768 203.716C48.9315 203.903 46.7904 203.783 45.0188 202.084C42.922 200.066 42.2557 197.372 43.3073 194.767C43.7867 193.481 44.656 192.378 45.7935 191.61C46.9311 190.843 48.2799 190.451 49.6515 190.488C50.0715 190.488 50.4915 190.541 50.9083 190.567Z" fill="#FCFDFD"/>
<path d="M122.975 99.9002C121.63 99.9949 120.281 100.064 118.942 100.197C118.39 100.254 117.622 100.273 117.363 100.62C116.438 101.801 115.238 101.773 113.962 101.754C111.752 101.722 109.541 101.899 107.346 101.713C104.902 101.504 103.115 102.079 102.37 104.618C100.042 101.943 98.5264 101.776 96.7327 103.964L91.5127 100.974L94.1495 99.5718L96.4169 99.2781L101.154 99.1802L117.891 99.2654C118.115 99.4612 118.333 99.8212 118.563 99.8307C120.032 99.897 121.503 99.8844 122.975 99.9002Z" fill="#382E30"/>
<path d="M187.671 22.4874C187.03 22.6449 186.377 22.7505 185.719 22.8032C157.757 22.8032 129.782 22.8032 101.795 22.8032C101.795 22.699 101.776 22.5948 101.77 22.4874C109.86 22.4685 117.952 22.4495 126.045 22.4306C146.329 22.4179 166.613 22.4116 186.897 22.4116C187.156 22.4179 187.418 22.459 187.671 22.4874Z" fill="#13EA76"/>
<path d="M101.776 22.4874C101.776 22.5916 101.776 22.6958 101.801 22.8032C101.792 22.9083 101.792 23.014 101.801 23.119C101.801 46.7148 101.792 70.3107 101.773 93.9065C101.731 94.5161 101.645 95.1218 101.517 95.7191C101.479 84.3718 101.45 73.0286 101.429 61.6896C101.416 49.1906 101.421 36.6906 101.444 24.1895C101.499 23.6127 101.61 23.0427 101.776 22.4874Z" fill="#13EA76"/>
<path d="M107.46 98.3275L114.284 98.198L117.521 98.2485C117.559 98.2796 117.592 98.3157 117.619 98.3559C117.635 98.3969 117.635 98.4885 117.619 98.4948C117.382 98.5801 117.142 98.6559 116.836 98.7569L117.856 99.158L117.897 99.2654L101.16 99.1801C102.297 98.9843 103.428 98.7601 104.568 98.6022C105.518 98.4696 106.488 98.4159 107.46 98.3275Z" fill="#FDFDFD"/>
<path d="M95.7761 67.3296C95.9908 69.3096 96.2024 71.2864 96.4077 73.2664C96.4929 74.0149 96.6003 74.7601 96.695 75.5054L96.4077 75.8559L95.4445 75.5717C95.3466 73.2822 95.2108 70.9959 95.1793 68.7033C95.1666 68.2517 95.5614 67.7938 95.7761 67.3296Z" fill="#858485"/>
<path d="M143.931 203.782C143.066 203.79 142.209 203.626 141.408 203.302C140.607 202.977 139.877 202.498 139.261 201.892C138.646 201.285 138.155 200.563 137.819 199.767C137.482 198.971 137.305 198.116 137.299 197.252C137.296 196.36 137.47 195.477 137.811 194.653C138.151 193.829 138.652 193.081 139.284 192.452C139.916 191.823 140.666 191.326 141.491 190.988C142.316 190.651 143.2 190.481 144.092 190.488C145.837 190.48 147.514 191.164 148.757 192.389C150 193.615 150.707 195.283 150.723 197.028C150.729 197.92 150.557 198.803 150.217 199.628C149.877 200.452 149.376 201.201 148.744 201.83C148.111 202.459 147.36 202.955 146.534 203.29C145.707 203.626 144.822 203.793 143.931 203.782Z" fill="#FDFDFD"/>
<path d="M117.512 98.2487L114.275 98.1981C114.591 94.4434 114.812 90.6823 115.222 86.9434C115.434 85.0265 115.964 83.1539 116.353 81.2592C117.3 78.9286 118.153 76.5602 119.195 74.2739C120.4 71.4774 122.327 69.0514 124.778 67.2444C127.434 66.2054 130.08 65.9812 132.701 67.3612C132.979 67.7876 133.26 68.2107 133.538 68.6244C139.781 75.4581 141.565 84.0665 143.075 92.7823C143.083 91.2354 142.942 89.6914 142.652 88.1718C142.02 85.1086 141.316 82.0644 140.64 79.0139L141.543 78.6981H141.875C142.822 82.3802 143.975 86.0276 144.679 89.7507C146.258 98.2139 145.652 106.803 145.627 115.33C145.611 118.87 145.074 122.41 144.739 125.943C144.693 126.414 144.53 126.865 144.265 127.257C143.684 128.085 142.983 128.261 142.491 127.188C142.002 126.149 141.587 125.077 141.25 123.979C139.153 116.896 135.761 110.381 132.449 103.832C131.769 102.593 130.919 101.455 129.922 100.453C129.408 99.9066 128.552 99.6823 127.851 99.3097L127.566 99.6571L127.983 100.516V101.416L127.772 101.492C127.598 101.138 127.424 100.784 127.244 100.437C127.244 100.437 127.143 100.437 127.102 100.456C127.062 100.487 127.028 100.524 127.001 100.567C126.625 98.6718 125.845 97.0929 123.872 96.4234C122.571 95.8266 121.235 95.2929 119.896 96.2339C119.046 96.8308 118.301 97.5729 117.512 98.2487Z" fill="#2D2728"/>
<path d="M153.31 158.88L154.118 159.136L154.099 159.667C151.686 159.695 149.261 159.878 146.861 159.72C138.998 159.206 131.138 158.628 123.287 157.939C121.004 157.737 118.74 157.153 116.504 156.6C115.655 156.392 114.903 155.779 114.107 155.337V154.819C114.897 154.39 115.645 153.73 116.488 153.556C120.704 152.748 124.923 151.712 129.186 151.425C136.469 150.932 143.785 150.875 151.09 150.771C153.783 150.73 156.483 151.087 159.18 151.238C159.212 151.453 159.246 151.668 159.281 151.87L155.681 153.035L155.71 153.37H166.096C166.118 153.572 166.14 153.771 166.159 153.97L163.696 154.469H155.817L150.092 154.803C154.598 155.066 159.092 155.066 163.585 155.056C163.721 155.056 163.857 154.914 163.99 154.838C166.788 154.901 169.63 154.5 172.345 155.426L172.399 155.972L168.736 156.603C168.514 156.484 168.274 156.401 168.025 156.357C163.876 156.357 159.726 156.357 155.58 156.423C154.317 156.442 153.025 156.679 151.75 156.818C155.909 157.008 160.052 157.014 164.195 156.995C164.552 156.938 164.9 156.832 165.228 156.679L166.806 157.453L166.854 157.879L164.643 158.28H147.929C147.929 158.476 147.929 158.669 147.929 158.861L153.31 158.88Z" fill="#052614"/>
<path d="M187.646 69.8558C187.646 92.1885 187.653 114.522 187.668 136.857C187.668 148.103 187.661 159.35 187.649 170.596H187.355V69.8558H187.646Z" fill="#13EA76"/>
<path d="M187.646 69.8559H187.358V23.8295H187.646V69.8559Z" fill="#13EA76"/>
<path d="M165.231 156.698C164.903 156.851 164.555 156.957 164.198 157.014C160.055 157.033 155.912 157.014 151.753 156.837C153.016 156.698 154.305 156.461 155.583 156.442C159.73 156.373 163.879 156.379 168.029 156.376C168.277 156.42 168.517 156.503 168.739 156.622L165.231 156.698Z" fill="#082F1A"/>
<path d="M153.31 158.88H147.926C147.926 158.688 147.926 158.495 147.926 158.299H164.637C163.14 158.413 161.643 158.555 160.143 158.615C157.87 158.738 155.59 158.798 153.31 158.88Z" fill="#082F1A"/>
<path d="M163.987 154.835C163.854 154.911 163.718 155.053 163.582 155.053C159.089 155.053 154.595 155.053 150.089 154.8L155.801 154.51L163.724 154.74C163.82 154.74 163.913 154.773 163.987 154.835Z" fill="#082F1A"/>
<path d="M187.355 170.593H187.646V184.099H187.355V170.593Z" fill="#13EA76"/>
<path d="M163.731 154.74L155.808 154.51H163.687C163.691 154.588 163.705 154.666 163.731 154.74Z" fill="#082F1A"/>
<path d="M45.2496 76.7023C45.8812 75.6602 46.5044 74.6159 47.1191 73.5696C48.3823 72.638 49.5444 71.577 50.8801 70.7938C54.4486 68.7128 57.9254 69.4517 61.0265 72.8212C63.4202 75.4265 64.7244 78.6381 66.0033 81.8591C66.0918 82.216 66.177 82.5728 66.2718 82.9265C68.5391 91.3739 69.8686 99.9507 69.8433 108.714C68.896 106.889 67.8918 105.092 67.0012 103.232C65.896 100.889 64.8444 98.5139 63.8654 96.1139C62.7412 93.3539 61.6202 90.6097 59.4696 88.4465L56.5896 85.1781L55.9865 84.3823C55.8665 84.0096 55.8444 83.5612 55.6138 83.277C53.0654 80.1191 50.037 77.757 45.7896 77.4696C45.3128 77.4349 44.5422 77.5896 45.2496 76.7023Z" fill="#2F2728"/>
<path d="M68.6179 73.3296C70.8801 76.8082 72.3674 80.7328 72.979 84.837C73.8794 90.1354 74.5118 95.4759 74.8737 100.838C75.2527 107.47 75.4611 114.177 75.1516 120.821C74.8358 127.87 73.8316 134.893 70.4716 141.31C69.3569 143.438 68.7664 144.152 67.1685 144.894C67.4306 143.947 67.4842 143.16 67.8569 142.541C69.8022 139.299 71.0398 135.682 71.4885 131.928C71.6937 130.172 72.3632 128.454 72.5053 126.704C72.799 123.07 72.8811 119.416 73.0516 115.772C73.0516 115.623 73.0516 115.475 73.0358 115.327C73.1558 115.03 73.3769 114.736 73.3769 114.439C73.3769 112.004 73.3327 109.57 73.3043 107.132C73.2158 105.524 73.1906 103.911 73.0295 102.31C72.4611 96.6254 72.1327 90.8907 71.1348 85.2791C70.5032 81.6254 68.8548 78.1485 67.6611 74.5959C67.9864 74.1696 68.3021 73.7496 68.6179 73.3296Z" fill="#261E20"/>
<path d="M61.0168 115.039L51.8589 117.509L51.521 117.193C51.6157 115.917 51.7115 114.642 51.8084 113.369C51.7452 109.701 51.6799 106.034 51.6126 102.366C52.121 102.477 52.6263 102.591 53.1347 102.682C55.1052 103.09 57.101 103.415 59.0463 103.926C60.4137 104.286 60.8273 104.129 61.0326 102.733C61.1121 102.391 61.2177 102.057 61.3484 101.732C61.3484 106.14 61.341 110.546 61.3263 114.951C61.2221 114.995 61.1179 115.014 61.0168 115.039Z" fill="#433839"/>
<path d="M73.0392 115.33C73.0392 115.478 73.0392 115.627 73.055 115.775C72.3918 114.644 71.6402 113.565 71.0971 112.371C70.5539 111.177 70.2444 109.942 69.8339 108.72C69.8592 99.9571 68.5297 91.3803 66.2623 82.9329C66.1676 82.5792 66.0823 82.2223 65.9939 81.8655L66.9792 82.9297C67.1307 82.8192 67.2602 82.775 67.295 82.696C67.4998 82.0029 67.7487 81.3237 68.0402 80.6623C68.2076 80.3465 68.6718 80.1539 68.9876 79.9076C69.3034 80.7886 69.6571 81.6571 69.9097 82.5539C71.8771 89.5013 72.4076 96.6192 72.7518 103.775C72.815 105.12 72.9413 106.462 73.036 107.808L73.0392 115.33Z" fill="#AD9DA7"/>
<path d="M61.3549 101.751C61.2242 102.076 61.1186 102.411 61.0391 102.752C60.8339 104.148 60.4075 104.305 59.0528 103.945C57.1075 103.434 55.1117 103.109 53.1412 102.701C52.6328 102.597 52.1275 102.483 51.6191 102.385L50.356 95.1223C50.7613 95.0887 51.1683 95.0771 51.5749 95.0876C54.5086 95.3023 57.4423 95.536 60.376 95.7634C60.6981 97.7613 61.0244 99.757 61.3549 101.751Z" fill="#372E30"/>
<path d="M60.3758 95.7506C57.4421 95.5232 54.5084 95.2896 51.5748 95.0748C51.1681 95.0644 50.7612 95.076 50.3558 95.1096C49.7242 93.2148 49.0853 91.3201 48.439 89.4253L57.8811 89.119L60.3758 95.7506Z" fill="#2E2728"/>
<path d="M57.8811 89.1192L48.4453 89.435C47.9905 88.5213 47.5369 87.6087 47.0842 86.6971C47.2863 86.5518 47.479 86.2992 47.6937 86.2739C49.7779 86.0339 51.8653 85.8413 53.9495 85.6044C54.8337 85.5034 55.7148 85.3266 56.5958 85.1844L59.46 88.4466C59.5264 88.7845 59.5895 89.1255 59.719 89.776L58.0074 87.6697L57.739 87.7771C57.7895 88.2255 57.8337 88.6771 57.8811 89.1192Z" fill="#0C0A0B"/>
<path d="M39.218 97.6455C38.7969 96.3823 38.3759 95.1297 37.9548 93.8876C38.539 92.9623 38.9496 93.1297 39.2622 94.0833C39.8938 96.0381 40.5506 97.9928 41.2706 100.172C41.3527 99.6191 41.4096 99.2465 41.4664 98.8707L41.8264 98.896C41.9085 99.5276 41.9885 100.164 42.0664 100.807C42.0033 102.013 41.9022 103.219 41.8864 104.425C41.858 106.699 41.8864 108.973 41.8864 111.25H42.4517V104.23L42.7833 111.243C42.7643 111.449 42.7454 111.651 42.7233 111.856C41.3717 112.579 41.2927 111.325 41.1854 110.678C40.8475 108.676 40.6959 106.642 40.4717 104.618L39.218 97.6455Z" fill="#A2969F"/>
<path d="M37.3547 110.969C37.3105 116.062 33.7326 119.264 29.4094 119.621C30.3094 118.077 31.3042 116.378 32.2894 114.682C32.4189 114.746 32.6305 114.894 32.6652 114.862C34.1242 113.448 35.5705 112.02 37.0168 110.59L37.3547 110.969Z" fill="#1F1919"/>
<path d="M32.6178 111.998C32.4157 111.445 32.0842 110.902 32.0399 110.337C31.961 109.26 31.4715 108.641 30.442 108.417C30.0915 105.764 30.0915 103.014 28.1968 100.803L31.1147 100.172C31.2211 100.342 31.3161 100.519 31.3989 100.702C32.6999 104.299 32.6178 108.067 32.6178 111.805C32.6342 111.816 32.6476 111.83 32.6569 111.847C32.6662 111.864 32.6711 111.883 32.6711 111.902C32.6711 111.921 32.6662 111.94 32.6569 111.957C32.6476 111.974 32.6342 111.988 32.6178 111.998Z" fill="#7B6F75"/>
<path d="M51.8211 113.381C51.7264 114.657 51.6306 115.932 51.5338 117.206L51.1832 116.574C51.5559 112.655 49.879 109.219 48.6064 105.689C48.3253 104.905 48.019 104.129 47.7222 103.352L50.9874 103.014C51.1643 105.559 51.3317 108.104 51.5243 110.65C51.5938 111.559 51.7201 112.469 51.8211 113.381Z" fill="#A9949A"/>
<path d="M50.9875 103.014L47.7222 103.355C47.2085 102.203 46.6927 101.052 46.1748 99.9001C46.7369 99.5843 47.2801 99.2212 47.8643 98.9527C48.4361 98.7084 49.0291 98.5171 49.6359 98.3812C49.8411 98.3306 50.0938 98.4885 50.3243 98.5517L50.9875 103.014Z" fill="#9E8A90"/>
<path d="M35.1916 97.2855C35.7853 98.3613 36.381 99.4371 36.9789 100.513C35.4253 101.568 33.8526 101.46 32.0116 100.169L30.7231 97.6455L31.3105 97.374L35.1916 97.2855Z" fill="#685554"/>
<path d="M42.0726 100.803C41.9947 100.172 41.9147 99.535 41.8326 98.8929C41.7284 97.9455 41.6211 96.9982 41.5168 96.0508L43.3263 97.3139C43.5558 101.663 43.7758 106.006 43.9863 110.34C44.0337 111.24 43.8411 111.919 42.7232 111.856C42.7453 111.651 42.7642 111.449 42.7832 111.243C42.9758 110.817 43.2979 110.4 43.3295 109.961C43.4116 108.862 43.3579 107.751 43.3579 106.652C43.3579 105.016 43.3579 103.383 43.3579 101.748H42.8968L42.4737 102.695L42.0726 100.803Z" fill="#4A383B"/>
<path d="M50.3241 98.5518C50.0936 98.4886 49.841 98.3308 49.6357 98.3813C49.029 98.5172 48.4359 98.7086 47.8641 98.9529C47.2799 99.215 46.7368 99.5844 46.1747 99.9002C45.6462 98.8476 45.1199 97.795 44.5957 96.7423C46.1052 96.3381 47.6147 95.9276 49.1305 95.5518C49.2947 95.5107 49.5157 95.6781 49.7083 95.7508L50.3241 98.5518Z" fill="#938086"/>
<path d="M43.5634 94.8443C43.275 94.4233 42.9887 93.9938 42.7045 93.5559C42.6034 93.2401 42.4992 92.9243 42.3887 92.6085C42.9318 92.4411 43.4718 92.2643 44.0213 92.1127C45.3824 91.7369 46.7497 91.3769 48.1266 91.0106L48.7361 92.5738C48.1297 93.7169 47.0782 94.0296 45.8939 94.2001C45.1028 94.3594 44.324 94.5747 43.5634 94.8443Z" fill="#7F6D72"/>
<path d="M37.2727 101.476C37.3958 102.108 37.5222 102.72 37.6453 103.342L37.3295 108.67L36.9158 104.593L33.7074 106.803C33.6127 106.257 33.5464 105.888 33.4642 105.436L32.9842 106.143L32.6685 103.004L33.8085 103.377L33.7579 103.061L36.9474 102.821C37.0106 102.543 37.14 102.01 37.2727 101.476Z" fill="#806C70"/>
<path d="M43.5632 94.8445C44.3207 94.5742 45.0963 94.3579 45.8843 94.1971C47.0748 94.0266 48.1264 93.714 48.7264 92.5708L49.7085 95.7508C49.5159 95.6782 49.2948 95.5108 49.1306 95.5519C47.6148 95.9277 46.1053 96.3382 44.5959 96.7424L43.5632 94.8445Z" fill="#89787C"/>
<path d="M28.1971 100.803C30.0918 103.014 30.0918 105.768 30.4486 108.42C30.0855 110.249 29.9244 112.15 29.3023 113.89C28.7592 115.415 27.6413 115.743 26.5992 115.128C30.0728 113.094 29.5455 109.68 29.6149 106.481C29.5858 105.958 29.5129 105.438 29.3971 104.928C29.1223 103.5 28.7497 102.13 27.2876 101.416L26.0244 101.1L28.1971 100.803Z" fill="#EBE9EA"/>
<path d="M39.2181 97.6454L40.4813 104.609L40.0329 105.872L40.3708 105.682C39.1476 103.217 37.9318 100.749 36.7234 98.277L39.2181 97.6454Z" fill="#2B2428"/>
<path d="M42.4074 92.5927C42.5084 92.9085 42.6126 93.2243 42.7232 93.5401C42.6253 93.9538 42.5274 94.3674 42.4326 94.7843H41.2011L38.3021 89.119L37.3547 87.8558L37.9705 87.6158L41.1442 90.698L42.4074 92.5927Z" fill="#1E1616"/>
<path d="M35.1918 97.2855L31.3013 97.3802C31.3739 97.1592 31.516 96.7486 31.5065 96.7486C30.5434 96.3918 29.5676 96.0634 28.5886 95.7349C29.0592 95.5234 29.536 95.2992 30.0002 95.1034C30.5781 94.8697 31.1623 94.6613 31.7465 94.4434L35.1286 97.0328C35.1444 97.1181 35.1697 97.2034 35.1918 97.2855Z" fill="#937F84"/>
<path d="M37.2728 101.476C37.1402 102.01 37.0107 102.543 36.938 102.828L33.7486 103.068L33.7991 103.383L32.6591 103.014C32.4444 102.066 32.2296 101.119 32.0117 100.172C33.8528 101.46 35.4254 101.571 36.9791 100.516L37.2728 101.476Z" fill="#725F60"/>
<path d="M37.0389 110.593C35.5926 112.02 34.1463 113.435 32.6873 114.865C32.6526 114.897 32.441 114.749 32.3115 114.685C32.4189 113.792 32.5294 112.895 32.6273 112.001C32.6436 111.991 32.6571 111.977 32.6664 111.96C32.6757 111.943 32.6806 111.924 32.6806 111.905C32.6806 111.886 32.6757 111.867 32.6664 111.85C32.6571 111.833 32.6436 111.819 32.6273 111.809L32.9431 111.556L37.2915 110.069L37.0389 110.593Z" fill="#0F0909"/>
<path d="M68.6178 73.3295C68.302 73.7527 67.9862 74.1727 67.6704 74.5927C66.9799 73.4243 66.2873 72.2579 65.5925 71.0937L66.142 69.8558L66.7452 70.4653C67.3746 71.419 67.9988 72.3737 68.6178 73.3295Z" fill="#342C2E"/>
<path d="M25.9358 105.821C25.8569 105.505 25.7779 105.209 25.7021 104.902C25.7021 104.567 25.7021 104.23 25.7021 104.144L27.2495 103.961C27.344 103.969 27.4379 103.982 27.5306 104.002C27.6443 104.861 27.7579 105.72 27.8464 106.371L26.2421 106.494L25.9358 105.821Z" fill="#786D71"/>
<path d="M27.5339 104.002C27.4401 103.982 27.3452 103.969 27.2496 103.961C27.2485 103.872 27.2379 103.783 27.2181 103.696C27.1258 103.238 27.0646 102.773 27.0349 102.307C27.0778 101.999 27.1628 101.698 27.2875 101.413C28.7496 102.127 29.1223 103.497 29.397 104.925L28.9265 105.686C28.6549 104.811 28.4149 104.028 28.096 103.001L27.5339 104.002Z" fill="#1E181A"/>
<path d="M37.0391 110.593L37.3043 110.069L37.3422 108.673L37.658 103.345C37.6801 105.625 37.7149 107.902 37.7117 110.179C37.7117 110.441 37.4938 110.707 37.3959 110.972L37.0391 110.593Z" fill="#9E9395"/>
<path d="M83.1758 98.255L85.6295 102.401C85.2947 102.206 84.9537 102.016 84.6221 101.811C84.2905 101.606 83.8737 101.331 83.501 101.091C83.3937 100.147 83.2831 99.1992 83.1758 98.255Z" fill="#72686C"/>
<path d="M51.1831 116.571L51.5336 117.202L51.8715 117.518C51.5557 118.263 51.2083 118.99 50.9841 119.754C50.6083 121.042 50.3178 122.353 49.6736 123.585C50.1788 121.239 50.682 118.901 51.1831 116.571Z" fill="#453C3E"/>
<path d="M61.017 115.039C61.1181 115.014 61.2223 114.995 61.3328 114.976C60.9117 117.163 60.4907 119.353 60.0696 121.545L59.6433 121.456L61.017 115.039Z" fill="#171416"/>
<path d="M41.1821 94.8033H42.4074L43.3169 97.3297L41.5074 96.0665L41.1821 94.8033Z" fill="#302726"/>
<path d="M121.614 125.239C124.431 126.926 125.65 132.6 123.733 135.092C122.223 134.388 120.553 126.622 121.614 125.239Z" fill="#2F282A"/>
<path d="M96.7231 103.961C98.5168 101.751 100.033 101.94 102.36 104.615C102.013 105.36 101.836 106.51 101.277 106.75C100.582 107.037 99.4074 106.797 98.7505 106.345C97.9042 105.79 97.3768 104.779 96.7231 103.961Z" fill="#665B5D"/>
<path d="M122.975 99.9001C121.503 99.8843 120.032 99.9001 118.554 99.8306C118.323 99.8306 118.105 99.4611 117.881 99.2653L117.84 99.158C119.457 97.999 120.913 96.4422 123.209 97.0295L125.795 99.8243L122.975 99.9001Z" fill="#5E4F50"/>
<path d="M125.811 99.8244L123.224 97.0297L123.856 96.4233C125.83 97.0991 126.61 98.6812 126.985 100.567C126.985 100.961 127.014 101.356 127.026 101.751L125.811 99.8244Z" fill="#D6CED3"/>
<path d="M128.04 105.019C127.912 106.891 127.784 108.765 127.658 110.643L128.04 105.019Z" fill="#868285"/>
<path d="M134.211 67.6201C134.129 67.1306 134.047 66.6443 133.895 65.7253C137.429 65.9401 140.906 65.9969 144.341 66.4138C146.574 66.6822 148.393 68.0243 149.814 69.8085C146.274 69.8085 142.734 69.8085 139.194 69.8496C138.709 69.9032 138.232 70.0091 137.77 70.1653L134.211 67.6201Z" fill="#9B888B"/>
<path d="M141.544 78.6981L140.64 79.0139C140.419 78.6097 140.205 78.1991 139.974 77.8012C138.422 75.136 136.869 72.4718 135.313 69.8086C135.758 69.9318 136.213 70.0265 136.642 70.1812C137.138 70.3612 137.612 70.5886 138.095 70.797L141.544 78.6981Z" fill="#928387"/>
<path d="M138.092 70.8033C137.609 70.5949 137.144 70.3675 136.639 70.1875C136.21 70.0328 135.755 69.938 135.31 69.8149L133.532 68.6244C133.254 68.2012 132.973 67.778 132.695 67.3612L134.211 67.6328L137.776 70.1717L138.092 70.8033Z" fill="#C5BABE"/>
<path d="M41.46 98.8802C41.4032 99.256 41.3463 99.6286 41.2642 100.181C40.5442 98.0023 39.8969 96.0475 39.2558 94.0928C38.94 93.1454 38.5327 92.9717 37.9484 93.897C36.8211 92.4633 35.8074 90.9191 34.5348 89.6307C33.1611 88.2349 31.4053 87.5528 29.3716 88.0928C29.8358 86.8486 32.2674 85.7749 33.8274 86.5138C35.3874 87.2528 36.619 88.4338 38.0021 89.4254C39.8621 92.3149 41.1663 95.416 41.46 98.8802Z" fill="#998C95"/>
<path d="M37.9675 87.6191L37.3548 87.856C33.9475 84.9002 31.7464 84.8876 28.0801 87.7991C28.7369 82.7023 35.4001 78.957 40.0801 81.0539C40.7906 81.3696 41.4569 81.7833 42.1454 82.1528L44.9875 85.257C42.0506 86.116 39.1896 87.8623 36.0001 86.0244L37.9675 87.6191Z" fill="#5E5053"/>
<path d="M56.5895 85.178C55.7085 85.3201 54.8274 85.4938 53.9432 85.598C51.859 85.8349 49.7716 86.0275 47.6874 86.2675C47.4727 86.2928 47.28 86.5454 47.0779 86.6907L43.6958 82.1717L53.5011 82.1117L55.9864 84.3822L56.5895 85.178Z" fill="#3A302F"/>
<path d="M53.5011 82.115L43.6958 82.175L42.7232 81.5719L38.76 79.1561C45.4169 77.3782 50.0527 78.2782 53.5011 82.115Z" fill="#978792"/>
<path d="M42.7233 81.5718L43.7118 82.1749L47.0939 86.6907C47.5465 87.6023 48.0002 88.5149 48.4549 89.4286C49.0865 91.3234 49.7255 93.2181 50.3718 95.1129L51.6349 102.376C51.7002 106.041 51.7655 109.709 51.8307 113.378C51.7297 112.466 51.6034 111.556 51.5339 110.64C51.3412 108.095 51.1739 105.55 50.997 103.004L50.3339 98.5486L49.7086 95.7507L48.7233 92.5707L48.1234 91.0139C47.8349 90.3823 47.5486 89.7434 47.2644 89.0971C46.5002 87.8213 45.737 86.5444 44.9749 85.2665L42.1328 82.1623L42.7233 81.5718Z" fill="#F4EFF2"/>
<path d="M41.46 98.8802C41.1442 95.4065 39.8495 92.3149 37.9863 89.4065L38.28 89.0907L41.1537 94.7749L41.4853 96.0381C41.5926 96.9854 41.7 97.9328 41.8011 98.8802H41.46Z" fill="#E6DFE2"/>
<path d="M65.5927 71.0938C66.2854 72.2601 66.978 73.4264 67.6706 74.5927C68.8643 78.1454 70.5127 81.6222 71.1443 85.2759C72.1359 90.8875 72.4643 96.6191 73.0391 102.306C73.2001 103.908 73.2254 105.521 73.3138 107.129L73.017 107.801C72.9222 106.456 72.7959 105.114 72.7328 103.769C72.4012 96.6128 71.8706 89.4854 69.8906 82.5475C69.638 81.6506 69.2812 80.7822 68.9685 79.9012C66.9727 74.3685 64.6612 69.0759 58.8096 66.4548C59.6527 66.5843 60.5306 66.6032 61.3359 66.8811C61.9422 67.0927 62.4348 67.6264 62.978 68.018L65.5927 71.0938Z" fill="#F2EAED"/>
<path d="M62.6181 66.3822L62.5613 66.2369C64.9171 66.0506 67.2792 65.4253 69.6129 66.3695L62.6181 66.3822Z" fill="#887A83"/>
<path d="M58.8283 66.4549C64.6799 69.0759 66.9915 74.3686 68.9873 79.9012C68.6715 80.1475 68.2136 80.3307 68.0399 80.656C67.7484 81.3173 67.4995 81.9966 67.2947 82.6897C67.2631 82.7686 67.1336 82.8128 66.9789 82.9233L65.9904 81.856C64.7115 78.6349 63.4073 75.4233 61.0136 72.8181C57.9125 69.4486 54.4357 68.7128 50.8673 70.7907C49.5315 71.5738 48.3409 72.6349 47.1062 73.5665V73.0012C48.4704 71.3812 49.7146 69.6349 51.2304 68.1696C53.3557 66.1265 56.0367 65.9149 58.8283 66.4549Z" fill="#A999A1"/>
<path d="M28.1969 100.803L26.0274 101.088L25.0611 101.776L23.7474 103.961L22.8 103.645C23.2769 102.082 23.6558 100.488 24.2558 98.9623C25.1716 96.6507 26.4158 96.0981 28.7937 96.7202L31.118 100.172L28.1969 100.803Z" fill="#605559"/>
<path d="M31.1179 100.172L28.7969 96.7266C28.7969 96.5181 28.8127 96.3097 28.819 96.095L30.7137 97.655L32.0116 100.181C32.2295 101.129 32.4443 102.076 32.659 103.023C32.7664 104.072 32.8769 105.117 32.9748 106.166L32.9337 111.54L32.6179 111.793C32.6179 108.044 32.6969 104.287 31.399 100.68C31.3163 100.505 31.2224 100.335 31.1179 100.172Z" fill="#E5D9DF"/>
<path d="M30.7232 97.6453L28.8284 96.0853C28.7526 95.9653 28.6768 95.8453 28.5979 95.7253C29.5768 96.0411 30.5526 96.3822 31.5158 96.739C31.5158 96.739 31.3832 97.1527 31.3105 97.3706L30.7232 97.6453Z" fill="#A6929A"/>
<path d="M27.2212 103.696C27.2411 103.783 27.2517 103.872 27.2528 103.961L25.6991 104.144C25.6991 104.23 25.6991 104.568 25.6991 104.902L24.4202 103.355L26.4949 102.685L27.2212 103.696Z" fill="#AC9FA3"/>
<path d="M26.4978 102.698L24.4231 103.368L23.7473 103.961L25.0642 101.776L26.4978 102.698Z" fill="#D9CED3"/>
<path d="M123.881 96.4234L123.25 97.0297C120.944 96.4423 119.489 97.9992 117.881 99.1581L116.861 98.7571C117.177 98.656 117.408 98.5802 117.644 98.495C117.66 98.495 117.66 98.3971 117.644 98.356C117.617 98.3158 117.584 98.2797 117.547 98.2487C118.336 97.5729 119.081 96.8308 119.928 96.2339C121.232 95.2929 122.568 95.8265 123.881 96.4234Z" fill="#F3F0F1"/>
<path d="M133.535 68.6212L135.313 69.8117C136.866 72.477 138.42 75.1412 139.974 77.8044C140.204 78.2023 140.419 78.6128 140.64 79.017C141.316 82.0707 142.036 85.1149 142.652 88.1749C142.941 89.6924 143.083 91.2344 143.075 92.7792C141.565 84.0665 139.781 75.4581 133.535 68.6212Z" fill="#DFD7DC"/>
<path d="M73.0105 107.801L73.3073 107.129C73.3358 109.566 73.38 112.001 73.38 114.436C73.38 114.733 73.1589 115.026 73.0389 115.323L73.0105 107.801Z" fill="#FCF7FA"/>
<path d="M42.4703 102.698L42.8935 101.751H43.3546C43.3546 103.387 43.3546 105.019 43.3546 106.655C43.3546 107.757 43.4082 108.865 43.3261 109.964C43.2946 110.403 42.9724 110.82 42.7798 111.247L42.4482 104.233C42.4546 103.715 42.464 103.2 42.4703 102.698Z" fill="#655353"/>
<path d="M42.4706 102.698C42.4706 103.216 42.4548 103.731 42.4484 104.245V111.269H41.8832C41.8832 108.992 41.8642 106.718 41.8832 104.444C41.899 103.238 42 102.032 42.0632 100.825L42.4706 102.698Z" fill="#C6B7C2"/>
<path d="M47.2643 89.0907C47.5485 89.7223 47.8348 90.3612 48.1232 91.0075C46.759 91.3739 45.3917 91.7339 44.018 92.1097C43.4685 92.2612 42.9285 92.4254 42.3853 92.6054C41.9643 91.9739 41.5495 91.3328 41.1411 90.6823C41.2327 90.3412 41.3211 90.0033 41.3969 89.7096C41.9464 89.6402 42.4453 89.5644 42.9443 89.5139C44.3938 89.3686 45.8274 89.2328 47.2643 89.0907Z" fill="#736267"/>
<path d="M32.9336 111.54L32.9715 106.137L33.4515 105.426C33.5336 105.878 33.5999 106.247 33.6946 106.794L36.9031 104.583L37.3199 108.651L37.282 110.046L32.9336 111.54Z" fill="#8C797E"/>
<path d="M26.4979 102.698L25.0642 101.785L26.0305 101.097L27.2937 101.413C27.1689 101.698 27.0839 101.998 27.0411 102.306C27.0708 102.773 27.132 103.237 27.2242 103.696L26.4979 102.698Z" fill="#352C31"/>
<path d="M47.2642 89.0906C45.8273 89.2327 44.3936 89.3685 42.9568 89.5138C42.4578 89.5643 41.9589 89.6401 41.4094 89.7096C41.3336 90.0032 41.2452 90.3411 41.1536 90.6822L37.9673 87.619L35.9873 86.0401C39.1768 87.878 42.0378 86.1317 44.9747 85.2727C45.7368 86.5443 46.5 87.8169 47.2642 89.0906Z" fill="#665759"/>
</svg>
