<svg width="23" height="24" viewBox="0 0 23 24" fill="none" xmlns="http://www.w3.org/2000/svg">
<path fill-rule="evenodd" clip-rule="evenodd" d="M13.6586 0.510987C13.2266 0.333374 12.6788 0.333374 11.5833 0.333374C10.4878 0.333374 9.94008 0.333374 9.50806 0.510987C8.93196 0.747809 8.47427 1.20205 8.23565 1.77378C8.12672 2.03477 8.08409 2.33829 8.0674 2.78103C8.04289 3.43167 7.70668 4.03391 7.13853 4.35946C6.57037 4.68499 5.87674 4.67284 5.29673 4.36859C4.90204 4.16156 4.61587 4.04643 4.33365 4.00956C3.71544 3.92878 3.09021 4.09505 2.59552 4.47177C2.22449 4.75432 1.95062 5.22509 1.40288 6.16663C0.855142 7.10817 0.581279 7.57893 0.520239 8.0391C0.438841 8.65264 0.606374 9.27314 0.985972 9.76412C1.15923 9.98824 1.40273 10.1765 1.78065 10.4122C2.33623 10.7587 2.6937 11.3489 2.69367 12C2.69363 12.6512 2.33617 13.2413 1.78065 13.5876C1.40267 13.8234 1.15913 14.0118 0.985856 14.236C0.606257 14.7269 0.438736 15.3473 0.520122 15.9609C0.581162 16.421 0.855037 16.8919 1.40276 17.8334C1.9505 18.7749 2.22438 19.2457 2.5954 19.5282C3.09009 19.9049 3.71532 20.0712 4.33354 19.9904C4.61574 19.9536 4.90189 19.8384 5.29655 19.6314C5.8766 19.3272 6.57028 19.315 7.13847 19.6405C7.70666 19.9662 8.04288 20.5684 8.0674 21.2192C8.08409 21.6618 8.12672 21.9654 8.23565 22.2263C8.47427 22.798 8.93196 23.2523 9.50806 23.4891C9.94008 23.6667 10.4878 23.6667 11.5833 23.6667C12.6788 23.6667 13.2266 23.6667 13.6586 23.4891C14.2347 23.2523 14.6924 22.798 14.931 22.2263C15.0399 21.9654 15.0826 21.6618 15.0993 21.219C15.1238 20.5684 15.4599 19.9662 16.0281 19.6405C16.5963 19.3149 17.29 19.3272 17.87 19.6314C18.2647 19.8384 18.5508 19.9534 18.833 19.9903C19.4512 20.0712 20.0764 19.9049 20.5711 19.5282C20.9422 19.2456 21.216 18.7749 21.7638 17.8333C22.3115 16.8918 22.5853 16.421 22.6465 15.9609C22.7278 15.3473 22.5603 14.7268 22.1807 14.2358C22.0074 14.0117 21.7639 13.8233 21.3859 13.5876C20.8304 13.2413 20.473 12.651 20.473 11.9999C20.473 11.3488 20.8304 10.7588 21.3859 10.4124C21.764 10.1767 22.0075 9.98836 22.1809 9.76412C22.5604 9.27323 22.7279 8.65272 22.6466 8.03917C22.5855 7.57902 22.3116 7.10824 21.7639 6.16671C21.2161 5.22517 20.9423 4.7544 20.5712 4.47186C20.0765 4.09513 19.4513 3.92887 18.8331 4.00965C18.5509 4.04651 18.2647 4.16163 17.8701 4.36864C17.2901 4.6729 16.5964 4.68506 16.0282 4.35949C15.46 4.03394 15.1238 3.43164 15.0992 2.78097C15.0825 2.33827 15.0399 2.03476 14.931 1.77378C14.6924 1.20205 14.2347 0.747809 13.6586 0.510987ZM11.5833 15.5C13.5311 15.5 15.1099 13.9331 15.1099 12C15.1099 10.067 13.5311 8.50004 11.5833 8.50004C9.63558 8.50004 8.05668 10.067 8.05668 12C8.05668 13.9331 9.63558 15.5 11.5833 15.5Z" fill="#9CA3AF"/>
</svg>
