<svg width="30" height="30" viewBox="0 0 30 30" fill="none" xmlns="http://www.w3.org/2000/svg">
<g clip-path="url(#clip0_201_75)">
<mask id="mask0_201_75" style="mask-type:luminance" maskUnits="userSpaceOnUse" x="0" y="0" width="30" height="30">
<path d="M30 0H0V30H30V0Z" fill="white"/>
</mask>
<g mask="url(#mask0_201_75)">
<path d="M26.4844 0H3.51562C1.574 0 0 1.574 0 3.51562V26.4844C0 28.426 1.574 30 3.51562 30H26.4844C28.426 30 30 28.426 30 26.4844V3.51562C30 1.574 28.426 0 26.4844 0Z" fill="black"/>
<path d="M20.8539 5.85938H23.9551L17.1798 13.6031L25.1504 24.1406H18.9095L14.0214 17.7497L8.42825 24.1406H5.32516L12.572 15.8578L4.92578 5.85938H11.3251L15.7436 11.7009L20.8539 5.85938ZM19.7654 22.2844H21.4839L10.3914 7.61813H8.54731L19.7654 22.2844Z" fill="white"/>
</g>
</g>
<defs>
<clipPath id="clip0_201_75">
<rect width="30" height="30" fill="white"/>
</clipPath>
</defs>
</svg>
